<?xml version="1.0" encoding="utf-8"?>
<!-- Generator: Adobe Illustrator 18.1.1, SVG Export Plug-In . SVG Version: 6.00 Build 0)  -->
<svg version="1.1" id="Layer_1" xmlns="http://www.w3.org/2000/svg" xmlns:xlink="http://www.w3.org/1999/xlink" x="0px" y="0px"
	 viewBox="0 0 50 50" enable-background="new 0 0 50 50" xml:space="preserve">
<circle fill="#F3F1F6" cx="25" cy="25" r="25"/>
<g>
	<path fill="#747474" d="M-1.2,33.4c0.3-0.3,0.2-0.7,0-1"/>
</g>
<g>
	<g>
		
			<path fill="#FFFFFF" stroke="#747474" stroke-width="2" stroke-linecap="round" stroke-linejoin="round" stroke-miterlimit="10" d="
			M38.4,34L35,28.7v-8.4c0-5.5-4.5-10-10-10s-10,4.5-10,10v8.4L11.6,34H38.4z"/>
		
			<path fill="#EEE9F9" stroke="#747474" stroke-width="2" stroke-linecap="round" stroke-linejoin="round" stroke-miterlimit="10" d="
			M30.3,34c0,3-2.4,5.3-5.3,5.3S19.8,37,19.8,34H30.3z"/>
	</g>
	<path fill="#747474" d="M21.2,14.2c-0.2,0-0.4,0.1-0.5,0.1c-1.2,0.7-2.5,2.2-2.5,5.3c0,0.3,0.1,0.5,0.3,0.7
		c0.2,0.2,0.4,0.3,0.7,0.3h0.1h0.1c0.5-0.1,1-0.5,1-1c0.1-2.2,1-3.1,1.5-3.5c0.4-0.3,0.6-0.7,0.4-1.2V15
		C22.1,14.6,21.7,14.2,21.2,14.2z"/>
</g>
</svg>
