<?xml version="1.0" encoding="utf-8"?>
<!-- Generator: Adobe Illustrator 18.1.1, SVG Export Plug-In . SVG Version: 6.00 Build 0)  -->
<svg version="1.1" id="Layer_1" xmlns="http://www.w3.org/2000/svg" xmlns:xlink="http://www.w3.org/1999/xlink" x="0px" y="0px"
	 viewBox="0 0 50 50" enable-background="new 0 0 50 50" xml:space="preserve">
<g>
	<path fill="#9d9ba1" d="M8,27c-3.9,0-7-3.1-7-7s3.1-7,7-7s7,3.1,7,7S11.9,27,8,27z M8,17c-1.7,0-3,1.3-3,3s1.3,3,3,3s3-1.3,3-3
		S9.7,17,8,17z"/>
	<path fill="#9d9ba1" d="M18,18c-3.9,0-7-3.1-7-7s3.1-7,7-7s7,3.1,7,7S21.9,18,18,18z M18,8c-1.7,0-3,1.3-3,3s1.3,3,3,3s3-1.3,3-3
		S19.7,8,18,8z"/>
	<path fill="#9d9ba1" d="M32,18c-3.9,0-7-3.1-7-7s3.1-7,7-7s7,3.1,7,7S35.9,18,32,18z M32,8c-1.7,0-3,1.3-3,3s1.3,3,3,3s3-1.3,3-3
		S33.7,8,32,8z"/>
	<path fill="#9d9ba1" d="M42,27c-3.9,0-7-3.1-7-7s3.1-7,7-7s7,3.1,7,7S45.9,27,42,27z M42,17c-1.7,0-3,1.3-3,3s1.3,3,3,3s3-1.3,3-3
		S43.7,17,42,17z"/>
	<path fill="#9d9ba1" d="M14.3,46c-0.4,0-0.7,0-1-0.1c-3-0.7-5.3-2.9-6.2-6.1c0-0.1,0-0.2-0.1-0.3c-0.7-4.8,2.6-8.1,5.3-10.8
		l0.4-0.4c1.1-1.3,2.1-2.5,3.2-3.7l1.7-2c0.9-1.1,2.4-2.6,4.4-3.2c0.3-0.1,0.6-0.2,1-0.3C23.8,19,24.4,19,25,19c0.6,0,1.2,0,1.9,0.1
		c0.4,0.1,0.7,0.2,1,0.3c1.5,0.5,2.9,1.6,4.3,3.2c1.1,1.3,2.1,2.5,3.2,3.7l2.2,2.5c2.7,2.7,6.1,6,5.3,10.8c0,0.1,0,0.2-0.1,0.3
		c-0.9,3.2-3.2,5.4-6.1,6C36.3,46,36,46,35.7,46c-0.9,0-2-0.1-3.4-0.3c-2-0.3-4.5-0.6-7.1-0.6h-0.4c-2.5,0-5,0.3-7,0.6
		C16.4,45.9,15.2,46,14.3,46z M11,38.9c0.3,1,1.1,2.7,3.1,3.1c0,0,0.1,0,0.2,0c0.6,0,1.7-0.1,2.9-0.3c2.1-0.3,4.7-0.6,7.5-0.6h0.4
		c2.8,0,5.5,0.3,7.6,0.6c1.4,0.2,2.6,0.4,3.1,0.3c1.9-0.4,2.7-2.1,3.1-3.1c0.3-2.8-1.9-5-4.2-7.3l-0.5-0.5c0,0-0.1-0.1-0.1-0.1
		l-1.8-2.1c-1-1.2-2-2.4-3.1-3.7c-0.9-1.1-1.8-1.8-2.6-2.1c-0.1-0.1-0.3-0.1-0.4-0.1c-0.6-0.1-1.7-0.1-2.4,0c-0.1,0-0.2,0.1-0.4,0.1
		c-0.8,0.3-1.7,1-2.7,2.1l-1.7,2C18,28.5,17,29.7,15.8,31c0,0-0.1,0.1-0.1,0.1l-0.5,0.5C12.9,33.9,10.7,36.1,11,38.9z"/>
</g>
</svg>
