<svg xmlns="http://www.w3.org/2000/svg" xmlns:xlink="http://www.w3.org/1999/xlink" width="96" height="96" viewBox="0 0 96 96">
    <defs>
        <path id="prefix__a" d="M0.001 0.151L89.79 0.151 89.79 34 0.001 34z"/>
    </defs>
    <g fill="none" fill-rule="evenodd">
        <path fill="#B8B3C3" d="M45 9.677c-8.448 0-15.323 6.875-15.323 15.323S36.552 40.323 45 40.323 60.323 33.448 60.323 25 53.448 9.677 45 9.677M45 50c-13.782 0-25-11.218-25-25C20 11.214 31.218 0 45 0s25 11.214 25 25c0 13.782-11.218 25-25 25" transform="translate(4 6)"/>
        <g transform="translate(4 6) translate(0 52)">
            <mask id="prefix__b" fill="#fff">
                <use xlink:href="#prefix__a"/>
            </mask>
            <path fill="#B8B3C3" d="M84.98 34c-2.657 0-4.81-2.164-4.81-4.836v-8.482c0-5.988-5.207-10.86-11.604-10.86H21.23c-6.402 0-11.609 4.872-11.609 10.86v8.482C9.621 31.836 7.47 34 4.811 34c-2.658 0-4.81-2.164-4.81-4.836v-8.482C0 9.362 9.525.152 21.23.152h47.336c11.705 0 21.225 9.21 21.225 20.53v8.482c0 2.672-2.153 4.836-4.81 4.836" mask="url(#prefix__b)"/>
        </g>
    </g>
</svg>
