<svg xmlns="http://www.w3.org/2000/svg" xmlns:xlink="http://www.w3.org/1999/xlink" width="96" height="96" viewBox="0 0 96 96">
    <defs>
        <path id="prefix__a" d="M0 0L92 0 92 80 0 80z"/>
    </defs>
    <g fill="none" fill-rule="evenodd" transform="translate(2 10)">
        <mask id="prefix__b" fill="#fff">
            <use xlink:href="#prefix__a"/>
        </mask>
        <path fill="#B8B3C3" d="M26.723 8.972c-2.632 0-5.116.538-7.39 1.596-4.444 2.071-7.675 5.668-9.104 10.12-1.55 4.863-2.356 11.959 2.624 18.112 7.89 9.757 16.166 18.441 33.032 31.596.038.026.076.056.11.086.011-.007.022-.018.034-.026C62.877 57.331 71.186 48.613 79.144 38.8c4.984-6.142 4.177-13.241 2.62-18.116-1.425-4.448-4.66-8.045-9.104-10.12-2.27-1.054-4.754-1.592-7.386-1.592-6.33 0-12.147 5.443-15.48 10.535-1.67 2.55-5.922 2.55-7.592 0-3.43-5.242-9.545-10.535-15.48-10.535M46.048 80h-.067c-1.742-.007-3.672-.879-5.742-2.594C22.787 63.79 13.844 54.37 5.796 44.415-.044 37.2-1.53 27.809 1.607 17.978 3.805 11.11 8.732 5.6 15.484 2.448 18.968.823 22.753 0 26.723 0 34.33 0 41.196 4.59 45.98 9.76 49.998 5.33 56.63 0 65.274 0c3.97 0 7.748.822 11.235 2.445 6.752 3.151 11.683 8.665 13.88 15.529 3.145 9.85 1.652 19.245-4.195 26.445-8.358 10.31-17.052 19.439-34.533 33.058C48.615 79.92 46.737 80 46.047 80" mask="url(#prefix__b)"/>
    </g>
</svg>
