<?xml version="1.0" encoding="utf-8"?>
<!-- Generator: Adobe Illustrator 18.1.1, SVG Export Plug-In . SVG Version: 6.00 Build 0)  -->
<svg version="1.1" id="Layer_1" xmlns="http://www.w3.org/2000/svg" xmlns:xlink="http://www.w3.org/1999/xlink" x="0px" y="0px"
	 viewBox="0 0 50 50" enable-background="new 0 0 50 50" xml:space="preserve">
<path fill="#F6F1F7" stroke="#FF4D7E" stroke-width="3" stroke-miterlimit="10" d="M3.3,41.6l19.6-34C23.8,6,26.1,6,27,7.6l19.6,34
	c0.9,1.6-0.2,3.6-2.1,3.6H5.4C3.6,45.2,2.4,43.2,3.3,41.6z"/>
<g>
	<g>
		<path fill="#FF4D7E" d="M26.4,36.6c-0.7-0.7-2-0.8-2.9,0C23.2,37,23,37.5,23,38s0.2,1,0.6,1.4C24,39.8,24.5,40,25,40
			s1-0.2,1.4-0.5c0.4-0.4,0.6-0.8,0.6-1.3C27,37.5,26.8,37,26.4,36.6z"/>
	</g>
	<g>
		<path fill="#FF4D7E" d="M25,33.8c0.6,0,1-0.3,1.2-0.8c0.1-0.3,0.2-0.8,0.2-1.5c0-0.6,0.1-2.5,0.3-5.6c0.2-3.1,0.3-5.2,0.3-6
			c0-0.5-0.2-0.9-0.5-1.3c-0.7-0.8-2-0.8-2.8-0.1c-0.4,0.4-0.6,0.8-0.6,1.3l0.7,12.7C23.8,33.5,24.4,33.8,25,33.8z"/>
	</g>
</g>
<path display="none" fill="#7953D0" d="M137.2,31.4c0-0.3-0.3-0.6-0.6-0.6s-0.6,0.3-0.6,0.6v0.2c0,0.3,0.3,0.6,0.6,0.6
	s0.6-0.3,0.6-0.6V31.4z"/>
<path display="none" fill="#7953D0" d="M143.9,30.8c-0.2-0.2-0.7-0.2-0.9,0s-0.2,0.6,0,0.9c0.1,0.1,0.1,0.1,0.2,0.2
	c0.2,0.2,0.7,0.2,0.9,0c0.2-0.2,0.2-0.6,0-0.9C144.1,30.9,144,30.8,143.9,30.8"/>
</svg>
