<?xml version="1.0" encoding="utf-8"?>
<!-- Generator: Adobe Illustrator 18.1.1, SVG Export Plug-In . SVG Version: 6.00 Build 0)  -->
<svg version="1.1" id="Layer_1" xmlns="http://www.w3.org/2000/svg" xmlns:xlink="http://www.w3.org/1999/xlink" x="0px" y="0px"
	 viewBox="236 -236 512 512" enable-background="new 236 -236 512 512" xml:space="preserve">
<title>Mobile Security</title>
<path fill="#FFBACD" d="M601.5-80l79,38.8v74.9c0,17.9-11.9,40.4-26.7,50.4l-52.3,35.7l-1,0.7l-53.3-36.4
	c-14.7-10-26.7-32.7-26.7-50.4v-75l80-39.2L601.5-80z"/>
<path fill="#D4CAED" d="M606.5,162v32c0,22.1-17.9,40-40,40h-160c-22.1,0-40-17.9-40-40v-32H606.5z M501.5,198c0-8.3-6.7-15-15-15
	s-15,6.7-15,15s6.7,15,15,15C494.8,213,501.5,206.3,501.5,198z"/>
<path fill="#FFFFFF" d="M601.5,119.8V163h-240v-298h240v55l-1-0.5l-80,39.2v75c0,17.7,11.9,40.4,26.7,50.4l53.3,36.4L601.5,119.8z"
	/>
<path fill="#D4CAED" d="M601.5-155v20h-240v-20c0-22.1,17.9-40,40-40h160C583.6-195,601.5-177.1,601.5-155z"/>
<circle fill="#F8EC7D" cx="481.5" cy="199" r="15"/>
<path fill="#747474" d="M481.5,177c-12.1,0-22,9.9-22,22s9.9,22,22,22s22-9.9,22-22C503.5,186.9,493.6,177,481.5,177z M489.5,199
	c0,4.4-3.6,8-8,8c-4.4,0-8-3.6-8-8s3.6-8,8-8S489.5,194.6,489.5,199z"/>
<path fill="#747474" d="M684.9-50.2l-73.4-36.1V-155c0-27.5-22.5-50-50-50h-160c-27.5,0-50,22.5-50,50v350c0,27.5,22.5,50,50,50h160
	c27.5,0,50-22.5,50-50v-69.9l48-32.7c17.4-11.9,31-37.6,31-58.7v-74.9C690.5-45,688.3-48.5,684.9-50.2z M591.5,173v22
	c0,16.5-13.5,30-30,30h-160c-16.5,0-30-13.5-30-30v-22H591.5z M670.5,33.7c0,14.4-10.4,34.1-22.3,42.2l-47.7,32.5l-47.7-32.5
	c-11.9-8.1-22.3-27.8-22.3-42.2v-68.7l70-34.3l70,34.4L670.5,33.7z M530.5-145h-159v-10c0-16.5,13.5-30,30-30h160
	c16.5,0,30,13.5,30,30v10h-29.6c-5.5,0-10,4.5-10,10s4.5,10,10,10h29.6v37.8l-75.4,36.9c-3.4,1.7-5.6,5.2-5.6,9v75
	c0,21,13.6,46.8,31,58.7l50,34.1V153h-220v-278h159c5.5,0,10-4.5,10-10S536-145,530.5-145z"/>
<path fill="#747474" d="M635.7-5.7c-1.4-1.4-3.3-2.2-5.3-2.2c-2,0-3.8,0.8-5.3,2.2l-35.5,35.5l-13.9-13.9c-1.4-1.4-3.3-2.2-5.3-2.2
	c-2,0-3.9,0.8-5.3,2.2c-2.9,2.9-2.9,7.6,0,10.5l19.2,19.2c1.4,1.4,3.3,2.2,5.3,2.2s3.9-0.8,5.3-2.2l40.8-40.8
	C638.7,1.9,638.7-2.8,635.7-5.7z"/>
</svg>
