<?xml version="1.0" encoding="utf-8"?>
<!-- Generator: Adobe Illustrator 18.1.1, SVG Export Plug-In . SVG Version: 6.00 Build 0)  -->
<svg version="1.1" id="Layer_1" xmlns="http://www.w3.org/2000/svg" xmlns:xlink="http://www.w3.org/1999/xlink" x="0px" y="0px"
	 viewBox="0 0 56 56" enable-background="new 0 0 56 56" xml:space="preserve">
<rect fill="#F3F1F6" width="56" height="56"/>
<g>
	<g>
		<path fill="#9D9BA1" d="M23,28.6c0-0.3-0.2-0.5-0.5-0.5S22,28.3,22,28.6c0,0.1,0,0.1,0,0.2c0,0.3,0.2,0.5,0.5,0.5S23,29,23,28.7
			C23,28.7,23,28.6,23,28.6z"/>
		<path fill="#9D9BA1" d="M28.1,28.1c-0.2-0.2-0.5-0.2-0.7,0c-0.2,0.2-0.2,0.5,0,0.7c0.1,0.1,0.1,0.1,0.2,0.2c0.2,0.2,0.5,0.2,0.7,0
			c0.2-0.2,0.2-0.5,0-0.7C28.2,28.2,28.1,28.1,28.1,28.1z"/>
		<path fill="#9D9BA1" d="M41.8,28.3c-0.1-0.8-0.4-1.5-0.6-2.2c-0.5-1.2-1.3-2.5-2.3-3.5c0.2-1.1-0.2-2.1-0.4-2.8
			c-0.5-1.2-0.7-2.2-0.8-3.2c-0.1-1.2-0.3-2.6-1.4-3.3c-1.2-0.8-2.5-0.4-3.9,1c-1,1-2,2.3-2.9,3.7c-1.2-0.3-2.4-0.4-3.6-0.5
			c-0.7,0-1.4,0-2.1,0.1c-0.1,0-0.2,0-0.2,0c0,0-0.1,0-0.2-0.1c-0.7-0.3-1.3-0.7-1.9-1.1c-0.7-0.4-1.4-0.9-2.2-1.2
			c-2-0.8-3.5-0.5-4.1,0.8c-0.6,1.2-0.5,2.7-0.4,4v0.1c0,0.2,0,0.4,0,0.5c0,0.5,0.1,1,0.1,1.5c0.1,1.1,0.1,2.2,0.2,3.3
			c-1,2.4-1.4,4.8-1.1,7.2c0.3,2.9,1.7,5.3,3.9,6.7c1.3,0.8,2.8,1.4,4.7,1.7c1.7,0.3,3.5,0.5,5.3,0.5c0.1,0,0.3,0,0.4,0
			c4.1,0,11.3-0.9,13.1-6.7C42.1,32.7,42.2,30.4,41.8,28.3z M32,17.8l0.2-0.2c0.3-0.4,0.6-0.8,0.9-1.2c1.4-1.6,2-1.6,2.1-1.5
			c0.1,0,0.2,0.2,0.3,0.5c0.2,0.6,0.3,1.1,0.4,1.8c0.1,0.6,0.2,1.3,0.4,1.9c0.1,0.2,0.2,0.5,0.2,0.7l0,0.1c0.1,0.3,0.2,0.7,0.3,1
			c0,0,0,0.1,0.1,0.2c0,0,0,0,0,0.1c-0.1,0-0.1-0.1-0.2-0.1c-0.4-0.2-0.7-0.5-1.1-0.7c0-0.3-0.3-1.1-0.4-1.5
			c-0.1-0.4-0.1-0.8-0.2-1.2c0-0.3-0.2-0.5-0.4-0.6s-0.5-0.2-0.7-0.1c-0.5,0.1-0.7,0.7-1.1,1.1c-0.2,0.2-0.6,0.7-0.7,0.8
			c0,0-0.1,0-0.1,0c-0.2-0.1-0.4-0.1-0.6-0.2h0C31.6,18.3,31.8,18,32,17.8z M16.7,17.9L16.7,17.9c0-0.3,0.1-0.6,0.2-0.9
			c0.1-0.1,0.2-0.4,1-0.3c0.5,0.1,1,0.3,1.8,0.7c0.4,0.2,0.7,0.4,1,0.6c0.2,0.1,0.4,0.2,0.6,0.4c0,0,0,0-0.1,0
			c-0.3,0.1-0.5,0.3-0.7,0.4c-0.2-0.1-0.4-0.1-0.7-0.2c-0.3-0.1-0.5-0.2-0.8-0.3s-0.5-0.3-0.8-0.2c-0.2,0-0.4,0.2-0.5,0.3
			c-0.1,0.2-0.1,0.4-0.1,0.6c0,0.3,0.1,0.5,0.1,0.8c0,0.2,0,0.3,0,0.5c0,0.2,0,0.5,0,0.7c0,0.1,0,0.2,0,0.3
			c-0.1,0.2-0.3,0.3-0.4,0.5c-0.2,0.2-0.3,0.4-0.5,0.6c0,0,0-0.1,0-0.1C16.7,21,16.6,19.4,16.7,17.9z M40,32.3
			c-0.2,1.5-0.5,2.6-1.1,3.5s-1.5,1.7-2.7,2.3c-2,1-4.6,1.6-7.7,1.6c-7.3,0.1-11.3-1.8-12.4-5.8c-0.7-2.4-0.4-5.2,0.8-7.8
			c0.1-0.1,0.1-0.2,0.1-0.3c0.7-1.4,1.5-2.7,2.6-3.8l0.3-0.3c0.2-0.2,0.4-0.4,0.7-0.6c0.3-0.3,0.7-0.5,1-0.8c1.2-0.8,2.5-0.9,3.5-1
			c2.8-0.1,5.8,0.8,7.8,1.5c2.6,1,4.6,2.5,5.9,4.3C39.9,27.1,40.3,29.3,40,32.3z"/>
		<path fill="#9D9BA1" d="M27.3,32.5c-0.6,0-1.1-0.1-1.7-0.1c0-0.3,0-0.5-0.1-0.8c0,0,0,0,0.1,0c0.5-0.1,0.9-0.6,0.8-1.1
			c0-0.4-0.4-0.6-0.7-0.4c-0.4,0.2-0.9,0.3-1.4,0.3c-0.1,0-0.2,0-0.3,0c-0.2,0-0.3,0.2-0.3,0.4c0,0.2,0,0.4,0.2,0.5
			c0.2,0.1,0.4,0.2,0.6,0.3v0c0,0.2,0,0.4,0,0.6c0,0.1,0,0.2,0,0.4c-0.4,0.2-0.9,0.3-1.4,0.3c-0.6,0-0.6,0.9,0,0.9
			c0.6,0,1.3-0.1,1.9-0.4c0,0,0.1,0,0.1,0c0.7,0,1.4,0.1,2.1,0.1C27.9,33.5,27.9,32.5,27.3,32.5z"/>
	</g>
	<g>
		<path fill="#9D9BA1" d="M20.5,43.6c1.4,0.8,3.7,1.1,5.4,1.3c3.7,0.4,7.3-0.2,10.7-1.5c1.4-0.5,0.2-2.3-1.2-1.7
			c-2.9,1.1-6.2,1.6-9.4,1.2c-1.3-0.2-3-0.4-4.1-1C20.5,41.2,19.3,42.9,20.5,43.6L20.5,43.6z"/>
	</g>
</g>
</svg>
