<?xml version="1.0" encoding="utf-8"?>
<!-- Generator: Adobe Illustrator 18.1.1, SVG Export Plug-In . SVG Version: 6.00 Build 0)  -->
<svg version="1.1" id="Layer_1" xmlns="http://www.w3.org/2000/svg" xmlns:xlink="http://www.w3.org/1999/xlink" x="0px" y="0px"
	 viewBox="0 0 50 50" enable-background="new 0 0 50 50" xml:space="preserve">
<path fill="#747474" d="M38.7,17h-2.3v-4.6C36.4,6.1,31.3,1,25,1S13.6,6.1,13.6,12.4V17h-2.3c-2.5,0-4.6,2.1-4.6,4.6v22.9
	c0,2.5,2.1,4.6,4.6,4.6h27.4c2.5,0,4.6-2.1,4.6-4.6V21.6C43.3,19.1,41.2,17,38.7,17z M25,37.6c-2.5,0-4.6-2.1-4.6-4.6
	s2.1-4.6,4.6-4.6s4.6,2.1,4.6,4.6S27.5,37.6,25,37.6z M32.1,17H17.9v-4.6c0-3.9,3.2-7.1,7.1-7.1s7.1,3.2,7.1,7.1V17z"/>
</svg>
