<?xml version="1.0" encoding="utf-8"?>
<!-- Generator: Adobe Illustrator 18.1.1, SVG Export Plug-In . SVG Version: 6.00 Build 0)  -->
<svg version="1.1" id="Layer_1" xmlns="http://www.w3.org/2000/svg" xmlns:xlink="http://www.w3.org/1999/xlink" x="0px" y="0px"
	 viewBox="0 0 32 32" enable-background="new 0 0 32 32" xml:space="preserve">
<g>
	<path fill="#747474" d="M9.9,28.6V6.9l3.4,3.4c0.6,0.6,1.5,0.6,2,0c0.6-0.6,0.6-1.5,0-2L9.5,2.4c-0.6-0.6-1.5-0.6-2,0L1.7,8.2
		c-0.6,0.6-0.6,1.5,0,2c0.6,0.6,1.5,0.6,2,0l3.4-3.4v21.7c0,0.8,0.6,1.4,1.4,1.4S9.9,29.4,9.9,28.6z"/>
	<path fill="#747474" d="M22.1,3.4v21.7l-3.4-3.4c-0.6-0.6-1.5-0.6-2,0c-0.6,0.6-0.6,1.5,0,2l5.8,5.8c0.6,0.6,1.5,0.6,2,0l5.8-5.8
		c0.6-0.6,0.6-1.5,0-2c-0.6-0.6-1.5-0.6-2,0l-3.4,3.4V3.4c0-0.8-0.6-1.4-1.4-1.4S22.1,2.6,22.1,3.4z"/>
</g>
</svg>
