<?xml version="1.0" encoding="utf-8"?>
<!-- Generator: Adobe Illustrator 18.1.1, SVG Export Plug-In . SVG Version: 6.00 Build 0)  -->
<svg version="1.1" id="Layer_1" xmlns="http://www.w3.org/2000/svg" xmlns:xlink="http://www.w3.org/1999/xlink" x="0px" y="0px"
	 viewBox="0 0 48 48" enable-background="new 0 0 48 48" xml:space="preserve">
<g>
	<path fill="#9D9BA1" d="M36.7,13.3H34h-3.8V10c0-1.1-1.1-2-2.2-2h-8c-1.1,0-2.2,0.9-2.2,2v3.3h-3.2h-3.3c-0.7,0-1.3,0.6-1.3,1.3
		c0,0.7,0.6,1.3,1.3,1.3h0.2v17.7c0,3.4,3.3,6.3,6.5,6.3h13.2c2.7,0,4.3-2.4,4.3-5.7V16h1.1c0.7,0,1.3-0.6,1.3-1.3
		C38,13.9,37.4,13.3,36.7,13.3z M20.5,10.7h7.1v1.8h-7.1V10.7z M32.9,34.3c0,1.2-0.1,3-1.7,3H18c-1.8,0-3.8-1.8-3.8-3.7V16h18.7
		V34.3z"/>
	<path fill="#9D9BA1" d="M18.2,34c0.7,0,1.3-0.6,1.3-1.3v-12c0-0.7-0.6-1.3-1.3-1.3c-0.7,0-1.3,0.6-1.3,1.3v12
		C16.9,33.4,17.5,34,18.2,34z"/>
	<path fill="#9D9BA1" d="M23.5,34c0.7,0,1.3-0.6,1.3-1.3v-12c0-0.7-0.6-1.3-1.3-1.3s-1.3,0.6-1.3,1.3v12C22.2,33.4,22.8,34,23.5,34z
		"/>
	<path fill="#9D9BA1" d="M28.9,34c0.7,0,1.3-0.6,1.3-1.3v-12c0-0.7-0.6-1.3-1.3-1.3s-1.3,0.6-1.3,1.3v12C27.5,33.4,28.1,34,28.9,34z
		"/>
</g>
</svg>
