<?xml version="1.0" encoding="utf-8"?>
<!-- Generator: Adobe Illustrator 18.1.1, SVG Export Plug-In . SVG Version: 6.00 Build 0)  -->
<svg version="1.1" id="Layer_1" xmlns="http://www.w3.org/2000/svg" xmlns:xlink="http://www.w3.org/1999/xlink" x="0px" y="0px"
	 viewBox="0 0 50 50" enable-background="new 0 0 50 50" xml:space="preserve">
<g id="Icon_40_">
	<path fill="#747474" d="M46.8,16H15.5c-1.2,0-2.2-0.8-2.2-2s1-2,2.2-2h31.3c1.2,0,2.2,0.8,2.2,2S48,16,46.8,16z"/>
	<path fill="#747474" d="M46.8,27H15.5c-1.2,0-2.2-0.8-2.2-2s1-2,2.2-2h31.3c1.2,0,2.2,0.8,2.2,2S48,27,46.8,27z"/>
	<path fill="#747474" d="M46.8,38H15.5c-1.2,0-2.2-0.8-2.2-2s1-2,2.2-2h31.3c1.2,0,2.2,0.8,2.2,2S48,38,46.8,38z"/>
	<path fill="#747474" d="M4.3,17.2c-1.8,0-3.3-1.5-3.3-3.3s1.5-3.3,3.3-3.3s3.3,1.5,3.3,3.3S6.2,17.2,4.3,17.2z"/>
	<path fill="#747474" d="M4.3,28.3C2.5,28.3,1,26.8,1,25s1.5-3.3,3.3-3.3s3.3,1.5,3.3,3.3S6.2,28.3,4.3,28.3z"/>
	<path fill="#747474" d="M4.3,39.5C2.5,39.5,1,38,1,36.2s1.5-3.3,3.3-3.3s3.3,1.5,3.3,3.3S6.2,39.5,4.3,39.5z"/>
</g>
</svg>
