<?xml version="1.0" encoding="utf-8"?>
<!-- Generator: Adobe Illustrator 18.1.1, SVG Export Plug-In . SVG Version: 6.00 Build 0)  -->
<svg version="1.1" id="Layer_1" xmlns="http://www.w3.org/2000/svg" xmlns:xlink="http://www.w3.org/1999/xlink" x="0px" y="0px"
	 viewBox="0 0 50 50" enable-background="new 0 0 50 50" xml:space="preserve">
<rect fill="#F3F1F6" width="50" height="50"/>
<g>
	<g>
		<path fill="#D4CAED" d="M11.1,17.5h27.9v6.8H11.1V17.5z"/>
		<path fill="#FFFFFF" d="M29.2,27.7c2.2,0,2.2,3.4,0,3.4c2.2,0,2.2,3.4,0,3.4c-0.9,0-1.7-0.8-1.7-1.7h-5.1c0,0.9-0.8,1.7-1.7,1.7
			c-2.2,0-2.2-3.4,0-3.4c-2.2,0-2.2-3.4,0-3.4c0.9,0,1.7,0.8,1.7,1.7h5.1C27.5,28.5,28.3,27.7,29.2,27.7z"/>
	</g>
	<g>
		<circle fill="#9D9BA1" cx="35.2" cy="20.9" r="0.6"/>
		<circle fill="#9D9BA1" cx="30.1" cy="20.9" r="0.6"/>
		<circle fill="#9D9BA1" cx="25" cy="20.9" r="0.6"/>
		<circle fill="#9D9BA1" cx="19.9" cy="20.9" r="0.6"/>
		<circle fill="#9D9BA1" cx="14.8" cy="20.9" r="0.6"/>
		<circle fill="#9D9BA1" cx="25" cy="17.5" r="0.6"/>
		<path fill="#9D9BA1" stroke="#9D9BA1" stroke-width="0.1933" stroke-miterlimit="10" d="M38.9,16.9H27.5c-0.3,0-0.6,0.3-0.6,0.6
			s0.3,0.6,0.6,0.6h10.8v5.7H11.6v-5.7h10.8c0.3,0,0.6-0.3,0.6-0.6s-0.3-0.6-0.6-0.6H11.1c-0.3,0-0.6,0.3-0.6,0.6v6.8
			c0,0.3,0.3,0.6,0.6,0.6h13.4v4h-1.5c-0.3-1-1.1-1.7-2.2-1.7c-1.4,0-2.3,1-2.3,2.3c0,0.6,0.2,1.3,0.7,1.7c-0.5,0.4-0.7,1.1-0.7,1.7
			c0,1.1,0.8,2.3,2.3,2.3c1.1,0,1.9-0.7,2.2-1.7h4.1c0.3,1,1.1,1.7,2.2,1.7c1.5,0,2.3-1.1,2.3-2.3c0-0.6-0.2-1.3-0.7-1.7
			c0.5-0.4,0.7-1.1,0.7-1.7c0-1.2-0.9-2.3-2.3-2.3c-1.1,0-1.9,0.7-2.2,1.7h-1.5v-4h13.4c0.3,0,0.6-0.3,0.6-0.6v-6.8
			C39.5,17.2,39.2,16.9,38.9,16.9z M27.5,30c0.3,0,0.6-0.3,0.6-0.6c0-0.6,0.5-1.1,1.1-1.1c0.8,0,1.1,0.6,1.1,1.1
			c0,0.6-0.4,1.1-1.1,1.1c-0.3,0-0.6,0.3-0.6,0.6s0.3,0.6,0.6,0.6c0.8,0,1.1,0.6,1.1,1.1c0,0.5-0.3,1.1-1.1,1.1
			c-0.6,0-1.1-0.5-1.1-1.1c0-0.3-0.3-0.6-0.6-0.6h-5.1c-0.3,0-0.6,0.3-0.6,0.6c0,0.6-0.5,1.1-1.1,1.1c-0.8,0-1.1-0.6-1.1-1.1
			c0-0.5,0.3-1.1,1.1-1.1c0.3,0,0.6-0.3,0.6-0.6s-0.3-0.6-0.6-0.6c-0.8,0-1.1-0.6-1.1-1.1c0-0.5,0.3-1.1,1.1-1.1
			c0.6,0,1.1,0.5,1.1,1.1c0,0.3,0.3,0.6,0.6,0.6H27.5z"/>
	</g>
</g>
</svg>
