<?xml version="1.0" encoding="utf-8"?>
<!-- Generator: Adobe Illustrator 18.1.1, SVG Export Plug-In . SVG Version: 6.00 Build 0)  -->
<svg version="1.1" id="Layer_1" xmlns="http://www.w3.org/2000/svg" xmlns:xlink="http://www.w3.org/1999/xlink" x="0px" y="0px"
	 viewBox="0 0 50 50" enable-background="new 0 0 50 50" xml:space="preserve">
<g>
	<path fill="#FFFFFF" d="M20.5,22.1c0.4,4.4,2.4,8,4.6,8.6c2.2,0.6,4.5-2.6,5.5-4.8c0.3-0.8,0.7-2,0.9-3.3c-1.2,3.6-3.6,5.9-6.4,5.2
		c-2.8-0.6-3.9-7.2-4.2-10.8C20.5,18.6,20.3,20.4,20.5,22.1z"/>
	<path fill="#FFFFFF" d="M35.8,15.6c-1.5-0.5-2.3,0-2.9,0.8c0.6,4-0.1,8-1,10c-1,2.3-3.4,5.8-6.3,5.8c-0.3,0-0.7,0-1-0.1
		c-3.4-0.9-5.3-5.6-5.7-9.9c-0.3-2.9,0.2-6,1-8.6c-2.3-1.8-9.3,3.7-11.3,8.5C7.5,25,7,27.7,6.8,29.6c1.2,3.7,3.3,6.5,4.3,7.8
		c0.1,0.1,0.2,0.3,0.3,0.4c0.5,0.6,0.9,1.2,1.3,2c1.1,2.1,1.9,3.3,3.4,3.3h0c1.4,0,1.9-0.7,2.8-2.2c0.5-0.9,1-1.7,1.9-2.5
		c0.3-0.3,0.7-0.5,0.9-0.7c1.4-1.1,2.1-1.6,2.5-3.1c0.1-0.3,0.3-0.5,0.6-0.5c0.3-0.1,0.6,0.1,0.8,0.3c0,0,2.1,2.8,4.9,4.3
		c1.3,0.7,2.3,1.7,3.1,2.6c1.1,1.2,2,2.1,3.4,2.2c0,0,0.1,0,0.1,0c2,0,2.9-3,3.3-4.6c0.1-0.2,0.1-0.4,0.2-0.6
		c0.1-0.2,0.2-0.5,0.3-0.9c1.4-3.3,2.2-6.4,2.6-9.3C42.8,19.8,38.6,16.6,35.8,15.6z"/>
	<path fill="#F5B04F" d="M20,13.7c0.4-1.2,0.8-2.4,1.3-3.3c0.2-0.4,0.6-0.6,1-0.4s0.6,0.6,0.4,1c-0.7,1.6-1.5,3.7-1.9,6
		c0.4,3.6,1.5,10.1,4.2,10.8c2.8,0.7,5.2-1.6,6.4-5.2c0.4-2.8,0.3-6.4-0.9-9.6c-0.2-0.4,0-0.8,0.4-1c0.4-0.2,0.8,0,1,0.4
		c0.5,1.3,0.8,2.7,1,4c0.5-0.7,1.4-1.3,2.9-0.8c2.8,1,7,4.1,7.9,12.3c0.7-5.2-0.2-9.7-2.7-13.4c-5.4-7.9-13.1-8.3-14.6-8.3
		c-0.2,0-0.4,0-0.5,0c-4.1,0.2-14.1,2-18.7,12.9c-1.6,3.8-1.3,7.4-0.3,10.4C7,27.7,7.5,25,8.7,22.1C10.7,17.4,17.7,11.8,20,13.7z"/>
	<path fill="#040000" d="M42.3,13.7c-5.8-8.6-14.2-9-15.9-9c-0.2,0-0.4,0-0.6,0c-4.1,0.2-8.1,1.4-11.3,3.4
		c-3.9,2.4-6.8,5.9-8.7,10.4C1.9,27.8,8,35.7,9.9,38.3c0.1,0.1,0.2,0.3,0.3,0.4c0.4,0.5,0.7,1.3,1.1,2c1,1.9,2.2,4.3,4.8,4.3h0.1
		c2.3,0,3.3-1.8,4.1-3.2c0.5-0.8,0.9-1.6,1.5-2.1c0.3-0.3,0.6-0.5,0.9-0.8c1.1-0.9,1.9-1.6,2.5-2.7c0.9,1,2.6,2.6,4.5,3.7
		c1.1,0.6,1.9,1.5,2.7,2.3c1.2,1.3,2.4,2.6,4.5,2.7c0.1,0,0.2,0,0.2,0c3.1,0,4.3-3.8,4.8-5.7c0.1-0.2,0.1-0.4,0.2-0.6
		c0-0.1,0.2-0.4,0.3-0.7c0.7-1.7,2.2-5.4,2.8-9.8C46,22.5,45,17.7,42.3,13.7z M40.7,38.1c-0.1,0.2-0.1,0.4-0.2,0.6
		c-0.5,1.6-1.4,4.6-3.3,4.6c0,0-0.1,0-0.1,0c-1.5-0.1-2.3-1-3.4-2.2c-0.8-0.9-1.8-1.9-3.1-2.6c-2.7-1.5-4.9-4.2-4.9-4.3
		c-0.2-0.2-0.5-0.3-0.8-0.3c-0.3,0.1-0.5,0.3-0.6,0.5c-0.4,1.5-1.1,2.1-2.5,3.2c-0.3,0.2-0.6,0.5-0.9,0.8c-0.9,0.7-1.4,1.5-1.9,2.4
		c-0.8,1.5-1.4,2.2-2.8,2.2h0c-1.5,0-2.4-1.2-3.4-3.3c-0.4-0.7-0.8-1.4-1.3-2.1c-0.1-0.1-0.2-0.2-0.3-0.4c-1-1.3-3.2-4.1-4.3-7.8
		c-1-3-1.2-6.6,0.3-10.4C11.8,8.2,21.8,6.5,25.9,6.2c0.2,0,0.4,0,0.5,0c1.5,0,9.2,0.4,14.6,8.3c2.5,3.7,3.4,8.2,2.7,13.4
		c-0.4,2.9-1.3,6-2.6,9.3C40.9,37.7,40.8,38,40.7,38.1z"/>
	<path fill="#040000" d="M31,12c-0.4,0.2-0.6,0.6-0.4,1c1.2,3.2,1.3,6.8,0.9,9.6c-0.2,1.4-0.5,2.5-0.9,3.3c-1,2.3-3.3,5.4-5.5,4.8
		c-2.2-0.6-4.1-4.2-4.6-8.6c-0.2-1.7,0-3.4,0.3-5.1c0.4-2.3,1.1-4.4,1.9-6c0.2-0.4,0-0.8-0.4-1s-0.8,0-1,0.4
		c-0.4,0.9-0.9,2.1-1.3,3.3c-0.8,2.6-1.3,5.6-1,8.6c0.4,4.3,2.4,9,5.7,9.9c0.3,0.1,0.7,0.1,1,0.1c2.9,0,5.3-3.5,6.3-5.8
		c0.9-2,1.6-6,1-10c-0.2-1.4-0.5-2.7-1-4C31.8,12,31.4,11.8,31,12z"/>
</g>
</svg>
