<?xml version="1.0" encoding="utf-8"?>
<!-- Generator: Adobe Illustrator 18.1.1, SVG Export Plug-In . SVG Version: 6.00 Build 0)  -->
<svg version="1.1" id="Layer_1" xmlns="http://www.w3.org/2000/svg" xmlns:xlink="http://www.w3.org/1999/xlink" x="0px" y="0px"
	 viewBox="0 0 48 48" enable-background="new 0 0 48 48" xml:space="preserve">
<path fill="#747474" d="M38.2,31.3L26,43.6c-1,1-2.8,1-3.8,0c-1-1-1-2.8,0-3.8l7.7-7.7H2.7c-1.5,0-2.7-1.2-2.7-2.7V2.7
	C0,1.2,1.2,0,2.7,0c1.5,0,2.7,1.2,2.7,2.7v24.1h24.5l-7.7-7.7c-1-1-1-2.8,0-3.8c1-1,2.8-1,3.8,0l12.2,12.2
	C39.3,28.6,39.3,30.3,38.2,31.3z"/>
</svg>
