<?xml version="1.0" encoding="utf-8"?>
<!-- Generator: Adobe Illustrator 18.1.1, SVG Export Plug-In . SVG Version: 6.00 Build 0)  -->
<svg version="1.1" id="Layer_1" xmlns="http://www.w3.org/2000/svg" xmlns:xlink="http://www.w3.org/1999/xlink" x="0px" y="0px"
	 viewBox="0 0 50 50" enable-background="new 0 0 50 50" xml:space="preserve">
<g>
	<path fill="#9D9BA1" d="M25.2,34.6c-5,0-9.1-4.3-9.1-9.6c0-5.3,4.1-9.6,9.1-9.6c5,0,9.1,4.3,9.1,9.6C34.3,30.3,30.2,34.6,25.2,34.6
		z M25.2,19c-3.1,0-5.6,2.7-5.6,6.1c0,3.3,2.5,6.1,5.6,6.1c3.1,0,5.6-2.7,5.6-6.1C30.8,21.7,28.3,19,25.2,19z"/>
	<path fill="#9D9BA1" d="M27.9,48.2h-5.4c-0.9,0-1.6-0.7-1.7-1.5l-0.6-4.6c-1-0.3-2-0.7-2.9-1.3l-3.4,2.7c-0.7,0.6-1.7,0.5-2.4-0.2
		l-3.7-3.9c-0.6-0.6-0.6-1.5-0.2-2.2l2.6-3.8c-0.5-1.1-1-2.2-1.3-3.3l-4.2-0.5c-0.9-0.1-1.5-0.9-1.5-1.7v-5.7c0-0.9,0.6-1.6,1.5-1.7
		L9,19.8c0.3-1.1,0.8-2.3,1.3-3.3l-2.7-3.6c-0.5-0.7-0.4-1.6,0.1-2.2l3.7-4c0.6-0.7,1.7-0.7,2.4-0.2l3.4,2.7c1-0.5,2-1,3-1.3
		l0.6-4.6c0.1-0.9,0.9-1.5,1.7-1.5h5.4c0.9,0,1.6,0.7,1.7,1.5l0.5,4.6c1,0.3,2,0.7,2.9,1.3l3.4-2.8c0.7-0.6,1.7-0.5,2.4,0.2l3.7,4
		c0.6,0.6,0.6,1.5,0.2,2.2l-2.6,3.7c0.5,1.1,1,2.2,1.3,3.3l4.2,0.6c0.9,0.1,1.5,0.9,1.5,1.7v5.7c0,0.9-0.6,1.6-1.5,1.7l-4.2,0.6
		c-0.3,1.1-0.7,2.2-1.3,3.3l2.6,3.7c0.5,0.7,0.4,1.6-0.1,2.2l-3.7,4c-0.6,0.7-1.6,0.7-2.4,0.2l-3.4-2.7c-0.9,0.5-1.9,1-3,1.3
		l-0.6,4.6C29.5,47.6,28.8,48.2,27.9,48.2z M24.1,44.7h2.3l0.5-4.2c0.1-0.7,0.6-1.3,1.3-1.5c1.5-0.4,2.8-1,4.1-1.8
		c0.6-0.4,1.5-0.4,2,0.1l3.1,2.4l1.6-1.8l-2.5-3.4c-0.4-0.6-0.4-1.3-0.1-1.9c0.8-1.4,1.4-2.9,1.7-4.4c0.2-0.7,0.7-1.3,1.5-1.4
		l3.9-0.5v-2.7l-3.9-0.5c-0.7-0.1-1.3-0.6-1.5-1.4c-0.3-1.6-0.9-3.1-1.8-4.5c-0.4-0.6-0.3-1.3,0.1-1.9l2.5-3.5l-1.6-1.7l-3.1,2.5
		c-0.6,0.5-1.4,0.5-2.1,0.1C31,12,29.6,11.4,28.2,11c-0.7-0.2-1.2-0.8-1.3-1.5l-0.5-4.2h-2.3l-0.5,4.3c-0.1,0.7-0.6,1.3-1.3,1.5
		c-1.5,0.4-2.9,1-4.2,1.8c-0.6,0.4-1.5,0.4-2.1-0.1l-3.1-2.5L11.3,12l2.5,3.4c0.4,0.6,0.5,1.3,0.1,1.9c-0.8,1.4-1.4,2.9-1.8,4.5
		c-0.2,0.7-0.7,1.3-1.5,1.4l-3.9,0.5v2.7l3.8,0.5c0.7,0.1,1.3,0.6,1.5,1.4c0.3,1.6,0.9,3.1,1.8,4.5c0.3,0.6,0.3,1.3-0.1,1.9
		l-2.4,3.5l1.7,1.8l3.1-2.5c0.6-0.5,1.4-0.5,2.1-0.1c1.3,0.8,2.6,1.4,4.1,1.8c0.7,0.2,1.2,0.8,1.3,1.5L24.1,44.7z"/>
</g>
</svg>
