<?xml version="1.0" encoding="utf-8"?>
<!-- Generator: Adobe Illustrator 18.1.1, SVG Export Plug-In . SVG Version: 6.00 Build 0)  -->
<svg version="1.1" id="Layer_1" xmlns="http://www.w3.org/2000/svg" xmlns:xlink="http://www.w3.org/1999/xlink" x="0px" y="0px"
	 viewBox="0 0 24 24" enable-background="new 0 0 24 24" xml:space="preserve">
<rect fill="#F3F1F6" width="24" height="24"/>
<g>
	<g>
		<path fill="#FFFFFF" d="M14.7,12.5c0.4-0.7,0.9-1.6,1.8-2.8l0,0c-0.2-0.4-0.5-0.9-0.9-1.2c-0.4-0.4-0.8-0.7-1.2-0.9l0,0
			c-1.2,1-2.1,1.4-2.8,1.8c-0.6,0.3-1,0.5-1.3,0.9c-0.5,0.5-0.8,1.2-0.8,1.8c0,0.7,0.2,1.3,0.8,1.8c0.5,0.5,1.2,0.8,1.8,0.8
			c0.7,0,1.3-0.2,1.8-0.8C14.2,13.4,14.4,13,14.7,12.5z"/>
		<path fill="#D4CAED" d="M10.2,10.2c0.4-0.4,0.8-0.6,1.3-0.9c0.7-0.4,1.6-0.9,2.8-1.8l0,0c-0.3-0.1-0.6-0.3-0.9-0.3l0,0
			c-1,0.7-1.7,1.1-2.3,1.4C10.5,8.9,10,9.1,9.6,9.6c-0.7,0.7-1,1.5-1,2.4c0,0.9,0.3,1.7,1,2.4c0.7,0.7,1.5,1,2.4,1s1.7-0.3,2.4-1
			c0.4-0.4,0.7-0.9,1.1-1.5c0.3-0.6,0.7-1.3,1.4-2.3l0,0c-0.1-0.3-0.2-0.6-0.3-0.9l0,0c-1,1.2-1.4,2.1-1.8,2.8
			c-0.3,0.6-0.5,1-0.9,1.3c-0.5,0.5-1.2,0.8-1.8,0.8s-1.3-0.2-1.8-0.8c-0.5-0.5-0.8-1.2-0.8-1.8C9.5,11.3,9.7,10.7,10.2,10.2z"/>
		<path fill="#FFFFFF" d="M9.6,9.6c0.4-0.4,0.9-0.7,1.5-1.1c0.6-0.3,1.3-0.7,2.3-1.4l0,0c-1.7-0.5-3.6-0.1-5,1.3c-2,2-2,5.2,0,7.2
			s5.2,2,7.2,0c1.3-1.3,1.8-3.3,1.3-5l0,0c-0.7,1-1.1,1.7-1.4,2.3s-0.6,1.1-1.1,1.5c-0.7,0.7-1.5,1-2.4,1s-1.7-0.3-2.4-1
			c-0.7-0.7-1-1.5-1-2.4C8.6,11.1,8.9,10.3,9.6,9.6z"/>
	</g>
	<path fill="#9D9BA1" stroke="#9D9BA1" stroke-width="0.3" stroke-miterlimit="10" d="M15.7,8.3c-0.4-0.4-0.8-0.7-1.3-1h0
		C14.1,7.2,13.8,7,13.5,7c0,0,0,0,0,0c-0.3-0.1-0.7-0.1-1.1-0.2c-1.2-0.1-2.5,0.2-3.5,1c-0.1,0-0.1,0.2,0,0.3c0,0.1,0.2,0.1,0.3,0
		c1.2-0.8,2.5-1.1,3.8-0.8c-0.8,0.6-1.4,0.9-1.9,1.2C10.4,8.7,9.9,9,9.4,9.5C8.7,10.1,8.4,11,8.4,12s0.4,1.9,1.1,2.5
		c0.7,0.7,1.6,1.1,2.5,1.1c0.7,0,1.3-0.2,1.8-0.5c0.1,0,0.1-0.2,0-0.3c0-0.1-0.2-0.1-0.3,0c-0.5,0.3-1.1,0.4-1.6,0.4
		c-0.9,0-1.6-0.3-2.3-0.9c-0.6-0.6-0.9-1.4-0.9-2.3c0-0.9,0.3-1.6,0.9-2.3c0.4-0.4,0.9-0.7,1.5-1c0.6-0.3,1.3-0.7,2.2-1.4
		c0.1,0,0.3,0.1,0.5,0.2c-1.1,0.8-1.8,1.2-2.5,1.6c-0.6,0.3-1,0.5-1.4,0.9c-0.5,0.5-0.8,1.2-0.8,2c0,0.7,0.3,1.4,0.8,2
		c0.5,0.5,1.2,0.8,2,0.8c0.7,0,1.4-0.3,2-0.8c0.4-0.4,0.6-0.8,0.9-1.4c0.3-0.6,0.8-1.4,1.6-2.5c0,0.1,0.1,0.3,0.2,0.5
		c-0.7,0.9-1.1,1.6-1.4,2.2c-0.2,0.3-0.3,0.6-0.5,0.9c0,0.1,0,0.2,0,0.3c0,0,0.1,0,0.1,0c0,0,0.1,0,0.2-0.1c0.2-0.3,0.3-0.6,0.5-0.9
		c0.3-0.5,0.6-1.1,1.2-1.9c0.3,1.5-0.1,3.2-1.3,4.4c-1.9,1.9-5,1.9-6.9,0c-1.7-1.7-1.9-4.3-0.5-6.3c0-0.1,0-0.2,0-0.3
		c-0.1,0-0.2,0-0.3,0c-0.7,1-1.1,2.3-1,3.5c0.1,1.2,0.6,2.4,1.5,3.3c1,1,2.3,1.5,3.7,1.5c1.4,0,2.7-0.5,3.7-1.5s1.5-2.3,1.5-3.7
		C17.3,10.6,16.8,9.3,15.7,8.3z M14.5,12.3c-0.3,0.6-0.5,1-0.9,1.3c-0.4,0.4-1.1,0.7-1.7,0.7s-1.2-0.2-1.7-0.7
		c-0.4-0.4-0.7-1.1-0.7-1.7s0.2-1.2,0.7-1.7c0.3-0.3,0.8-0.6,1.3-0.9c0.7-0.4,1.5-0.8,2.7-1.7c0.4,0.2,0.8,0.5,1.1,0.8
		s0.6,0.7,0.8,1.1C15.4,10.8,14.9,11.7,14.5,12.3z"/>
	<path fill="#9D9BA1" stroke="#9D9BA1" stroke-width="0.3" stroke-miterlimit="10" d="M8.4,8.6c0,0,0.1,0,0.1,0l0,0
		c0.1-0.1,0.1-0.2,0-0.3c0-0.1-0.2-0.1-0.3,0c-0.1,0-0.1,0.2,0,0.3C8.3,8.6,8.4,8.6,8.4,8.6z"/>
	<path fill="#9D9BA1" stroke="#9D9BA1" stroke-width="0.3" stroke-miterlimit="10" d="M14.4,14.6c0,0,0.1,0,0.1-0.1l0,0
		c0.1-0.1,0-0.2,0-0.3c-0.1-0.1-0.2,0-0.3,0c-0.1,0.1,0,0.2,0,0.3C14.3,14.6,14.4,14.6,14.4,14.6z"/>
</g>
</svg>
