<?xml version="1.0" encoding="utf-8"?>
<!-- Generator: Adobe Illustrator 18.1.1, SVG Export Plug-In . SVG Version: 6.00 Build 0)  -->
<svg version="1.1" id="Layer_1" xmlns="http://www.w3.org/2000/svg" xmlns:xlink="http://www.w3.org/1999/xlink" x="0px" y="0px"
	 viewBox="0 0 56 56" enable-background="new 0 0 56 56" xml:space="preserve">
<g>
	<path fill="#9D9BA1" d="M25.3,8.1c-1,0-1.8,0.8-1.8,1.9v23.3c-1.8-0.7-2.7-1.2-4.3-1.2c-4.4,0-8,3.5-8,8s3.5,8,8,8c4.4,0,8-3.5,8-8
		l0,0V10C27.1,8.9,26.3,8.1,25.3,8.1z M19.1,44.2c-2.4,0-4.3-1.9-4.3-4.3c0-2.4,1.9-4.3,4.3-4.3s4.3,1.9,4.3,4.3
		C23.3,42.3,21.4,44.2,19.1,44.2z"/>
	<path fill="#9D9BA1" d="M10.9,16.2l21.2,21.2l0,0c3.1,3.1,8.2,3.1,11.2,0s3.1-8.2,0-11.2s-8.2-3.1-11.2,0C31,27.3,30.3,28.6,30,30
		L13.5,13.6c-0.7-0.7-1.9-0.7-2.6,0C10.1,14.3,10.1,15.5,10.9,16.2z M34.7,34.8c-1.6-1.6-1.6-4.4,0-6c1.6-1.6,4.4-1.6,6,0
		s1.6,4.4,0,6S36.4,36.4,34.7,34.8z"/>
</g>
</svg>
