<?xml version="1.0" encoding="utf-8"?>
<!-- Generator: Adobe Illustrator 18.1.1, SVG Export Plug-In . SVG Version: 6.00 Build 0)  -->
<svg version="1.1" id="Layer_1" xmlns="http://www.w3.org/2000/svg" xmlns:xlink="http://www.w3.org/1999/xlink" x="0px" y="0px"
	 viewBox="0 0 50 50" enable-background="new 0 0 50 50" xml:space="preserve">
<path fill="#727075" d="M40.6,0.4c-0.6-0.3-1.3-0.2-1.8,0.1l-18,12.8h-9.5c-1.6,0-2.8,1.3-2.8,2.8v17.5c0,1.6,1.3,2.8,2.8,2.8h9.2
	l18.3,12.8c0.3,0.2,0.7,0.3,1,0.3c0.3,0,0.6-0.1,0.8-0.2c0.6-0.3,0.9-0.9,0.9-1.6V2C41.5,1.3,41.2,0.7,40.6,0.4z M12,16.9h7.7v16.2
	H12V16.9z M38,44.6L22.7,33.9c0,0,0-0.1,0-0.1V16.4L38,5.4V44.6z"/>
</svg>
