<?xml version="1.0" encoding="utf-8"?>
<!-- Generator: Adobe Illustrator 18.1.1, SVG Export Plug-In . SVG Version: 6.00 Build 0)  -->
<svg version="1.1" id="Layer_1" xmlns="http://www.w3.org/2000/svg" xmlns:xlink="http://www.w3.org/1999/xlink" x="0px" y="0px"
	 viewBox="0 0 50 50" enable-background="new 0 0 50 50" xml:space="preserve">
<rect fill="#F3F1F6" width="50" height="50"/>
<g display="none">
	<path display="inline" fill="#FFFFFF" stroke="#9D9BA1" stroke-width="1.867" stroke-linejoin="round" stroke-miterlimit="10" d="
		M36.3,35.3H13.8c-1.4,0-2.4-1.3-2.1-2.7l2.5-8.5h21.7l2.5,8.5C38.7,33.9,37.7,35.3,36.3,35.3z"/>
	<path display="inline" fill="#FFFFFF" stroke="#9D9BA1" stroke-width="1.867" stroke-linejoin="round" stroke-miterlimit="10" d="
		M16.1,21.4l-0.8,2.7h19.4l-0.7-2.7C31.3,12.5,18.7,12.5,16.1,21.4z"/>
	<circle display="inline" fill="#9D9BA1" cx="20.8" cy="20.2" r="0.6"/>
	<circle display="inline" fill="#9D9BA1" cx="25.6" cy="17.3" r="0.6"/>
	<circle display="inline" fill="#9D9BA1" cx="29.6" cy="20.6" r="0.6"/>
</g>
<g display="none">
	
		<path display="inline" fill="#FFFFFF" stroke="#9D9BA1" stroke-width="1.2" stroke-linecap="round" stroke-linejoin="round" stroke-miterlimit="10" d="
		M34.2,19.6c0-0.1,0-0.3,0-0.4c0-1.1-0.8-1.9-1.9-1.9c-0.3,0-0.6,0.1-0.9,0.2c-0.4-0.4-1-0.7-1.6-0.7c-0.6,0-1.3,0.3-1.6,0.8
		c-0.4-0.4-1-0.8-1.6-0.8c-0.6,0-1.3,0.3-1.6,0.8c-0.4-0.4-1-0.8-1.6-0.8s-1.3,0.3-1.6,0.8c-0.4-0.4-1-0.8-1.6-0.8
		c-0.6,0-1.3,0.3-1.6,0.7c-0.3-0.2-0.5-0.2-0.9-0.2c-1,0-1.9,0.8-1.9,1.9c0,0.1,0,0.3,0,0.4c-0.6,0.4-1.1,1.1-1.1,1.9v4.3h20.5v-4.3
		C35.3,20.6,34.8,19.9,34.2,19.6z"/>
	
		<path display="inline" fill="#D4CAED" stroke="#9D9BA1" stroke-width="1.2" stroke-linecap="round" stroke-linejoin="round" stroke-miterlimit="10" d="
		M25,22.9c-4,0-7.7-0.7-10.8-1.8l-2.5,8c3.4,1.9,8.1,3,13.3,3s9.9-1.2,13.3-3l-2.5-8C32.7,22.2,29,22.9,25,22.9z"/>
	
		<path display="inline" fill="#FFFFFF" stroke="#9D9BA1" stroke-linecap="round" stroke-linejoin="round" stroke-miterlimit="10" d="
		M30.2,26.9c0.3-0.3,0.4-0.6,0.4-1.1c0-0.8-0.6-1.4-1.4-1.4s-1.4,0.6-1.4,1.3h-5.4c-0.1-0.7-0.7-1.3-1.4-1.3c-0.8,0-1.4,0.6-1.4,1.4
		c0,0.4,0.2,0.8,0.4,1.1c-0.3,0.3-0.4,0.6-0.4,1.1c0,0.8,0.6,1.4,1.4,1.4s1.4-0.6,1.4-1.3h5.4c0.1,0.7,0.7,1.3,1.4,1.3
		c0.8,0,1.4-0.6,1.4-1.4C30.6,27.5,30.4,27.1,30.2,26.9z"/>
	
		<path display="inline" fill="none" stroke="#9D9BA1" stroke-width="1.2" stroke-linecap="round" stroke-linejoin="round" stroke-miterlimit="10" d="
		M19.6,20.6c0-0.8,0.6-1.4,1.4-1.4c0.8,0,1.4,0.6,1.4,1.4"/>
	
		<path display="inline" fill="none" stroke="#9D9BA1" stroke-width="1.2" stroke-linecap="round" stroke-linejoin="round" stroke-miterlimit="10" d="
		M28.6,19.9c0-0.5,0.4-1,1-1s1,0.4,1,1"/>
	
		<path display="inline" fill="none" stroke="#9D9BA1" stroke-width="1.2" stroke-linecap="round" stroke-linejoin="round" stroke-miterlimit="10" d="
		M25.3,21.5c0-0.5,0.4-1,1-1c0.5,0,1,0.4,1,1"/>
	
		<path display="inline" fill="#FFFFFF" stroke="#9D9BA1" stroke-width="1.2" stroke-linecap="round" stroke-linejoin="round" stroke-miterlimit="10" d="
		M25,33.2c-5.2,0-10.1-1.2-13.8-3.2c-0.4-0.3-0.6-0.9-0.4-1.3c0.3-0.4,0.9-0.6,1.3-0.4c3.4,1.9,7.9,2.9,12.8,2.9s9.4-1.1,12.8-2.9
		c0.4-0.3,1.1-0.1,1.3,0.4c0.3,0.4,0.1,1.1-0.4,1.3C35.1,32.1,30.2,33.2,25,33.2z"/>
</g>
<g>
	<path fill="#FFFFFF" d="M12.5,33.4h24.9c0.4,0,0.7-0.3,0.7-0.7v-0.9c0-0.4-0.3-0.7-0.7-0.7H17.7c-0.4,0-0.7-0.3-0.7-0.7
		c0,0,0,0,0-0.1h-1.3c0,0.1,0,0.2,0,0.3c-0.1,0.2-0.2,0.3-0.4,0.4c-0.1,0-0.2,0-0.2,0c-0.3,0-0.5-0.2-0.6-0.4c0-0.1,0-0.2,0-0.3
		h-1.3c0,0,0,0.1,0,0.1c0,0.4-0.3,0.7-0.7,0.7c-0.4,0-0.7,0.3-0.7,0.7v0.9C11.8,33.1,12.1,33.4,12.5,33.4z"/>
	<path fill="#FFFFFF" d="M17.3,20.4c-0.3,0.3-0.5,0.7-0.6,1.1h16.5c-0.2-1.3-1.4-2.2-2.6-2.3c-0.5,0-1,0.1-1.4,0.3
		c-0.2,0.1-0.3,0.1-0.5,0.1c-0.5,0-0.9-0.3-1-0.8c-0.3-1.3-1.5-2.3-2.9-2.3c-0.8,0-1.6,0.4-2.2,1c0.6,0.3,1,0.8,1.2,1.5
		c0.1,0.3,0,0.7-0.4,0.9c-0.3,0.1-0.7,0-0.9-0.4c-0.3-0.6-0.8-1-1.4-1c-0.5,0-0.9,0.3-1.2,0.7c-0.2,0.3-0.5,0.5-0.9,0.5
		C18.4,19.7,17.8,20,17.3,20.4z"/>
	<path fill="#D4CAED" d="M14.5,30.1c0.1-0.2,0.2-0.3,0.4-0.4c0.1,0,0.2,0,0.2,0c0.3,0,0.5,0.2,0.6,0.4c0,0.1,0,0.1,0,0.2h1.3
		c0-0.3,0.3-0.6,0.6-0.6h18.9c-0.1-1.5-0.5-5-2.1-6.8H15.4c-2,2.2-2.2,6.8-2.2,7.4h1.3C14.5,30.2,14.5,30.2,14.5,30.1z M20.5,27.1
		c0-0.3,0.1-0.6,0.3-0.8c-0.2-0.2-0.3-0.5-0.3-0.8v-0.4c0-0.8,0.6-1.4,1.4-1.4h0.4c0.5,0,0.9,0.3,1.2,0.6h3.1
		c0.2-0.4,0.7-0.6,1.2-0.6H28c0.8,0,1.4,0.6,1.4,1.4v0.4c0,0.3-0.1,0.6-0.3,0.8c0.2,0.2,0.3,0.5,0.3,0.8v0.4c0,0.8-0.6,1.4-1.4,1.4
		h-0.4c-0.5,0-0.9-0.3-1.2-0.6h-3.1c-0.2,0.4-0.7,0.6-1.2,0.6h-0.4c-0.8,0-1.4-0.6-1.4-1.4V27.1z"/>
	<path fill="#FFFFFF" d="M21.9,27.8h0.4c0.1,0,0.2-0.1,0.2-0.2c0.1-0.3,0.3-0.4,0.6-0.4h3.8c0.3,0,0.5,0.2,0.6,0.4
		c0,0.1,0.1,0.2,0.2,0.2H28c0.1,0,0.2-0.1,0.2-0.2v-0.4c0-0.1-0.1-0.2-0.2-0.2c-0.3,0-0.6-0.3-0.6-0.6c0-0.3,0.3-0.6,0.6-0.6
		c0.1,0,0.2-0.1,0.2-0.2v-0.4c0-0.1-0.1-0.2-0.2-0.2h-0.4c-0.1,0-0.2,0.1-0.2,0.2c-0.1,0.3-0.3,0.4-0.6,0.4h-3.8
		c-0.3,0-0.5-0.2-0.6-0.4c0-0.1-0.1-0.2-0.2-0.2h-0.4c-0.1,0-0.2,0.1-0.2,0.2v0.4c0,0.1,0.1,0.2,0.2,0.2c0.3,0,0.6,0.3,0.6,0.6
		c0,0.3-0.3,0.6-0.6,0.6c-0.1,0-0.2,0.1-0.2,0.2v0.4C21.6,27.7,21.7,27.8,21.9,27.8z"/>
	<path fill="#9D9BA1" d="M38,29.8c-0.1-1.8-0.5-5.9-2.7-8c-0.1-0.1-0.3-0.2-0.5-0.2h-0.3c-0.1-0.9-0.5-1.7-1.1-2.3
		c-0.7-0.8-1.7-1.2-2.8-1.3c-0.6,0-1.2,0.1-1.8,0.3c-0.2-0.8-0.7-1.5-1.4-2.1c-0.8-0.6-1.7-1-2.7-1c-1.4,0-2.8,0.7-3.6,1.9
		c0,0,0,0,0,0c-0.9,0-1.7,0.5-2.2,1.2c-1,0-1.8,0.4-2.5,1.1c-0.5,0.6-0.9,1.3-1,2h-0.2c-0.2,0-0.3,0.1-0.5,0.2
		c-2.3,2.2-2.7,6.7-2.8,8.1c-0.8,0.3-1.4,1.1-1.4,1.9v0.9c0,1.1,0.9,2,2,2h24.9c1.1,0,2-0.9,2-2v-0.9C39.5,30.8,38.9,30,38,29.8z
		 M19.9,19.2c0.2-0.4,0.7-0.7,1.2-0.7c0.6,0,1.2,0.4,1.4,1c0.1,0.3,0.5,0.5,0.9,0.4c0.3-0.1,0.5-0.5,0.4-0.9
		c-0.3-0.7-0.7-1.2-1.2-1.5c0.6-0.6,1.4-1,2.2-1c1.4,0,2.6,1,2.9,2.3c0.1,0.5,0.5,0.8,1,0.8c0.2,0,0.3,0,0.5-0.1
		c0.4-0.2,0.9-0.3,1.4-0.3c1.3,0,2.4,1,2.6,2.3H16.7c0.1-0.4,0.3-0.8,0.6-1.1c0.4-0.5,1-0.7,1.7-0.7C19.4,19.7,19.7,19.5,19.9,19.2z
		 M11.8,31.7c0-0.4,0.3-0.7,0.7-0.7c0.4,0,0.6-0.3,0.7-0.7c0,0,0,0,0-0.1c0-0.6,0.2-5.2,2.2-7.4h19.1c1.6,1.8,2,5.3,2.1,6.8H17.7
		c-0.3,0-0.6,0.3-0.6,0.6c0,0,0,0,0,0.1c0,0.4,0.3,0.7,0.7,0.7h19.7c0.4,0,0.7,0.3,0.7,0.7v0.9c0,0.4-0.3,0.7-0.7,0.7H12.5
		c-0.4,0-0.7-0.3-0.7-0.7V31.7z"/>
	<path fill="#9D9BA1" d="M21.9,28.9h0.4c0.5,0,0.9-0.3,1.2-0.6h3.1c0.2,0.4,0.7,0.6,1.2,0.6H28c0.8,0,1.4-0.6,1.4-1.4v-0.4
		c0-0.3-0.1-0.6-0.3-0.8c0.2-0.2,0.3-0.5,0.3-0.8v-0.4c0-0.8-0.6-1.4-1.4-1.4h-0.4c-0.5,0-0.9,0.3-1.2,0.6h-3.1
		c-0.2-0.4-0.7-0.6-1.2-0.6h-0.4c-0.8,0-1.4,0.6-1.4,1.4v0.4c0,0.3,0.1,0.6,0.3,0.8c-0.2,0.2-0.3,0.5-0.3,0.8v0.4
		C20.5,28.3,21.1,28.9,21.9,28.9z M21.6,27.1c0-0.1,0.1-0.2,0.2-0.2c0.3,0,0.6-0.3,0.6-0.6c0-0.3-0.3-0.6-0.6-0.6
		c-0.1,0-0.2-0.1-0.2-0.2v-0.4c0-0.1,0.1-0.2,0.2-0.2h0.4c0.1,0,0.2,0.1,0.2,0.2c0.1,0.3,0.3,0.4,0.6,0.4h3.8c0.3,0,0.5-0.2,0.6-0.4
		c0-0.1,0.1-0.2,0.2-0.2H28c0.1,0,0.2,0.1,0.2,0.2v0.4c0,0.1-0.1,0.2-0.2,0.2c-0.3,0-0.6,0.3-0.6,0.6c0,0.3,0.3,0.6,0.6,0.6
		c0.1,0,0.2,0.1,0.2,0.2v0.4c0,0.1-0.1,0.2-0.2,0.2h-0.4c-0.1,0-0.2-0.1-0.2-0.2c-0.1-0.3-0.3-0.4-0.6-0.4h-3.8
		c-0.3,0-0.5,0.2-0.6,0.4c0,0.1-0.1,0.2-0.2,0.2h-0.4c-0.1,0-0.2-0.1-0.2-0.2V27.1z"/>
	<path fill="#9D9BA1" d="M15.1,29.7c-0.1,0-0.2,0-0.2,0c-0.2,0.1-0.3,0.2-0.4,0.4c0,0.1,0,0.1,0,0.2c0,0.1,0,0.2,0,0.3
		c0.1,0.2,0.3,0.4,0.6,0.4c0.1,0,0.2,0,0.2,0c0.2-0.1,0.3-0.2,0.4-0.4c0-0.1,0-0.2,0-0.3c0-0.1,0-0.1,0-0.2
		C15.6,29.9,15.4,29.7,15.1,29.7z"/>
</g>
</svg>
