<?xml version="1.0" encoding="utf-8"?>
<!-- Generator: Adobe Illustrator 18.1.1, SVG Export Plug-In . SVG Version: 6.00 Build 0)  -->
<svg version="1.1" id="Layer_1" xmlns="http://www.w3.org/2000/svg" xmlns:xlink="http://www.w3.org/1999/xlink" x="0px" y="0px"
	 viewBox="0 0 50 50" enable-background="new 0 0 50 50" xml:space="preserve">
<path fill="#FFFFFF" d="M30,8.5l4.3,4.7h9.5v28.1H6.2V13.1h9.5L20,8.5L30,8.5 M32,3.8H18l-4.3,4.7H6.2c-2.6,0-4.7,2.1-4.7,4.7v28.1
	c0,2.6,2.1,4.7,4.7,4.7h37.5c2.6,0,4.7-2.1,4.7-4.7V13.1c0-2.6-2.1-4.7-4.7-4.7h-7.4L32,3.8z M25,20.2c3.9,0,7,3.2,7,7s-3.2,7-7,7
	s-7-3.2-7-7S21.1,20.2,25,20.2 M25,15.5c-6.5,0-11.7,5.3-11.7,11.7S18.5,38.9,25,38.9s11.7-5.3,11.7-11.7S31.5,15.5,25,15.5z"/>
</svg>
