<?xml version="1.0" encoding="utf-8"?>
<!-- Generator: Adobe Illustrator 18.1.1, SVG Export Plug-In . SVG Version: 6.00 Build 0)  -->
<svg version="1.1" id="Layer_1" xmlns="http://www.w3.org/2000/svg" xmlns:xlink="http://www.w3.org/1999/xlink" x="0px" y="0px"
	 viewBox="0 0 50 50" enable-background="new 0 0 50 50" xml:space="preserve">
<g>
	<path fill="#7953d0" d="M46,12.7c-2.2,0-4,1.8-4,4c0,1.5,0.8,2.8,2.1,3.5L33.9,31.4l-8.1-19.6c1.8-0.4,3.1-2,3.1-3.9
		c0-2.2-1.8-4-4-4s-4,1.8-4,4c0,1.9,1.3,3.5,3.1,3.9l-8.1,19.6L5.9,20.2c1.2-0.7,2.1-2,2.1-3.5c0-2.2-1.8-4-4-4s-4,1.8-4,4
		s1.8,4,4,4c0.2,0,0.5,0,0.7,0L6.8,41h5.4h12.5h0.5h12.5h5.4l2.1-20.4c0.2,0,0.5,0.1,0.7,0.1c2.2,0,4-1.8,4-4S48.2,12.7,46,12.7z"/>
	<rect x="4" y="43" fill="#7953d0" width="41" height="3"/>
</g>
</svg>
