<?xml version="1.0" encoding="utf-8"?>
<!-- Generator: Adobe Illustrator 18.1.1, SVG Export Plug-In . SVG Version: 6.00 Build 0)  -->
<svg version="1.1" id="Layer_1" xmlns="http://www.w3.org/2000/svg" xmlns:xlink="http://www.w3.org/1999/xlink" x="0px" y="0px"
	 viewBox="0 0 512 512" enable-background="new 0 0 512 512" xml:space="preserve">
<path fill="#9d9ba1" d="M255.7,15.1c-132.7,0-240,107.3-240,240s107.3,240,240,240s240-107.3,240-240S388.4,15.1,255.7,15.1z
	 M358.9,358.3c-9.4,9.4-24.5,9.4-33.8,0l-69.4-69.4l-69.4,69.4c-9.4,9.4-24.5,9.4-33.8,0c-9.4-9.4-9.4-24.5,0-33.8l69.4-69.4
	l-69.4-69.4c-9.4-9.4-9.4-24.5,0-33.8c9.4-9.4,24.5-9.4,33.8,0l69.4,69.4l69.4-69.4c9.4-9.4,24.5-9.4,33.8,0
	c9.4,9.4,9.4,24.5,0,33.8l-69.4,69.4l69.4,69.4C368,333.6,368,348.9,358.9,358.3z"/>
</svg>
