<?xml version="1.0" encoding="utf-8"?>
<!-- Generator: Adobe Illustrator 18.1.1, SVG Export Plug-In . SVG Version: 6.00 Build 0)  -->
<svg version="1.1" id="Layer_1" xmlns="http://www.w3.org/2000/svg" xmlns:xlink="http://www.w3.org/1999/xlink" x="0px" y="0px"
	 viewBox="0 0 32 32" enable-background="new 0 0 32 32" xml:space="preserve">
<g>
	<path fill="#7953d0" d="M30.3,9.2l-1.2-6.9c-0.2-1-1.4-1.3-2.1-0.6l-1.8,2.1C22.7,1.9,19.8,1,16.7,1C12.4,1,8.5,2.7,5.6,5.9
		c-5.2,5.7-5.2,14.5,0,20.2c2.9,3.2,6.9,4.9,11.1,4.9c3.5,0,6.8-1.2,9.5-3.4c0.6-0.5,0.7-1.4,0.1-2l-0.1-0.1
		c-0.5-0.5-1.3-0.5-1.8-0.1c-2.2,1.8-4.9,2.8-7.8,2.8c-3.3,0-6.4-1.3-8.7-3.6C3.2,19.9,3.2,12.1,8,7.3c2.3-2.3,5.4-3.6,8.7-3.6
		c2.4,0,4.8,0.7,6.7,2l-1.6,1.9c-0.6,0.7-0.2,1.8,0.7,1.9l6.5,1C29.7,10.7,30.4,10,30.3,9.2z"/>
</g>
</svg>
