<?xml version="1.0" encoding="utf-8"?>
<!-- Generator: Adobe Illustrator 18.1.1, SVG Export Plug-In . SVG Version: 6.00 Build 0)  -->
<svg version="1.1" id="Layer_1" xmlns="http://www.w3.org/2000/svg" xmlns:xlink="http://www.w3.org/1999/xlink" x="0px" y="0px"
	 viewBox="0 0 50 50" enable-background="new 0 0 50 50" xml:space="preserve">
<g>
	<path fill="#747474" d="M22,3c-1.1,0-2,0.9-2,2.1v25.7c-2-0.8-3-1.3-4.7-1.3c-4.9,0-8.8,3.9-8.8,8.8s3.9,8.8,8.8,8.8
		c4.8,0,8.8-3.9,8.8-8.8c0,0,0,0,0,0V5.1C24,3.9,23.1,3,22,3z M15.2,42.9c-2.6,0-4.7-2.1-4.7-4.7c0-2.6,2.1-4.7,4.7-4.7
		s4.7,2.1,4.7,4.7C19.8,40.8,17.7,42.9,15.2,42.9z"/>
	<path fill="#747474" d="M6.1,12l23.4,23.4c0,0,0,0,0,0c3.4,3.4,9,3.4,12.4,0c3.4-3.4,3.4-9,0-12.4c-3.4-3.4-9-3.4-12.4,0
		c-1.2,1.2-2,2.7-2.3,4.2L9,9.1c-0.8-0.8-2.1-0.8-2.9,0S5.3,11.2,6.1,12z M32.4,32.5c-1.8-1.8-1.8-4.8,0-6.6c1.8-1.8,4.8-1.8,6.6,0
		c1.8,1.8,1.8,4.8,0,6.6C37.2,34.3,34.3,34.3,32.4,32.5z"/>
</g>
</svg>
