<?xml version="1.0" encoding="utf-8"?>
<!-- Generator: Adobe Illustrator 18.1.1, SVG Export Plug-In . SVG Version: 6.00 Build 0)  -->
<svg version="1.1" id="Layer_1" xmlns="http://www.w3.org/2000/svg" xmlns:xlink="http://www.w3.org/1999/xlink" x="0px" y="0px"
	 viewBox="0 0 512 512" enable-background="new 0 0 512 512" xml:space="preserve">
<g>
	<path fill="#E0E0E0" d="M423.3,130.4c-10.4-10.4-27.2-10.4-37.6,0L202.2,313.9l-76.8-76.8c-10.4-10.4-27.2-10.4-37.6,0
		c-10.4,10.4-10.4,27.2,0,37.6l95.7,95.7c10.4,10.4,27.2,10.4,37.6,0L423.3,168C433.7,157.6,433.7,140.8,423.3,130.4z"/>
	<path fill="#9A9A9A" d="M255.5,16c-132,0-240,108-240,240s108,240,240,240s240-108,240-240S387.5,16,255.5,16z M183.5,370.4
		l-95.7-95.7c-10.4-10.4-10.4-27.2,0-37.6c10.4-10.4,27.2-10.4,37.6,0l76.8,76.8l183.5-183.5c10.4-10.4,27.2-10.4,37.6,0
		c10.4,10.4,10.4,27.2,0,37.6L221.1,370.4C210.7,380.8,193.9,380.8,183.5,370.4z"/>
</g>
</svg>
