<?xml version="1.0" encoding="utf-8"?>
<!-- Generator: Adobe Illustrator 18.1.1, SVG Export Plug-In . SVG Version: 6.00 Build 0)  -->
<svg version="1.1" id="Layer_1" xmlns="http://www.w3.org/2000/svg" xmlns:xlink="http://www.w3.org/1999/xlink" x="0px" y="0px"
	 viewBox="0 0 512 512" enable-background="new 0 0 512 512" xml:space="preserve">
<g>
	<path fill="#ffffff" d="M423.7,130.4c-10.4-10.4-27.2-10.4-37.6,0L202.7,313.9l-76.8-76.8c-10.4-10.4-27.2-10.4-37.6,0
		c-10.4,10.4-10.4,27.2,0,37.6l95.7,95.7c10.4,10.4,27.2,10.4,37.6,0L423.7,168C434.1,157.6,434.1,140.8,423.7,130.4z"/>
	<path fill="#7953d0" d="M256,16C124,16,16,124,16,256s108,240,240,240s240-108,240-240S388,16,256,16z M184,370.4l-95.7-95.7
		c-10.4-10.4-10.4-27.2,0-37.6c10.4-10.4,27.2-10.4,37.6,0l76.8,76.8l183.5-183.5c10.4-10.4,27.2-10.4,37.6,0
		c10.4,10.4,10.4,27.2,0,37.6L221.6,370.4C211.2,380.8,194.4,380.8,184,370.4z"/>
</g>
</svg>
