<?xml version="1.0" encoding="utf-8"?>
<!-- Generator: Adobe Illustrator 18.1.1, SVG Export Plug-In . SVG Version: 6.00 Build 0)  -->
<svg version="1.1" id="Layer_1" xmlns="http://www.w3.org/2000/svg" xmlns:xlink="http://www.w3.org/1999/xlink" x="0px" y="0px"
	 viewBox="0 0 56 56" enable-background="new 0 0 56 56" xml:space="preserve">
<rect fill="#F3F1F6" width="56" height="56"/>
<g>
	
		<path fill="#D4CAED" stroke="#9D9BA1" stroke-width="1.2" stroke-linecap="round" stroke-linejoin="round" stroke-miterlimit="10" d="
		M17.2,36.5L14.5,40c0,0,1.1,1.6,2.5,1.4c1.6-0.2,1.9-1.2,1.9-1.2s0.2,1.6,1.7,1.8c1.5,0.2,2.5-1.3,2.5-1.3s0.9,2,2.8,1.9
		c1.3-0.1,1.9-1.5,1.9-1.5s0.7,1.8,1.9,1.8c1,0,1.9-2,1.9-2s1,2.1,2.8,1.9c1.6-0.2,2-2.4,2-2.4s1.5,1.3,3.1,1
		c1.5-0.3,2.2-2.1,2.2-2.1L37,37L17.2,36.5z"/>
	
		<path fill="#FFFFFF" stroke="#9D9BA1" stroke-width="1.2" stroke-linecap="round" stroke-linejoin="round" stroke-miterlimit="10" d="
		M17.7,16.8l6.1-3.1c0,0,0.9,3.3,3.5,3.2c2.6-0.1,3.9-3.5,3.9-3.5l5.3,2.4c0,0,2.8,20.8,2.7,22c-0.2,1.2-7.6,2.3-10.9,2.3
		s-11.4-0.9-12-2.4C15.6,36,17.7,16.8,17.7,16.8z"/>
	
		<polygon fill="#FFFFFF" stroke="#9D9BA1" stroke-width="1.2" stroke-linecap="round" stroke-linejoin="round" stroke-miterlimit="10" points="
		26,17 26,23.7 28.6,23.6 28.2,17 	"/>
	
		<path fill="#D4CAED" stroke="#9D9BA1" stroke-width="1.2" stroke-linecap="round" stroke-linejoin="round" stroke-miterlimit="10" d="
		M31.1,13c0,0-0.6,3.3-3.7,3.3s-3.9-2.8-3.9-2.8l-2.4,0.9c0,0,0.7,4.9,2.5,5.1c1.5,0.2,3.2-1.7,3.2-1.7s1.9,3.1,4.2,1.9
		c2.3-1.2,1.9-6,1.9-6L31.1,13z"/>
</g>
</svg>
