<?xml version="1.0" encoding="utf-8"?>
<!-- Generator: Adobe Illustrator 18.1.1, SVG Export Plug-In . SVG Version: 6.00 Build 0)  -->
<svg version="1.1" id="Layer_1" xmlns="http://www.w3.org/2000/svg" xmlns:xlink="http://www.w3.org/1999/xlink" x="0px" y="0px"
	 viewBox="0 0 48 48" enable-background="new 0 0 48 48" xml:space="preserve">
<path fill="#A3A3A3" d="M-33-112c-27.6,1.8-44,8.7-59,24.7c-12.5,13.4-18.3,29.2-20,54.6c-1.2,17.8-1.2,95.6,0,113.8
	c0.6,8.1,1.9,18.2,3,22.5c5.3,21.1,18.9,38.3,37.5,47.5C-54.2,159.6-41,161,24,161c64.7,0,77.8-1.4,95.9-10.1
	c7.1-3.5,10.2-5.7,17.7-13.3c15.7-15.8,20.6-29.3,22.5-61.6c1.4-22.7,0.6-110.1-1.1-121c-1.6-10.7-6.7-25.2-11.2-32.3
	c-11.7-18.3-30.7-30-54.8-33.7C83.6-112.4-13.9-113.2-33-112z M93.3-82.7c10.3,2.4,17.1,6,23.7,12.3c7,6.7,11.1,14.2,13.7,25.2
	c1.6,7,1.8,13.4,1.8,69.7c0,67.6-0.1,68.3-6,81.3c-3.3,7.2-12.4,16.5-19.7,20.1C94,132.3,92,132.5,24,132.5s-70-0.2-82.8-6.6
	c-7.3-3.6-16.4-12.9-19.7-20.1c-6-13-6-13.7-6-81.3c0-68.6,0.1-70.5,6.6-83.3c3.2-6.6,12.2-15.8,18.5-19c5.8-3,14.8-5.4,23.4-6.2
	c4.1-0.5,33.4-0.7,65-0.6C77.9-84.3,87.5-84.1,93.3-82.7z"/>
<g>
	<path d="M14.4,1.1C9.8,1.4,7,2.6,4.5,5.3c-2.1,2.3-3.1,4.9-3.4,9.2c-0.2,3-0.2,16.1,0,19.1c0.1,1.4,0.3,3.1,0.5,3.8
		c0.9,3.5,3.2,6.4,6.3,8c2.9,1.4,5.1,1.7,16,1.7c10.9,0,13.1-0.2,16.1-1.7c1.2-0.6,1.7-1,3-2.2c2.6-2.7,3.5-4.9,3.8-10.4
		c0.2-3.8,0.1-18.5-0.2-20.3c-0.3-1.8-1.1-4.2-1.9-5.4c-2-3.1-5.2-5-9.2-5.7C34,1,17.6,0.9,14.4,1.1z M35.7,6c1.7,0.4,2.9,1,4,2.1
		c1.2,1.1,1.9,2.4,2.3,4.2c0.3,1.2,0.3,2.3,0.3,11.7c0,11.4,0,11.5-1,13.7c-0.6,1.2-2.1,2.8-3.3,3.4c-2.2,1.1-2.5,1.1-13.9,1.1
		s-11.8,0-13.9-1.1c-1.2-0.6-2.8-2.2-3.3-3.4c-1-2.2-1-2.3-1-13.7c0-11.5,0-11.8,1.1-14C7.4,8.9,8.9,7.4,10,6.9c1-0.5,2.5-0.9,3.9-1
		c0.7-0.1,5.6-0.1,10.9-0.1C33.1,5.8,34.7,5.8,35.7,6z"/>
	<path d="M35,9.3c-0.7,0.4-1.6,1.6-1.7,2.5c-0.2,1.6,1.3,3.1,2.9,2.9c0.8-0.1,1.9-0.8,2.4-1.5c0.5-0.8,0.5-2.2-0.1-3
		C37.8,9.1,36.2,8.7,35,9.3z"/>
	<path d="M22,12.3c-2.6,0.4-5.5,2.2-7.1,4.2C11,21.4,11.4,28,15.7,32.3c4.3,4.3,11.2,4.6,15.9,0.7c1.9-1.6,3.4-4.1,4-6.5
		c0.4-1.7,0.2-4.5-0.3-6.1c-1.7-5.1-6.2-8.3-11.4-8.2C23.1,12.2,22.2,12.3,22,12.3z M27.2,17.3c1.5,0.8,2.8,2.1,3.5,3.6
		c0.5,1.1,0.5,1.2,0.5,3.1s0,2-0.5,3.1c-0.7,1.6-2,2.8-3.6,3.6c-1.2,0.6-1.3,0.6-3.2,0.6s-2,0-3.2-0.6c-1.6-0.8-2.8-2.1-3.6-3.6
		c-0.5-1.1-0.5-1.2-0.5-3.1s0-2,0.5-3.1c0.9-1.9,2.5-3.3,4.5-4.1c0.6-0.2,1.2-0.3,2.5-0.3C25.8,16.7,26.1,16.7,27.2,17.3z"/>
</g>
</svg>
