<?xml version="1.0" encoding="utf-8"?>
<!-- Generator: Adobe Illustrator 18.1.1, SVG Export Plug-In . SVG Version: 6.00 Build 0)  -->
<svg version="1.1" id="Layer_1" xmlns="http://www.w3.org/2000/svg" xmlns:xlink="http://www.w3.org/1999/xlink" x="0px" y="0px"
	 viewBox="0 0 348 100" enable-background="new 0 0 348 100" xml:space="preserve">
<g>
	<path fill="#FF4D7E" d="M317.3,12.5c0,0.1,0,0.1,0,0.1c0,0.2,0.1,0.4,0.1,0.6c0.3,1.7,1.3,3.2,2.8,4.2c1.1,0.7,2.5,1.1,3.9,1.1
		c0.6,0,1.2-0.1,1.7-0.2c3.4-0.9,5.4-4.2,4.8-7.9c-0.4-2.5-1.5-4.9-3.4-7.2c-1.1-1.3-2.7-2.1-4.6-2.2c-2-0.1-3.9,0.6-5.2,2
		c-2.4,2.4-2.6,6-0.7,8.7C317,11.9,317.1,12.2,317.3,12.5z"/>
	<path fill="#7953D0" d="M88.3,71.1L88.3,71.1c-1.1-0.3-2.3-0.3-3.5,0c-0.9,0.2-1.6,0.6-2.1,0.8l-0.3,0.2c-0.7,0.3-1.3,0.6-2,0.9
		l-0.5,0.2c-2.2,1-4.4,2-6.6,2.8c-0.6,0.2-1.5,0.5-2.3,0.7c0,0,0-0.1,0-0.1c-0.4-1.3-0.4-2.9-0.5-4.6l0-1.2
		c-0.2-4.5-0.3-9.1-0.2-13.6c0-0.4,0-1.4,0-2.4c5.3-0.8,10.5-2,15.5-3.6c2.2-0.7,3.7-2.4,4.2-4.6c0.5-2.3-0.3-4.7-1.9-6.2
		c-1.6-1.5-3.8-1.9-5.9-1.2c-3.7,1.2-7.5,2.1-11.3,2.8c0.2-3.3,0.5-6.6,0.8-10l11.6-1.8c1.6-0.2,3-1.1,3.9-2.3
		c0.9-1.2,1.3-2.8,1-4.4c-0.3-1.8-1.2-3.4-2.7-4.4c-1.4-1-3-1.4-4.7-1.1l-23.4,3.6c-2.2,0.3-3.8,1.6-4.6,3.6c-0.8,2-0.4,4.5,1.1,6.4
		c1.2,1.5,3.1,2.4,5,2.4c0,0,0.1,0,0.1,0c-0.3,3.3-0.6,6.4-0.7,9.5c-2.7,0.8-4.6,3.3-4.4,6.3c0.1,2.6,1.7,4.7,4,5.6
		c0,1.5-0.1,3.1-0.2,4.8c-0.2,4.1-0.4,8.3-0.1,12.6c0.2,2.4,0.4,4.8,0.8,7.2c0.2,1.5,0.5,3,1.1,4.6c0.5,1.2,1.7,3.4,3.9,4.6
		c1.3,0.7,2.9,1.1,4.7,1.1c0.4,0,0.9,0,1.4-0.1c3.1-0.3,5.8-1.4,8.2-2.3c1.8-0.7,3.6-1.5,5.5-2.4l0.3-0.1c1.1-0.5,2.2-1,3.3-1.5
		c0.6-0.2,1.2-0.5,1.8-0.7c1.7-0.6,3-1.8,3.7-3.3c0.7-1.6,0.8-3.5,0.1-5.2C91.4,73,90.1,71.7,88.3,71.1z"/>
	<path fill="#7953D0" d="M33.4,19.7c-3.4-2.3-7.3-3.3-10.9-3.8c-0.1-1.2-0.6-2.3-1.4-3.2c-1-1.1-2.4-1.9-3.9-2
		c-2.4-0.5-4.7,0.4-6.1,2.3c-0.2,0.3-0.5,0.7-0.6,1c-0.5-0.1-1-0.3-1.5-0.5c-2.1-0.8-4.2-0.4-5.8,1c-1.7,1.4-2.5,3.8-2.1,6.1
		c0.4,2.2,1.9,4.1,4.1,4.8c1.3,0.5,2.7,0.9,4.2,1.2C8.5,40.3,8.6,51.9,9.4,63.2c0.2,3.2,0,6.5-0.2,10.2c-0.1,2.3-0.3,4.7-0.3,7
		c-0.1,0-0.3,0-0.4,0.1c-2.3,0.3-4.2,1.8-5.1,4c-0.9,2.2-0.6,4.7,0.7,6.4c1.2,1.6,3.3,2.4,5.4,2.1l1-0.1c0.3,1,0.7,1.9,1.1,2.8
		c1,2.2,3,3.4,5.3,3.4c0.9,0,1.8-0.2,2.7-0.6c2.8-1.3,4.7-4.8,3.2-8.3c4-1.5,7.3-3.8,10-6.8c7.7-8.7,11.7-21.7,10.9-35.7
		C43,33,39.6,23.9,33.4,19.7z M21.5,57.8l-0.2-2.3c-0.7-9-0.3-18.1,0.3-26.6c6.2,1.7,8,6.3,9.3,15.1c1,7.1,1.1,17.5-4.3,26.8
		c-1.3,2.2-2.7,3.9-4.4,5.2c0-0.3,0-0.7,0.1-1C22.5,69.1,22,63.4,21.5,57.8z"/>
	<path fill="#7953D0" d="M288.1,67.5c-0.4-1.9-0.8-3.8-1.4-5.7c-1.1-4.1-2.4-8.4-3.9-12.9c0.6-0.4,1.1-0.7,1.6-1.1
		c5.3-4.1,7.8-10.5,6.3-16.2c-1.8-6.8-8-10.5-13.3-11.7c-1.4-0.3-2.9-0.5-4.3-0.7c-1.9-0.2-3.6-0.2-5.2-0.1
		c-1.8,0.1-3.6,0.4-5.5,1.4c-1.1,0.6-2.1,1.4-2.9,2.4c-1,1.2-1.5,2.4-1.9,3.4c-0.5,1.3-0.8,2.6-0.9,4c-0.3,2.5,0.1,4.9,0.4,7.2
		l0.3,1.9c0.1,0.8,0.2,1.5,0.3,2.3c1,14.2,0,29-3.1,43.9c-0.4,1.8,0,3.6,1.1,5c1,1.3,2.4,2.2,4,2.5c0.4,0.1,0.9,0.1,1.3,0.1
		c2.9,0,5.3-2,5.8-4.8c2.1-10.1,3.3-19.4,3.6-28.5c0-1.1-0.1-3.4-0.4-7.7c0.2,0,0.4,0,0.5,0c1.8,5.5,3.4,10.6,4.7,15.5
		c0.4,1.4,0.7,2.8,1,4.2c1,4.4,2.1,9,4.5,13.3c1.1,2,2.9,3.1,5.2,3.2c0,0,0,0,0,0c2.3,0,4.5-1.2,5.7-3.1c1.2-1.9,1.2-4.2,0.1-6.2
		C289.9,75.7,289,71.5,288.1,67.5z M278.5,35.5c-0.3,1.7-1.7,4-9.1,4.2c-0.1-3.6,0-6.5,0.2-8.1c2.2,0.1,5.4,0.6,5.9,0.8
		C275.7,32.4,278.9,33.5,278.5,35.5z"/>
	<path fill="#7953D0" d="M183.6,58.7L183.6,58.7c-2.6,0.1-5,0.6-7.4,1.1c-1.1,0.2-2.1,0.4-3.2,0.6c-3.1,0.5-5.2,3.3-4.9,6.5
		c0.3,3.3,2.9,5.7,6.1,5.9c1.1,0,2.1-0.1,3-0.3l0.2-0.1c0.7,0,1.3-0.2,2-0.3l0.4-0.1c0.2,0,0.8-0.1,1.5-0.1c-0.2,0.3-0.5,0.7-0.8,1
		c-1,1.1-2,1.9-2.9,2.3c-0.5,0.2-3.3,0.3-4.1,0.3c-0.7,0-1.4-0.3-2.2-0.7l-0.4-0.2c-5-2.9-4.9-6.4-4.7-12.8l0-1
		c0.2-9.3,0.7-31,12.2-31c2.2,0,4.2-1.1,5.3-3c1.2-2,1.2-4.5,0.1-6.5c-1.1-1.9-3-3.1-5.3-3.1c-6.3-0.1-11.7,2.4-16,7.5
		c-9.6,11.4-10.7,33.9-8.4,46.3c1.6,8.8,8.1,15.2,17.2,17c3.4,0.7,6.6,0.4,9.5-1c0.1,0.4,0.1,0.9,0.2,1.4c0.7,4.8,1,6.1,1.9,6.6
		c1,0.6,2.1,0.9,3.2,0.9c0,0,0,0,0,0c1.1,0,2.3-0.3,3.2-0.9c1.9-1.1,3-3,3-5.3l0-18.2c0-0.4,0-0.9,0.1-1.4c0.1-2.2,0.3-5.2-1.2-7.7
		C190.4,61,188.2,58.4,183.6,58.7z"/>
	<path fill="#7953D0" d="M238.8,26.7L238.8,26.7c-0.4-2.2-1.7-3.9-3.7-4.6c-2.1-0.8-4.6-0.3-6.3,1.2c-1.8,1.5-2.6,3.7-2.2,6
		c1.9,10.8,2.1,22.6,0.8,35c-0.3,2.5-0.6,5.1-1.1,7.6l-0.1,0.6c-0.2,1.4-0.5,3-1.1,3.6c-0.1,0.1-0.2,0.2-0.3,0.4
		c-0.2-0.1-0.5-0.2-1-0.4c-0.9-0.4-1.2-1.2-1.7-4.3c-0.7-4.8-0.6-9.5-0.4-14.7c0.1-2.8,0.2-5.7,0.1-8.7c-0.2-5.4-0.9-11.4-2.3-18.3
		l-0.2-0.9c-0.3-1.6-0.6-3.2-1.1-4.7c-0.5-2.2-2.1-3.8-4.2-4.4c-2.2-0.6-4.6,0-6.3,1.6c-1.6,1.6-2.2,3.7-1.7,6
		c2.6,10.2,2.9,20.3,3.2,31c0.1,4.5,0.3,9.1,0.6,13.7c0.7,10.4,5.5,16,14.3,16.7c0.4,0,0.8,0,1.2,0c5.1,0,9.2-2.5,11.2-6.8
		c1.7-3.7,2.1-7.8,2.4-11.4c0.1-0.9,0.2-1.7,0.3-2.6c1.7-14.4,1.8-26.2,0.4-37.1C239.3,29.7,239,28.2,238.8,26.7z"/>
	<polygon fill="#FF4D7E" points="338.5,28.9 338.5,28.9 338.5,28.9 	"/>
	<path fill="#FF4D7E" d="M338.5,28.9L338.5,28.9c-1.2-2.1-3.5-3.3-5.8-3.2c-2.6,0.2-4.9,2.2-5.6,5c-0.1,0.6-0.2,1.2-0.2,1.9
		c0,1,0.2,2,0.3,2.9c1.6,9.6,1.7,20.4,0.3,34c-0.3,3.1-0.7,6.4-1.7,9.4c-0.5,1.5-0.9,1.9-0.9,1.9c-0.1,0-0.3,0-0.6-0.2
		c-1.1-0.7-1.8-2.1-2.2-4.6c-0.6-3.8-0.5-7.7-0.3-11.8c0.1-1.8,0.1-3.7,0.1-5.5c0-6.7-0.4-12.8-1.3-18.8c-0.4-2.6-0.9-5.2-1.4-7.8
		c-0.3-1.2-0.5-2.4-0.8-3.6c-0.5-2.2-2.1-3.8-4.2-4.4c-2.2-0.6-4.6,0-6.3,1.6c-1.6,1.6-2.2,3.7-1.7,5.9c2.5,10.2,2.9,21,3.2,31.4
		l0.2,5c0.1,3.1,0.2,6.4,0.5,9.6c0.4,3.9,1.4,7,3.1,9.4c2.7,3.8,7.3,6.2,12.1,6.2c2,0,4.1-0.4,5.8-1.3c6-2.9,6.9-9.4,7.4-12.9
		c2.7-18.7,3-33,1.1-46.2C339.6,31.7,339.3,30.2,338.5,28.9z"/>
	<path fill="#7953D0" d="M133.9,20L133.9,20c-1.7,0.1-3.2,0.7-4.3,1.9c-1.1,1.2-1.7,2.7-1.6,4.4c0.3,8.2,0.2,16.4-0.2,24.6
		c-0.5-1.3-1-2.6-1.5-4c-0.5-1.3-1-2.9-1.6-4.7c-0.6-1.8-1.2-3.8-1.9-5.8c0-2.5,0-4.7,0-6.9c-0.1-2.6-1.7-4.8-4.2-5.7
		c-1.1-0.4-2.2-0.5-3.3-0.3c0,0,0,0-0.1,0c-1.4-1.1-3-1.6-4.7-1.4c-1.7,0.2-3.4,1.1-4.5,2.5c-1,1.3-1.5,2.8-1.3,4.3
		c0.2,1.5,1,2.9,2.2,3.8c0.1,0.2,0.5,0.8,1.2,2.8c0.3,0.7,0.5,1.3,0.7,1.8c0.4,0.9,0.8,1.9,1.2,2.8c-0.3,7.6-1.2,15.5-2,23.1
		c-0.7,6.6-1.4,13.3-1.8,20c-0.1,2.2,0.8,4.2,2.6,5.4c1.9,1.2,4.4,1.4,6.5,0.3c2-1,3.3-3,3.4-5.2c0.3-5.3,0.8-10.7,1.4-16.1
		c1.6,5.2,3.1,11.2,3.6,17.2c0.3,3.5,3.4,5.8,6.3,5.9l0.3,0c2.9,0,5.2-2,5.8-4.9c3.5-19.9,4.9-40,4.2-59.9
		C140.4,22.5,137.6,20,133.9,20z"/>
	<path fill="#FF4D7E" d="M347,12.8c-0.4-3.8-3.4-6.6-6.9-6.4c-1.9,0.1-3.8,1-5,2.4c-1.2,1.3-1.7,3-1.5,4.7c0,0.2,0,0.5,0,0.7
		l-0.1,0.4c-1.4,3.3-0.3,7,2.7,8.7c1,0.6,2.2,0.9,3.4,0.9c0.7,0,1.4-0.1,2.1-0.3c1.8-0.5,3.1-1.7,3.9-3.3
		C346.8,18,347.3,15.4,347,12.8z"/>
	<path fill="#FF4D7E" d="M312,19.1c2.6-2.6,2.6-6.7,0.1-9.5c-1.8-1.9-4.1-3.4-6.8-4.2c-1.7-0.5-3.7-0.3-5.3,0.7
		c-1.6,0.9-2.7,2.5-3.1,4.2c-0.8,3.5,1.2,7,4.4,8c0.2,0.1,0.4,0.2,0.5,0.2l0.2,0.1c0.1,0.1,0.2,0.2,0.3,0.3c1.2,1.3,2.9,2,4.8,2.1
		C309,21.1,310.8,20.4,312,19.1z"/>
</g>
</svg>
