<?xml version="1.0" encoding="utf-8"?>
<!-- Generator: Adobe Illustrator 18.1.1, SVG Export Plug-In . SVG Version: 6.00 Build 0)  -->
<svg version="1.1" id="Layer_1" xmlns="http://www.w3.org/2000/svg" xmlns:xlink="http://www.w3.org/1999/xlink" x="0px" y="0px"
	 viewBox="0 0 88 100" enable-background="new 0 0 88 100" xml:space="preserve">
<g>
	<g>
		<path fill="#7953D0" d="M28.6,48.7c0-0.8-0.7-1.5-1.5-1.5c-0.8,0-1.5,0.6-1.5,1.5c0,0.2,0,0.3,0,0.5c0,0.8,0.7,1.5,1.5,1.5
			c0.8,0,1.5-0.6,1.5-1.5C28.6,49,28.6,48.8,28.6,48.7z"/>
		<path fill="#7953D0" d="M44.3,47.1c-0.5-0.5-1.5-0.6-2.1,0c-0.5,0.6-0.6,1.5,0,2.1c0.2,0.2,0.3,0.3,0.5,0.5c0.5,0.5,1.5,0.6,2.1,0
			c0.5-0.6,0.6-1.5,0-2.1C44.6,47.5,44.4,47.3,44.3,47.1z"/>
		<path fill="#7953D0" d="M86.4,47.9c-0.4-2.3-1.1-4.6-1.9-6.6c-1.6-3.8-4-7.5-7.1-10.6c0.5-3.3-0.5-6.5-1.3-8.7
			c-1.4-3.7-2.2-6.8-2.4-9.7c-0.3-3.6-0.8-8-4.2-10.1C65.9-0.1,61.7,1,57.6,5.2c-3.2,3.2-6.1,7-8.8,11.3c-3.7-0.8-7.4-1.2-11-1.4
			c-2.1-0.1-4.2,0.1-6.5,0.3c-0.2,0-0.5,0-0.6,0c-0.1,0-0.3-0.1-0.5-0.2c-2.1-0.9-4.1-2.2-5.9-3.4c-2.1-1.3-4.2-2.7-6.6-3.7
			C11.7,5.6,6.9,6.6,5.1,10.7C3.3,14.5,3.6,19,3.9,23l0,0.2c0,0.5,0.1,1.1,0.1,1.6c0.1,1.5,0.2,3,0.3,4.6c0.2,3.3,0.4,6.6,0.5,10
			c-3.1,7.2-4.3,14.8-3.5,22.1c1,9,5.3,16.2,12,20.5c4,2.5,8.7,4.2,14.4,5.2c5.2,0.9,10.6,1.4,16.1,1.5c0.4,0,0.8,0,1.1,0
			c12.6,0,34.5-2.7,40.1-20.5C87.1,61.3,87.6,54.3,86.4,47.9z M56.2,15.6l0.5-0.7c0.9-1.3,1.9-2.5,2.9-3.6c4.3-4.8,6.1-4.8,6.4-4.7
			c0.4,0.1,0.7,0.5,1,1.4c0.6,1.7,0.8,3.5,1.1,5.4c0.2,1.9,0.5,3.9,1.1,5.9c0.2,0.7,0.5,1.4,0.7,2.2l0.1,0.3c0.3,1,0.7,2,1,3
			c0,0.1,0.1,0.3,0.2,0.5c0,0.1,0,0.1,0.1,0.2c-0.2-0.1-0.3-0.2-0.5-0.4c-1.1-0.7-2.2-1.4-3.4-2.1c-0.1-0.9-0.9-3.5-1.1-4.5
			c-0.2-1.2-0.4-2.4-0.6-3.6c-0.1-0.8-0.5-1.4-1.1-1.8c-0.6-0.4-1.4-0.5-2.2-0.3C61,13.1,60.3,15,59,16.1c-0.6,0.5-1.8,2.1-2,2.4
			c-0.1,0-0.2-0.1-0.4-0.1c-0.6-0.2-1.3-0.4-1.9-0.6l-0.1,0C55.1,17.1,55.7,16.3,56.2,15.6z M9.6,16.1L9.6,16.1
			c0.1-0.8,0.2-1.8,0.5-2.7c0.2-0.4,0.5-1.3,3-0.9c1.6,0.3,3.2,1,5.4,2.2c1.1,0.6,2.1,1.3,3.1,1.9c0.6,0.4,1.1,0.7,1.7,1.1
			c-0.1,0.1-0.1,0.1-0.2,0.1c-0.8,0.4-1.4,0.8-2,1.2c-0.7-0.2-1.3-0.3-2-0.6c-0.8-0.3-1.5-0.6-2.3-1c-0.8-0.4-1.6-0.8-2.5-0.6
			c-0.6,0.1-1.3,0.5-1.6,1c-0.4,0.6-0.4,1.3-0.3,1.9c0.1,0.8,0.2,1.6,0.3,2.5c0,0.5,0.1,1,0.1,1.5c0,0.7,0,1.5,0,2.2
			c0,0.2,0,0.5,0,0.8c-0.4,0.5-0.9,1-1.3,1.6c-0.5,0.6-1,1.3-1.5,1.9c0-0.1,0-0.2,0-0.3C9.5,25.4,9.2,20.6,9.6,16.1z M80.8,60
			c-0.5,4.6-1.5,8-3.3,10.8c-1.8,2.8-4.5,5.2-8.2,7.1c-6.2,3.2-14.2,4.9-23.7,5C23.4,83.1,11,77.3,7.7,65.2
			c-2-7.4-1.2-15.9,2.3-23.8c0.2-0.2,0.3-0.5,0.3-0.8c2-4.2,4.7-8.3,7.9-11.6l1-1c0.7-0.7,1.3-1.3,2-1.9c1-0.8,2-1.6,3-2.4
			c3.6-2.3,7.7-2.9,10.6-3c8.6-0.4,17.7,2.3,23.8,4.6c7.9,3,14.1,7.5,18,13.2C80.4,44.1,81.7,50.8,80.8,60z"/>
		<path fill="#7953D0" d="M41.9,60.7c-1.7-0.1-3.5-0.2-5.2-0.3c0-0.8-0.1-1.5-0.2-2.3c0.1,0,0.1,0,0.2,0c1.5-0.4,2.8-1.9,2.6-3.5
			c-0.1-1.1-1.1-1.8-2.2-1.3c-1.3,0.6-2.8,0.9-4.2,0.8c-0.3-0.1-0.6-0.1-0.8,0c-0.6,0.1-0.9,0.6-0.9,1.2c-0.1,0.5,0.1,1.1,0.7,1.5
			c0.6,0.4,1.2,0.7,1.8,1c0,0,0,0.1,0,0.1c0,0.6,0,1.1,0.1,1.7c0,0.3,0.1,0.7,0.1,1.1c-1.3,0.6-2.9,0.8-4.2,0.8
			c-1.9,0-1.9,2.9,0,2.9c1.9,0,3.9-0.3,5.7-1.2c0.1,0,0.2,0,0.3,0c2.1,0.1,4.2,0.3,6.3,0.4C43.8,63.7,43.8,60.8,41.9,60.7z"/>
	</g>
	<g>
		<path fill="#FF4D7E" d="M21.2,94.7c4.4,2.6,11.2,3.4,16.4,3.9c11.3,1.1,22.3-0.6,32.6-4.5c4.4-1.6,0.6-6.9-3.8-5.3
			c-9,3.4-19,4.8-28.9,3.7c-4-0.5-9.1-1.1-12.5-3.1C21,87.2,17.3,92.4,21.2,94.7L21.2,94.7z"/>
	</g>
</g>
</svg>
