<?xml version="1.0" encoding="utf-8"?>
<!-- Generator: Adobe Illustrator 18.1.1, SVG Export Plug-In . SVG Version: 6.00 Build 0)  -->
<svg version="1.1" id="Layer_1" xmlns="http://www.w3.org/2000/svg" xmlns:xlink="http://www.w3.org/1999/xlink" x="0px" y="0px"
	 viewBox="0 0 50 50" enable-background="new 0 0 50 50" xml:space="preserve">
<g>
	<path fill="#D4CAED" d="M11.8,7h21V4.4c0-1.3-1.1-2.4-2.4-2.4H6.7C5.4,1.9,4.3,3,4.3,4.4v36.2c0,1.3,1.1,2.4,2.4,2.4h2.6V9.5
		C9.4,8.1,10.4,7,11.8,7z"/>
	<path fill="#FFFFFF" d="M37.5,29.7C37.5,29.8,37.5,29.8,37.5,29.7c-0.1,0.1-0.2,0.2-0.3,0.2c0,0,0,0-0.1,0
		c-0.1,0.1-0.1,0.1-0.2,0.1c0,0,0,0,0,0c-0.1,0.1-0.1,0.1-0.2,0.2c0,0,0,0-0.1,0c-0.1,0.1-0.2,0.1-0.2,0.2l-2.7,1.6
		c-1.4,0.8-3.1-0.2-3-1.8l0.1-3.1c0-0.1,0-0.2,0-0.3c0,0,0,0,0-0.1c0-0.1,0-0.2,0-0.3c0,0,0,0,0-0.1c0-0.1,0-0.2,0-0.2
		c0,0,0,0,0-0.1c0-0.1,0-0.2,0.1-0.3c0,0,0-0.1,0-0.1c0-0.1,0-0.1,0.1-0.2c0,0,0,0,0-0.1c0.1-0.3,0.2-0.6,0.4-0.9l6.2-10.4v-5
		c0-1.3-1.1-2.4-2.4-2.4H11.8c-1.3,0-2.4,1.1-2.4,2.4v36.2c0,1.3,1.1,2.4,2.4,2.4h23.6c1.3,0,2.4-1.1,2.4-2.4V29.4
		c-0.1,0.1-0.1,0.1-0.2,0.2C37.6,29.6,37.6,29.7,37.5,29.7z"/>
	<g>
		<path fill="#FFFFFF" d="M37.8,14.4l-6.2,10.4c-0.2,0.3-0.3,0.6-0.4,0.9l6.5,3.9c0,0,0,0,0,0c0.1-0.1,0.1-0.1,0.2-0.2
			c0.2-0.2,0.3-0.4,0.4-0.6L47.7,13l-6.6-4L37.8,14.4z"/>
		<path fill="#FFFFFF" d="M37,30.2C37,30.2,37,30.2,37,30.2C37,30.2,37,30.2,37,30.2z"/>
		<path fill="#FFFFFF" d="M37.5,29.7C37.5,29.8,37.5,29.8,37.5,29.7C37.5,29.8,37.5,29.8,37.5,29.7z"/>
		<path fill="#FFFFFF" d="M36.8,30.4C36.8,30.4,36.7,30.4,36.8,30.4C36.7,30.4,36.8,30.4,36.8,30.4z"/>
		<path fill="#FFFFFF" d="M37.3,30C37.3,30,37.2,30,37.3,30C37.2,30,37.3,30,37.3,30z"/>
		<path fill="#FFFFFF" d="M30.9,27C30.9,26.9,30.9,26.9,30.9,27C30.9,26.9,30.9,26.9,30.9,27z"/>
		<path fill="#FFFFFF" d="M31,26.6C31,26.6,31,26.6,31,26.6C31,26.6,31,26.6,31,26.6z"/>
		<path fill="#FFFFFF" d="M31.2,25.7C31.2,25.7,31.2,25.7,31.2,25.7C31.2,25.7,31.2,25.7,31.2,25.7z"/>
		<path fill="#FFFFFF" d="M31.1,26C31.1,26,31.1,26,31.1,26C31.1,26,31.1,26,31.1,26z"/>
		<path fill="#FFFFFF" d="M31,26.3C31,26.3,31,26.3,31,26.3C31,26.3,31,26.3,31,26.3z"/>
	</g>
	<path fill="#D4CAED" d="M47.2,6.3c-1.8-1.1-4.2-0.5-5.3,1.3L41,9.1l6.6,4l0.9-1.4C49.6,9.8,49,7.4,47.2,6.3z"/>
	<path fill="#D4CAED" d="M31.2,25.7C31.2,25.7,31.2,25.7,31.2,25.7c0,0.1-0.1,0.2-0.1,0.3c0,0,0,0.1,0,0.1c0,0.1,0,0.2-0.1,0.3
		c0,0,0,0,0,0.1c0,0.1,0,0.2,0,0.2c0,0,0,0,0,0.1c0,0.1,0,0.2,0,0.3c0,0,0,0,0,0.1c0,0.1,0,0.2,0,0.3l-0.1,3.1
		c-0.1,1.6,1.6,2.6,3,1.8l2.7-1.6c0.1,0,0.2-0.1,0.2-0.2c0,0,0,0,0.1,0c0.1-0.1,0.2-0.1,0.2-0.2c0,0,0,0,0,0c0.1,0,0.1-0.1,0.2-0.1
		c0,0,0,0,0.1,0c0.1-0.1,0.1-0.1,0.2-0.2c0,0,0,0,0.1-0.1c0.1-0.1,0.1-0.1,0.1-0.2c0,0,0,0,0,0L31.2,25.7z"/>
	<path fill="#747474" stroke="#747474" stroke-linecap="round" stroke-linejoin="bevel" stroke-miterlimit="10" d="M47.7,5.5
		c-2.3-1.4-5.2-0.6-6.6,1.7l-0.9,1.4L38.8,11V9.5c0-1.9-1.5-3.4-3.4-3.4h-1.7V4.4c0-1.8-1.5-3.4-3.4-3.4H6.7C4.9,1,3.4,2.5,3.4,4.4
		v36.2c0,1.9,1.5,3.4,3.4,3.4h1.7v1.7c0,1.8,1.5,3.4,3.4,3.4h23.6c1.8,0,3.4-1.5,3.4-3.4V29.7c0.1-0.1,0.2-0.3,0.3-0.5l9.4-15.7
		l0.9-1.4C50.7,9.8,49.9,6.9,47.7,5.5z M42.7,8.1c0.4-0.7,1-1.1,1.8-1.3c0.8-0.2,1.5-0.1,2.2,0.3c1.4,0.8,1.8,2.6,1,4l-0.4,0.6
		l-0.8-0.5l-4.3-2.5L42.7,8.1z M36,29.8l-2.7,1.6c0,0-0.1,0-0.1,0.1c-0.3,0.1-0.6,0.1-0.8,0c0,0-0.1,0-0.1-0.1
		c-0.3-0.2-0.5-0.5-0.5-0.8c0,0,0-0.1,0-0.1l0.1-3.1c0,0,0,0,0,0c0,0,0-0.1,0-0.1l4.3,2.5C36.1,29.7,36,29.7,36,29.8z M6.7,42
		c-0.8,0-1.5-0.7-1.5-1.5V4.4c0-0.8,0.7-1.5,1.5-1.5h23.6c0.8,0,1.5,0.7,1.5,1.5v1.7H11.8c-1.9,0-3.4,1.5-3.4,3.4V42H6.7z
		 M36.9,45.6c0,0.8-0.7,1.5-1.5,1.5H11.8c-0.8,0-1.5-0.7-1.5-1.5V9.5C10.3,8.6,11,8,11.8,8h23.6c0.8,0,1.5,0.7,1.5,1.5v4.7
		l-6.1,10.2c0,0.1-0.1,0.1-0.1,0.2c0,0,0,0,0,0.1c0,0.1-0.1,0.1-0.1,0.2c0,0,0,0,0,0c0,0.1-0.1,0.2-0.1,0.2c0,0,0,0,0,0.1
		c0,0.1-0.1,0.1-0.1,0.2c0,0,0,0,0,0c0,0,0,0,0,0c0,0,0,0,0,0c0,0,0,0,0,0c0,0.1,0,0.1-0.1,0.2c0,0,0,0.1,0,0.1c0,0,0,0.1,0,0.1
		c0,0,0,0,0,0c0,0,0,0,0,0c0,0,0,0.1,0,0.1c0,0,0,0.1,0,0.1c0,0,0,0.1,0,0.1c0,0,0,0.1,0,0.1c0,0.1,0,0.1,0,0.2c0,0,0,0.1,0,0.1
		c0,0,0,0.1,0,0.1c0,0,0,0.1,0,0.1c0,0,0,0.1,0,0.1c0,0,0,0.1,0,0.1c0,0,0,0.1,0,0.1c0,0,0,0,0,0.1c0,0.1,0,0.1,0,0.1l-0.1,3.1
		c0,0.1,0,0.1,0,0.2c0,1,0.6,1.9,1.4,2.4c0,0,0.1,0,0.1,0.1c0,0,0,0,0.1,0c0,0,0,0,0.1,0c0,0,0.1,0,0.1,0.1c0,0,0,0,0,0
		c0,0,0.1,0,0.1,0.1c0,0,0,0,0,0c0,0,0.1,0,0.1,0c0,0,0,0,0,0c0.1,0,0.1,0,0.2,0c0,0,0,0,0,0c0.1,0,0.1,0,0.2,0c0,0,0,0,0,0
		c0.1,0,0.1,0,0.2,0c0,0,0,0,0,0c0.1,0,0.1,0,0.2,0h0c0,0,0,0,0,0c0.1,0,0.1,0,0.2,0c0,0,0,0,0,0c0.1,0,0.1,0,0.2,0c0,0,0,0,0,0
		c0.1,0,0.1,0,0.2,0c0.3-0.1,0.6-0.2,0.9-0.4l2.6-1.6V45.6z M37.5,28.3C37.5,28.3,37.5,28.3,37.5,28.3l-5-3c0,0,0,0,0,0l8.9-14.9
		l0.8,0.5l4.3,2.5L37.5,28.3z"/>
	<path fill="#747474" d="M41.3,14.3l-4.7,8c-0.3,0.4-0.1,1,0.3,1.3c0.2,0.1,0.3,0.1,0.5,0.1c0.3,0,0.6-0.2,0.8-0.5l4.7-8
		c0.3-0.4,0.1-1-0.3-1.3C42.1,13.7,41.6,13.9,41.3,14.3z"/>
	<path fill="#747474" d="M15.8,14.9h15.7c0.5,0,0.9-0.4,0.9-0.9S32,13,31.4,13H15.8c-0.5,0-0.9,0.4-0.9,0.9S15.2,14.9,15.8,14.9z"/>
	<path fill="#747474" d="M15.8,21.6h14.4c0.5,0,0.9-0.4,0.9-0.9c0-0.5-0.4-0.9-0.9-0.9H15.8c-0.5,0-0.9,0.4-0.9,0.9
		C14.8,21.2,15.2,21.6,15.8,21.6z"/>
	<path fill="#747474" d="M26.8,26.5h-11c-0.5,0-0.9,0.4-0.9,0.9c0,0.5,0.4,0.9,0.9,0.9h11c0.5,0,0.9-0.4,0.9-0.9
		C27.7,26.9,27.3,26.5,26.8,26.5z"/>
	<path fill="#747474" d="M30.6,33.9c0-0.1-0.1-0.1-0.1-0.2c0-0.1-0.1-0.1-0.1-0.1c-0.2-0.2-0.5-0.3-0.8-0.3c-0.1,0-0.1,0-0.2,0.1
		c-0.1,0-0.1,0.1-0.2,0.1c-0.1,0-0.1,0.1-0.1,0.1c-0.2,0.2-0.3,0.4-0.3,0.7c0,0.2,0.1,0.5,0.3,0.7c0.2,0.2,0.4,0.3,0.7,0.3
		c0.2,0,0.5-0.1,0.7-0.3c0.2-0.2,0.3-0.4,0.3-0.7c0-0.1,0-0.1,0-0.2C30.6,34,30.6,33.9,30.6,33.9z"/>
	<path fill="#747474" d="M25.5,33.3h-9.8c-0.5,0-0.9,0.4-0.9,0.9s0.4,0.9,0.9,0.9h9.8c0.5,0,0.9-0.4,0.9-0.9S26.1,33.3,25.5,33.3z"
		/>
</g>
</svg>
