<?xml version="1.0" encoding="utf-8"?>
<!-- Generator: Adobe Illustrator 16.0.0, SVG Export Plug-In . SVG Version: 6.00 Build 0)  -->
<!DOCTYPE svg PUBLIC "-//W3C//DTD SVG 1.1//EN" "http://www.w3.org/Graphics/SVG/1.1/DTD/svg11.dtd">
<svg version="1.1" id="레이어_1" xmlns="http://www.w3.org/2000/svg" xmlns:xlink="http://www.w3.org/1999/xlink" x="0px"
	 y="0px" width="48px" height="48px" viewBox="0 0 48 48" enable-background="new 0 0 48 48" xml:space="preserve">
<g>
	<defs>
		<rect id="SVGID_1_" x="1" y="9.382" width="46" height="29.236"/>
	</defs>
	<clipPath id="SVGID_2_">
		<use xlink:href="#SVGID_1_"  overflow="visible"/>
	</clipPath>
	<path clip-path="url(#SVGID_2_)" fill="#9d9ba1" d="M3.616,26.63h34.456l-7.535,7.535c-1.02,1.02-1.02,2.668,0,3.688
		s2.669,1.021,3.689,0l12.009-12.009c1.021-1.021,1.021-2.668,0-3.689L34.227,10.147c-1.021-1.021-2.669-1.021-3.689,0
		c-1.02,1.02-1.02,2.668,0,3.688l7.535,7.562H3.616C2.177,21.397,1,22.574,1,24.014C1,25.452,2.177,26.63,3.616,26.63"/>
</g>
</svg>
