<?xml version="1.0" encoding="utf-8"?>
<!-- Generator: Adobe Illustrator 18.1.1, SVG Export Plug-In . SVG Version: 6.00 Build 0)  -->
<svg version="1.1" id="Layer_1" xmlns="http://www.w3.org/2000/svg" xmlns:xlink="http://www.w3.org/1999/xlink" x="0px" y="0px"
	 viewBox="0 0 50 50" enable-background="new 0 0 50 50" xml:space="preserve">
<circle fill="#F3F1F6" cx="25" cy="25" r="25"/>
<g display="none">
	<path display="inline" fill="#FFFFFF" d="M25,15.3c-5.4,0-9.7,4.4-9.7,9.7c0,5.4,4.4,9.7,9.7,9.7c5.4,0,9.7-4.4,9.7-9.7
		C34.7,19.6,30.4,15.3,25,15.3z M30.5,22.8l-6,6C24.3,29,24.1,29,23.9,29s-0.4-0.1-0.5-0.2l-3.9-3.9c-0.3-0.3-0.3-0.7,0-1
		c0.3-0.3,0.7-0.3,1,0l3.4,3.4l5.5-5.5c0.3-0.3,0.7-0.3,1,0C30.7,22,30.7,22.5,30.5,22.8z"/>
	<path display="inline" fill="#616161" d="M25,13.9c-6.1,0-11.1,5-11.1,11.1s5,11.1,11.1,11.1s11.1-5,11.1-11.1S31.1,13.9,25,13.9z
		 M25,34.7c-5.4,0-9.7-4.4-9.7-9.7c0-5.4,4.4-9.7,9.7-9.7c5.4,0,9.7,4.4,9.7,9.7C34.7,30.4,30.4,34.7,25,34.7z"/>
	<path display="inline" fill="#616161" d="M29.5,21.8L24,27.3l-3.4-3.4c-0.3-0.3-0.7-0.3-1,0c-0.3,0.3-0.3,0.7,0,1l3.9,3.9
		c0.2,0.2,0.3,0.2,0.5,0.2s0.4-0.1,0.5-0.2l6-6c0.3-0.3,0.3-0.7,0-1C30.2,21.5,29.7,21.5,29.5,21.8z"/>
</g>
<g>
	<g>
		<g>
			<path fill="#FFFFFF" d="M25,14c-6.1,0-11,4.9-11,11s4.9,11,11,11s11-4.9,11-11S31.1,14,25,14z"/>
		</g>
	</g>
	<g>
		<g>
			<path fill="#616161" stroke="#616161" stroke-width="0.3" stroke-miterlimit="10" d="M25,14c-6.1,0-11,4.9-11,11s4.9,11,11,11
				s11-4.9,11-11S31.1,14,25,14z M25,35c-5.5,0-10-4.5-10-10s4.5-10,10-10s10,4.5,10,10S30.5,35,25,35z"/>
		</g>
	</g>
	<g>
		<g>
			<path fill="#616161" stroke="#616161" stroke-width="0.4" stroke-miterlimit="10" d="M30.3,22.1c-0.2-0.2-0.4-0.2-0.5,0L23.8,28
				l-3.6-3.6c-0.2-0.2-0.4-0.2-0.5,0c-0.2,0.2-0.2,0.4,0,0.5l3.9,3.9c0.1,0.1,0.2,0.1,0.3,0.1s0.2,0,0.3-0.1l6.2-6.2
				C30.5,22.5,30.5,22.2,30.3,22.1z"/>
		</g>
	</g>
</g>
</svg>
