<?xml version="1.0" encoding="utf-8"?>
<!-- Generator: Adobe Illustrator 18.1.1, SVG Export Plug-In . SVG Version: 6.00 Build 0)  -->
<svg version="1.1" id="Layer_1" xmlns="http://www.w3.org/2000/svg" xmlns:xlink="http://www.w3.org/1999/xlink" x="0px" y="0px"
	 viewBox="0 0 100 100" enable-background="new 0 0 100 100" xml:space="preserve">
<g>
	<polygon fill="#FAE300" points="100,100 0,100 0,100 0,0 100,0 100,100 	"/>
	<path fill="#391B1B" d="M49.7,15.5c-21.3,0-38.6,13.7-38.6,30.5c0,11,7.3,20.6,18.3,26c-0.8,3-2.9,10.9-3.3,12.6
		c-0.5,2.1,0.8,2.1,1.6,1.5c0.7-0.4,10.6-7.2,14.9-10.1c2.3,0.3,4.7,0.5,7.2,0.5C71,76.6,88.3,62.9,88.3,46
		C88.3,29.2,71,15.5,49.7,15.5"/>
	<g>
		<path fill="#FAE300" d="M34.2,37H22.9C21.8,37,21,37.9,21,39c0,1.1,0.9,1.9,1.9,1.9h3.7v13.5c0,0.5,0.2,1,0.6,1.3
			c0.3,0.3,0.8,0.5,1.3,0.5h0.4c0.5,0,1-0.2,1.3-0.5c0.4-0.4,0.6-0.8,0.6-1.3V40.9h3.5c1.1,0,1.9-0.9,1.9-1.9
			C36.1,37.9,35.2,37,34.2,37z"/>
		<path fill="#FAE300" d="M61.3,52.7H56V38.9c0-1.2-0.9-2.1-2.1-2.1c-1.2,0-2.1,0.9-2.1,2.1v14.9c0,0.1,0,0.2,0,0.3
			c0,0.1,0,0.2,0,0.3c0,1,0.8,1.7,1.7,1.7h7.7c1,0,1.7-0.8,1.7-1.7C63,53.5,62.3,52.7,61.3,52.7z"/>
		<path fill="#FAE300" d="M78.1,53.3l-5.9-7.7l5.3-5.3c0.7-0.7,0.7-1.9,0-2.6c-0.7-0.7-1.9-0.7-2.6,0l-6.5,6.5v-5.4
			c0-1.2-0.9-2.1-2.1-2.1c-1.2,0-2.1,0.9-2.1,2.1v15.3c0,1.2,0.9,2.1,2.1,2.1c1.2,0,2.1-0.9,2.1-2.1v-4.7l1.2-1.2l5.5,7.3
			c0.6,0.8,1.8,1,2.6,0.4C78.5,55.3,78.7,54.1,78.1,53.3z"/>
		<path fill="#FAE300" d="M50.3,53.8l-5.6-15.4c0,0,0,0,0,0c-0.4-0.9-1.4-1.6-2.6-1.6c-1.4,0-2.5,0.8-2.7,1.9c0,0.1-0.1,0.2-0.1,0.3
			l-5.5,14.8c-0.3,1,0.2,2,1.1,2.4c1,0.3,2-0.2,2.4-1.1l1-2.7h7.7l1,2.7c0.3,1,1.4,1.5,2.4,1.1C50.2,55.8,50.7,54.8,50.3,53.8z
			 M39.4,48.8l2.6-7.4c0,0,0.1,0,0.1,0l2.6,7.4H39.4z"/>
	</g>
</g>
</svg>
