<?xml version="1.0" encoding="utf-8"?>
<!-- Generator: Adobe Illustrator 18.1.1, SVG Export Plug-In . SVG Version: 6.00 Build 0)  -->
<svg version="1.1" id="Layer_1" xmlns="http://www.w3.org/2000/svg" xmlns:xlink="http://www.w3.org/1999/xlink" x="0px" y="0px"
	 viewBox="0 0 50 50" enable-background="new 0 0 50 50" xml:space="preserve">
<g id="Icon_7_">
	<path fill="#747474" d="M18,48H7.9c-2,0-2.9-1.9-2.9-3.1V20h4v24h9V48z"/>
	<path fill="#747474" d="M42.1,48H31v-4h10V20h4v24.9C45,46.1,44.1,48,42.1,48z"/>
	<path fill="#747474" d="M43,22.5c-0.5,0-1-0.2-1.4-0.5L25,6.3L8.3,21.5c-0.8,0.7-2.1,0.7-2.8-0.1c-0.7-0.8-0.7-2.1,0.1-2.8l18-16.4
		c0.8-0.7,2-0.7,2.7,0l18,16.9c0.8,0.8,0.8,2,0.1,2.8C44.1,22.3,43.5,22.5,43,22.5z"/>
	<path fill="#747474" d="M33,48h-4V35h-8v13h-4V33.4c0-1.1,0.9-2.4,2-2.4h12c1.1,0,2,1.3,2,2.4V48z"/>
</g>
</svg>
