<?xml version="1.0" encoding="utf-8"?>
<!-- Generator: Adobe Illustrator 18.1.1, SVG Export Plug-In . SVG Version: 6.00 Build 0)  -->
<svg version="1.1" id="Layer_1" xmlns="http://www.w3.org/2000/svg" xmlns:xlink="http://www.w3.org/1999/xlink" x="0px" y="0px"
	 viewBox="0 0 50 50" enable-background="new 0 0 50 50" xml:space="preserve">
<g>
	<path fill="#747474" d="M25.2,27.2c-7.2,0-13-5.8-13-13s5.8-13,13-13s13,5.8,13,13S32.3,27.2,25.2,27.2z M25.2,5.2c-5,0-9,4-9,9
		s4,9,9,9s9-4,9-9S30.1,5.2,25.2,5.2z"/>
	<path fill="#747474" d="M44.4,49H6.4C4.1,49,3,44.9,3,44v-6.6c0-7.9,9.7-14,22-14s22,6.1,22,14V44C47,46.9,46.1,49,44.4,49z
		 M7.2,45H43c0-1,0-0.8,0-1v-6.6c0-5.4-8.2-10-18-10S7,32,7,37.4v6.4C7,44,7.1,44,7.2,45z"/>
</g>
</svg>
