<?xml version="1.0" encoding="utf-8"?>
<!-- Generator: Adobe Illustrator 18.1.1, SVG Export Plug-In . SVG Version: 6.00 Build 0)  -->
<svg version="1.1" id="Layer_1" xmlns="http://www.w3.org/2000/svg" xmlns:xlink="http://www.w3.org/1999/xlink" x="0px" y="0px"
	 viewBox="0 0 56 56" enable-background="new 0 0 56 56" xml:space="preserve">
<rect fill="#F3F1F6" width="56" height="56"/>
<g>
	
		<path fill="#FFFFFF" stroke="#9D9BA1" stroke-width="1.2" stroke-linecap="round" stroke-linejoin="round" stroke-miterlimit="10" d="
		M30.7,14h-5.4c-2,0-3.7,1.7-3.7,3.7v4h12.8v-4C34.4,15.7,32.7,14,30.7,14z M32.4,19.8h-8.9v-2.1c0-1,0.8-1.7,1.7-1.7h5.4
		c1,0,1.7,0.8,1.7,1.7L32.4,19.8L32.4,19.8z"/>
	
		<path fill="#D4CAED" stroke="#9D9BA1" stroke-width="1.2" stroke-linecap="round" stroke-linejoin="round" stroke-miterlimit="10" d="
		M37.1,19.8H18.9c-0.8,0-1.5,0.5-1.6,1.3L15,30.5c-0.1,0.3-0.1,0.5,0,0.8l2.3,9.4c0.2,0.8,0.9,1.3,1.6,1.3h18.3
		c0.8,0,1.5-0.5,1.6-1.3l2.3-9.4c0.1-0.3,0.1-0.5,0-0.8l-2.3-9.4C38.6,20.3,37.9,19.8,37.1,19.8z"/>
	
		<rect x="19.5" y="22.1" fill="#FFFFFF" stroke="#9D9BA1" stroke-width="1.1033" stroke-linecap="round" stroke-linejoin="round" stroke-miterlimit="10" width="2.8" height="17.6"/>
	
		<rect x="22.3" y="22.1" fill="#FFFFFF" stroke="#9D9BA1" stroke-width="1.1033" stroke-linecap="round" stroke-linejoin="round" stroke-miterlimit="10" width="2.8" height="17.6"/>
	
		<rect x="25.2" y="22.1" fill="#FFFFFF" stroke="#9D9BA1" stroke-width="1.1033" stroke-linecap="round" stroke-linejoin="round" stroke-miterlimit="10" width="2.8" height="17.6"/>
	
		<rect x="33.7" y="22.1" fill="#FFFFFF" stroke="#9D9BA1" stroke-width="1.1033" stroke-linecap="round" stroke-linejoin="round" stroke-miterlimit="10" width="2.8" height="17.6"/>
	
		<rect x="30.8" y="22.1" fill="#FFFFFF" stroke="#9D9BA1" stroke-width="1.1033" stroke-linecap="round" stroke-linejoin="round" stroke-miterlimit="10" width="2.8" height="17.6"/>
	
		<rect x="28" y="22.1" fill="#FFFFFF" stroke="#9D9BA1" stroke-width="1.1033" stroke-linecap="round" stroke-linejoin="round" stroke-miterlimit="10" width="2.8" height="17.6"/>
	
		<rect x="19.5" y="29.8" fill="#FFFFFF" stroke="#9D9BA1" stroke-width="1.1033" stroke-linecap="round" stroke-linejoin="round" stroke-miterlimit="10" width="17.1" height="2.2"/>
</g>
</svg>
