<?xml version="1.0" encoding="utf-8"?>
<!-- Generator: Adobe Illustrator 18.1.1, SVG Export Plug-In . SVG Version: 6.00 Build 0)  -->
<svg version="1.1" id="Layer_1" xmlns="http://www.w3.org/2000/svg" xmlns:xlink="http://www.w3.org/1999/xlink" x="0px" y="0px"
	 viewBox="0 0 100 100" enable-background="new 0 0 100 100" xml:space="preserve">
<rect x="17.2" y="38" fill="#D4CAED" width="65.5" height="10.7"/>
<rect x="17.2" y="86.5" fill="#D4CAED" width="65.5" height="10.7"/>
<g>
	<g>
		<path fill="#747474" d="M79,99H21c-3.3,0-6.1-2.7-6.1-6.1V42.4c0-3.3,2.7-6.1,6.1-6.1h58c3.3,0,6.1,2.7,6.1,6.1v50.6
			C85.1,96.3,82.3,99,79,99z M22.1,95.6h55.7c2.1,0,3.8-1.7,3.8-3.8V43.5c0-2.1-1.7-3.8-3.8-3.8H22.1c-2.1,0-3.8,1.7-3.8,3.8v48.3
			C18.3,93.9,20,95.6,22.1,95.6z"/>
		<g>
			<path fill="#747474" d="M50,70.2c-3.7,0-6.7-3-6.7-6.7c0-3.7,3-6.7,6.7-6.7c3.7,0,6.7,3,6.7,6.7C56.7,67.1,53.7,70.2,50,70.2z
				 M50,60.1c-1.8,0-3.3,1.5-3.3,3.3c0,1.8,1.5,3.3,3.3,3.3c1.8,0,3.3-1.5,3.3-3.3C53.3,61.6,51.8,60.1,50,60.1z"/>
			<rect x="48.3" y="68.5" fill="#747474" width="3.4" height="8.4"/>
		</g>
		<rect x="16.6" y="47.4" fill="#747474" width="66.7" height="3.4"/>
		<rect x="16.6" y="84.5" fill="#747474" width="66.7" height="3.4"/>
		<path fill="#747474" d="M72.9,39.7h-9.5V23.9c0-3.6-1.4-7-3.9-9.5c-2.5-2.5-5.9-3.9-9.5-3.9s-7,1.4-9.5,3.9
			c-2.5,2.5-3.9,5.9-3.9,9.5v15.8h-9.5V23.9c0-6.1,2.4-11.9,6.7-16.2C38.1,3.4,43.9,1,50,1s11.9,2.4,16.2,6.7
			c4.3,4.3,6.7,10.1,6.7,16.2V39.7z M66.8,36.3h2.6V23.9c0-5.2-2-10.1-5.7-13.8C60.1,6.4,55.2,4.4,50,4.4c-5.2,0-10.1,2-13.8,5.7
			c-3.7,3.7-5.7,8.6-5.7,13.8v12.4h2.6V23.9c0-4.5,1.8-8.7,4.9-11.9c3.2-3.2,7.4-4.9,11.9-4.9s8.7,1.8,11.9,4.9
			c3.2,3.2,4.9,7.4,4.9,11.9V36.3z"/>
	</g>
</g>
</svg>
