<?xml version="1.0" encoding="utf-8"?>
<!-- Generator: Adobe Illustrator 18.1.1, SVG Export Plug-In . SVG Version: 6.00 Build 0)  -->
<svg version="1.1" id="Layer_1" xmlns="http://www.w3.org/2000/svg" xmlns:xlink="http://www.w3.org/1999/xlink" x="0px" y="0px"
	 viewBox="0 0 50 50" enable-background="new 0 0 50 50" xml:space="preserve">
<g>
	<path fill="#DBDBDB" d="M48.7,6.2c0.2,2.1-1.4,3.9-3.5,3.9c1.9,0,3.5,1.6,3.5,3.5s-1.6,3.5-3.5,3.5c1.9,0,3.5,1.6,3.5,3.5
		s-1.6,3.5-3.5,3.5l1.2,0c1.8,0,3.5,1.3,3.6,3.2c0.2,2.1-1.4,3.9-3.5,3.9h-5h-9l3.7,10.7c0.7,1.8,0.1,3.9-1.6,4.7
		c-1.8,0.9-4,0-4.8-1.8L14.4,25.9V8.4l0,0C19.8,4.9,26,3,32.4,3h9.1L45,3C46.8,3,48.5,4.4,48.7,6.2z"/>
	<rect y="4.1" fill="#AEAEAE" width="10.4" height="26"/>
</g>
</svg>
