<?xml version="1.0" encoding="utf-8"?>
<!-- Generator: Adobe Illustrator 18.1.1, SVG Export Plug-In . SVG Version: 6.00 Build 0)  -->
<svg version="1.1" id="Layer_1" xmlns="http://www.w3.org/2000/svg" xmlns:xlink="http://www.w3.org/1999/xlink" x="0px" y="0px"
	 viewBox="0 0 50 50" enable-background="new 0 0 50 50" xml:space="preserve">
<g>
	<circle fill="#FFCF7B" cx="25" cy="25" r="25"/>
	<path fill="none" stroke="#3A556A" stroke-width="2.381" stroke-linecap="round" stroke-miterlimit="10" d="M17.8,19.5
		c0,2-1.6,3.6-3.6,3.6s-3.6-1.6-3.6-3.6"/>
	<path fill="none" stroke="#3A556A" stroke-width="2.381" stroke-linecap="round" stroke-miterlimit="10" d="M32.2,19.5
		c0,2,1.6,3.6,3.6,3.6c2,0,3.6-1.6,3.6-3.6"/>
	<path fill="none" stroke="#3A556A" stroke-width="3.0952" stroke-linecap="round" stroke-miterlimit="10" d="M33.8,33.8
		c0,3.4-3.9,6.2-8.8,6.2s-8.8-2.8-8.8-6.2"/>
	<path fill="#3A556A" d="M30.6,12.1c-1.2,0.2-2.2,0.7-3,1.5c-0.3,0.4-0.8,0.5-1.3,0.5h-2.5c-0.5,0-1-0.2-1.3-0.5
		c-0.8-0.8-1.8-1.4-3-1.5L0.6,9.7L3,20.3c0.6,2.8,2.9,4.9,5.7,5.4l6.1,1.1c3.7,0.7,7.3-1.7,8.2-5.4l0.1-0.6c0.2-0.9,1-1.5,1.9-1.5h0
		c0.9,0,1.7,0.6,1.9,1.5l0.1,0.6c0.8,3.7,4.4,6.1,8.2,5.4l6.1-1.1c2.8-0.5,5.1-2.6,5.7-5.4l2.4-10.6L30.6,12.1z"/>
</g>
</svg>
