<?xml version="1.0" encoding="utf-8"?>
<!-- Generator: Adobe Illustrator 18.1.1, SVG Export Plug-In . SVG Version: 6.00 Build 0)  -->
<svg version="1.1" id="Layer_1" xmlns="http://www.w3.org/2000/svg" xmlns:xlink="http://www.w3.org/1999/xlink" x="0px" y="0px"
	 viewBox="0 0 56 56" enable-background="new 0 0 56 56" xml:space="preserve">
<rect fill="#F3F1F6" width="56" height="56"/>
<g display="none">
	<path display="inline" fill="#FFFFFF" stroke="#9D9BA1" stroke-width="1.867" stroke-linejoin="round" stroke-miterlimit="10" d="
		M40.6,39.5H15.4c-1.6,0-2.7-1.5-2.3-3l2.8-9.5h24.3l2.8,9.5C43.3,38,42.2,39.5,40.6,39.5z"/>
	<path display="inline" fill="#FFFFFF" stroke="#9D9BA1" stroke-width="1.867" stroke-linejoin="round" stroke-miterlimit="10" d="
		M18,24l-0.9,3h21.7L38,24C35.1,14,20.9,14,18,24z"/>
	<circle display="inline" fill="#9D9BA1" cx="23.3" cy="22.6" r="0.7"/>
	<circle display="inline" fill="#9D9BA1" cx="28.7" cy="19.4" r="0.7"/>
	<circle display="inline" fill="#9D9BA1" cx="33.1" cy="23.1" r="0.7"/>
</g>
<g>
	
		<path fill="#FFFFFF" stroke="#9D9BA1" stroke-width="1.2" stroke-linecap="round" stroke-linejoin="round" stroke-miterlimit="10" d="
		M38.3,21.9c0-0.1,0-0.3,0-0.4c0-1.2-0.9-2.1-2.1-2.1c-0.3,0-0.7,0.1-1,0.2c-0.4-0.5-1.1-0.8-1.8-0.8c-0.7,0-1.4,0.3-1.8,0.9
		c-0.4-0.5-1.1-0.9-1.8-0.9c-0.7,0-1.4,0.3-1.8,0.9c-0.4-0.5-1.1-0.9-1.8-0.9c-0.7,0-1.4,0.3-1.8,0.9c-0.4-0.5-1.1-0.9-1.8-0.9
		c-0.7,0-1.4,0.3-1.8,0.8c-0.3-0.2-0.6-0.2-1-0.2c-1.1,0-2.1,0.9-2.1,2.1c0,0.1,0,0.3,0,0.4c-0.7,0.4-1.2,1.2-1.2,2.1v4.8h23V24
		C39.5,23.1,39,22.3,38.3,21.9z"/>
	
		<path fill="#D4CAED" stroke="#9D9BA1" stroke-width="1.2" stroke-linecap="round" stroke-linejoin="round" stroke-miterlimit="10" d="
		M28,25.6c-4.5,0-8.6-0.8-12.1-2l-2.8,9c3.8,2.1,9.1,3.4,14.9,3.4c5.8,0,11.1-1.3,14.9-3.4l-2.8-9C36.6,24.9,32.5,25.6,28,25.6z"/>
	<path fill="#FFFFFF" stroke="#9D9BA1" stroke-linecap="round" stroke-linejoin="round" stroke-miterlimit="10" d="M33.8,30.1
		c0.3-0.3,0.5-0.7,0.5-1.2c0-0.9-0.7-1.6-1.6-1.6c-0.9,0-1.6,0.7-1.6,1.5h-6.1c-0.1-0.8-0.8-1.5-1.6-1.5c-0.9,0-1.6,0.7-1.6,1.6
		c0,0.5,0.2,0.9,0.5,1.2c-0.3,0.3-0.5,0.7-0.5,1.2c0,0.9,0.7,1.6,1.6,1.6c0.9,0,1.6-0.7,1.6-1.5h6.1c0.1,0.8,0.8,1.5,1.6,1.5
		c0.9,0,1.6-0.7,1.6-1.6C34.3,30.8,34.1,30.4,33.8,30.1z"/>
	<path fill="none" stroke="#9D9BA1" stroke-width="1.2" stroke-linecap="round" stroke-linejoin="round" stroke-miterlimit="10" d="
		M22,23.1c0-0.9,0.7-1.6,1.6-1.6s1.6,0.7,1.6,1.6"/>
	<path fill="none" stroke="#9D9BA1" stroke-width="1.2" stroke-linecap="round" stroke-linejoin="round" stroke-miterlimit="10" d="
		M32,22.3c0-0.6,0.5-1.1,1.1-1.1c0.6,0,1.1,0.5,1.1,1.1"/>
	<path fill="none" stroke="#9D9BA1" stroke-width="1.2" stroke-linecap="round" stroke-linejoin="round" stroke-miterlimit="10" d="
		M28.3,24.1c0-0.6,0.5-1.1,1.1-1.1s1.1,0.5,1.1,1.1"/>
	
		<path fill="#FFFFFF" stroke="#9D9BA1" stroke-width="1.2" stroke-linecap="round" stroke-linejoin="round" stroke-miterlimit="10" d="
		M28,37.2c-5.8,0-11.3-1.3-15.4-3.6c-0.5-0.3-0.7-1-0.4-1.5c0.3-0.5,1-0.7,1.5-0.4c3.8,2.1,8.9,3.3,14.3,3.3s10.5-1.2,14.3-3.3
		c0.5-0.3,1.2-0.1,1.5,0.4c0.3,0.5,0.1,1.2-0.4,1.5C39.3,35.9,33.8,37.2,28,37.2z"/>
</g>
</svg>
