<?xml version="1.0" encoding="utf-8"?>
<!-- Generator: Adobe Illustrator 18.1.1, SVG Export Plug-In . SVG Version: 6.00 Build 0)  -->
<svg version="1.1" id="Layer_1" xmlns="http://www.w3.org/2000/svg" xmlns:xlink="http://www.w3.org/1999/xlink" x="0px" y="0px"
	 viewBox="0 0 56 56" enable-background="new 0 0 56 56" xml:space="preserve">
<rect fill="#F3F1F6" width="56" height="56"/>
<g>
	
		<rect x="12" y="22.2" fill="#D4CAED" stroke="#9D9BA1" stroke-width="1.2" stroke-linecap="round" stroke-linejoin="round" stroke-miterlimit="10" width="32" height="5.4"/>
	
		<circle display="none" fill="#FFFFFF" stroke="#9D9BA1" stroke-width="1.1345" stroke-linecap="round" stroke-linejoin="round" stroke-miterlimit="10" cx="15.3" cy="24.9" r="1"/>
	
		<circle display="none" fill="#FFFFFF" stroke="#9D9BA1" stroke-width="1.1345" stroke-linecap="round" stroke-linejoin="round" stroke-miterlimit="10" cx="21" cy="24.9" r="1"/>
	
		<path fill="#FFFFFF" stroke="#9D9BA1" stroke-width="1.2" stroke-linecap="round" stroke-linejoin="round" stroke-miterlimit="10" d="
		M32.7,20.8h-9.3c-0.8,0-1.4,0.6-1.4,1.4v5.4c0,0.8,0.6,1.4,1.4,1.4h9.3c0.8,0,1.4-0.6,1.4-1.4v-5.4C34,21.4,33.4,20.8,32.7,20.8z
		 M31.8,26.6h-7.5v-3.6h7.5V26.6z"/>
	
		<path fill="#FFFFFF" stroke="#9D9BA1" stroke-width="1.2" stroke-linecap="round" stroke-linejoin="round" stroke-miterlimit="10" d="
		M35.6,24.9L35.6,24.9c0,0.6-0.5,1.1-1.1,1.1h-3.1c-0.6,0-1.1-0.5-1.1-1.1v0c0-0.6,0.5-1.1,1.1-1.1h3.1
		C35.1,23.7,35.6,24.2,35.6,24.9z"/>
	
		<circle fill="#FFFFFF" stroke="#9D9BA1" stroke-width="1.2" stroke-linecap="round" stroke-linejoin="round" stroke-miterlimit="10" cx="28" cy="35.2" r="4"/>
	
		<line fill="#FFFFFF" stroke="#9D9BA1" stroke-width="1.2" stroke-linecap="round" stroke-linejoin="round" stroke-miterlimit="10" x1="28" y1="31.2" x2="28" y2="28.9"/>
	<path display="none" fill="#D4CAED" d="M32,35.2c0,2.2-1.8,4-4,4c-1.5,0-2.8-0.8-3.5-2.1c0.6,0.3,1.2,0.5,1.9,0.5c2.2,0,4-1.8,4-4
		c0-0.7-0.2-1.3-0.5-1.9C31.1,32.4,32,33.7,32,35.2z"/>
	<path display="none" fill="#FF4D7E" d="M29,33.6c-0.5,0-1,0.4-1,1c0-0.5-0.4-1-1-1c-0.5,0-1,0.4-1,1c0,0.7,0.3,1.4,0.9,1.9l1,0.8
		l1-0.8c0.6-0.5,0.9-1.2,0.9-1.9C29.9,34,29.5,33.6,29,33.6z"/>
</g>
</svg>
