<?xml version="1.0" encoding="utf-8"?>
<!-- Generator: Adobe Illustrator 18.1.1, SVG Export Plug-In . SVG Version: 6.00 Build 0)  -->
<svg version="1.1" id="Layer_1" xmlns="http://www.w3.org/2000/svg" xmlns:xlink="http://www.w3.org/1999/xlink" x="0px" y="0px"
	 viewBox="0 0 96 96" enable-background="new 0 0 96 96" xml:space="preserve">
<circle fill="#F3F1F6" cx="48" cy="48" r="48"/>
<g>
	<g>
		<polygon fill="#FFFFFF" points="69.9,35.3 48,22.7 26.1,35.3 26.1,60.6 48,73.2 69.9,60.6 		"/>
		<path fill="#616161" d="M48,74.5c-0.2,0-0.4-0.1-0.6-0.2L25.5,61.7c-0.4-0.2-0.6-0.6-0.6-1.1V35.3c0-0.4,0.2-0.9,0.6-1.1
			l21.9-12.6c0.4-0.2,0.9-0.2,1.3,0l21.9,12.6c0.4,0.2,0.6,0.6,0.6,1.1v25.3c0,0.4-0.2,0.9-0.6,1.1L48.6,74.3
			C48.4,74.4,48.2,74.5,48,74.5z M27.4,59.8L48,71.8l20.6-11.9V36L48,24.1L27.4,36V59.8z"/>
	</g>
	<g>
		<polyline fill="#FFFFFF" points="48,73.3 48,48.7 69.9,35.3 		"/>
		<path fill="#616161" d="M48,74.6c-0.7,0-1.3-0.6-1.3-1.3V48.7c0-0.4,0.2-0.8,0.6-1.1l21.9-13.4c0.6-0.4,1.4-0.2,1.7,0.4
			c0.4,0.6,0.2,1.4-0.4,1.7L49.3,49.4v23.9C49.3,74,48.7,74.6,48,74.6z"/>
	</g>
	<g>
		<line fill="#FFFFFF" x1="48" y1="48.7" x2="26.1" y2="35.3"/>
		<path fill="#616161" d="M48,50c-0.2,0-0.4-0.1-0.7-0.2L25.5,36.4c-0.6-0.4-0.8-1.1-0.4-1.7c0.4-0.6,1.1-0.8,1.7-0.4l21.9,13.4
			c0.6,0.4,0.8,1.1,0.4,1.7C48.8,49.8,48.4,50,48,50z"/>
	</g>
	<g>
		<line fill="#FFFFFF" x1="58.1" y1="41.7" x2="37.9" y2="29"/>
		<path fill="#616161" d="M58.1,42.9c-0.2,0-0.5-0.1-0.7-0.2L37.3,30.1c-0.6-0.4-0.8-1.1-0.4-1.7c0.4-0.6,1.1-0.8,1.7-0.4l20.1,12.6
			c0.6,0.4,0.8,1.1,0.4,1.7C58.9,42.7,58.5,42.9,58.1,42.9z"/>
	</g>
</g>
</svg>
