<?xml version="1.0" encoding="utf-8"?>
<!-- Generator: Adobe Illustrator 18.1.1, SVG Export Plug-In . SVG Version: 6.00 Build 0)  -->
<svg version="1.1" id="Layer_1" xmlns="http://www.w3.org/2000/svg" xmlns:xlink="http://www.w3.org/1999/xlink" x="0px" y="0px"
	 viewBox="0 0 96 96" enable-background="new 0 0 96 96" xml:space="preserve">
<circle fill="#F3F1F6" cx="48" cy="48" r="48"/>
<g>
	<g>
		<g>
			<path fill="#FFFFFF" d="M71.9,63.3c0,0.8-0.7,1.5-1.5,1.5H25.6c-0.8,0-1.5-0.7-1.5-1.5V32.7c0-0.8,0.7-1.5,1.5-1.5h44.8
				c0.8,0,1.5,0.7,1.5,1.5V63.3z"/>
			<path fill="#616161" d="M70.4,66H25.6c-1.5,0-2.7-1.2-2.7-2.7V32.7c0-1.5,1.2-2.7,2.7-2.7h44.8c1.5,0,2.7,1.2,2.7,2.7v30.6
				C73.1,64.8,71.9,66,70.4,66z M25.6,32.5c-0.1,0-0.2,0.1-0.2,0.2v30.6c0,0.1,0.1,0.2,0.2,0.2h44.8c0.1,0,0.2-0.1,0.2-0.2V32.7
				c0-0.1-0.1-0.2-0.2-0.2H25.6z"/>
		</g>
		<path fill="#616161" d="M49.4,60.2H29.8c-0.7,0-1.3-0.6-1.3-1.3s0.6-1.3,1.3-1.3h19.6c0.7,0,1.3,0.6,1.3,1.3S50.1,60.2,49.4,60.2z
			"/>
		<path fill="#616161" d="M64.1,60.2h-7.8c-0.7,0-1.3-0.6-1.3-1.3s0.6-1.3,1.3-1.3h7.8c0.7,0,1.3,0.6,1.3,1.3S64.8,60.2,64.1,60.2z"
			/>
	</g>
	<path fill="#616161" d="M71.1,47.9H24.4c-0.7,0-1.3-0.6-1.3-1.3s0.6-1.3,1.3-1.3h46.7c0.7,0,1.3,0.6,1.3,1.3S71.8,47.9,71.1,47.9z"
		/>
	<path fill="#616161" d="M71.1,41.2H24.4c-0.7,0-1.3-0.6-1.3-1.3s0.6-1.3,1.3-1.3h46.7c0.7,0,1.3,0.6,1.3,1.3S71.8,41.2,71.1,41.2z"
		/>
</g>
</svg>
