<?xml version="1.0" encoding="utf-8"?>
<!-- Generator: Adobe Illustrator 18.1.1, SVG Export Plug-In . SVG Version: 6.00 Build 0)  -->
<svg version="1.1" id="Layer_1" xmlns="http://www.w3.org/2000/svg" xmlns:xlink="http://www.w3.org/1999/xlink" x="0px" y="0px"
	 viewBox="0 0 50 50" enable-background="new 0 0 50 50" xml:space="preserve">
<circle fill="#F3F1F6" cx="25" cy="25" r="25"/>
<g>
	<path fill="#FFFFFF" stroke="#747474" stroke-width="1.65" stroke-miterlimit="10" d="M32.6,42.4H17.4c-1.5,0-2.7-1.2-2.7-2.7V11.4
		c0-1.5,1.2-2.7,2.7-2.7h15.2c1.5,0,2.7,1.2,2.7,2.7v28.4C35.3,41.2,34.1,42.4,32.6,42.4z"/>
	<rect x="14.7" y="14.7" fill="#EEE9F9" stroke="#747474" stroke-width="1.65" stroke-miterlimit="10" width="20.6" height="23.4"/>
	<g>
		<line fill="#EEE9F9" x1="21" y1="12" x2="29" y2="12"/>
		<path fill="#747474" d="M27.8,12h-5.7c-0.3,0-0.5-0.2-0.5-0.5s0.2-0.5,0.5-0.5h5.7c0.3,0,0.5,0.2,0.5,0.5S28.1,12,27.8,12z"/>
	</g>
</g>
</svg>
