<?xml version="1.0" encoding="utf-8"?>
<!-- Generator: Adobe Illustrator 18.1.1, SVG Export Plug-In . SVG Version: 6.00 Build 0)  -->
<svg version="1.1" id="Layer_1" xmlns="http://www.w3.org/2000/svg" xmlns:xlink="http://www.w3.org/1999/xlink" x="0px" y="0px"
	 viewBox="0 0 160 48" enable-background="new 0 0 160 48" xml:space="preserve">
<g>
	<path fill="#FF4D7E" d="M24,0h112c13.3,0,24,10.7,24,24l0,0c0,13.3-10.7,24-24,24H24C10.7,48,0,37.3,0,24l0,0C0,10.7,10.7,0,24,0z"
		/>
	<g>
		<path fill="#FFFFFF" d="M118.1,28.8h2V15.7h-2V28.8z M135.8,20.4l-2.3,5.7h-0.1l-2.3-5.7H129l3.5,7.9l-2,4.4h2l5.4-12.4H135.8z
			 M124.7,27.3c-0.6,0-1.5-0.3-1.5-1.1c0-1,1.1-1.4,2.1-1.4c0.9,0,1.3,0.2,1.8,0.4C126.9,26.4,125.8,27.3,124.7,27.3z M124.9,20.1
			c-1.4,0-2.9,0.6-3.5,2l1.7,0.7c0.4-0.7,1.1-1,1.8-1c1,0,2,0.6,2.1,1.7v0.1c-0.4-0.2-1.1-0.5-2-0.5c-1.9,0-3.8,1-3.8,3
			c0,1.8,1.5,2.9,3.3,2.9c1.3,0,2-0.6,2.5-1.3h0.1v1h1.9v-5C128.9,21.4,127.2,20.1,124.9,20.1L124.9,20.1z M112.8,22H110v-4.5h2.8
			c1.5,0,2.3,1.2,2.3,2.2C115.1,20.8,114.2,22,112.8,22L112.8,22z M112.7,15.7H108v13.1h2v-5h2.7c2.2,0,4.3-1.6,4.3-4.1
			S114.9,15.7,112.7,15.7L112.7,15.7z M87.1,27.3c-1.4,0-2.5-1.1-2.5-2.7c0-1.6,1.1-2.7,2.5-2.7c1.3,0,2.4,1.1,2.4,2.7
			C89.5,26.2,88.4,27.3,87.1,27.3z M89.3,21.1L89.3,21.1c-0.5-0.5-1.4-1-2.4-1c-2.2,0-4.3,2-4.3,4.5c0,2.5,2.1,4.4,4.3,4.4
			c1.1,0,1.9-0.5,2.4-1h0.1v0.6c0,1.7-0.9,2.6-2.4,2.6c-1.2,0-1.9-0.9-2.3-1.6L83,30.4c0.5,1.2,1.8,2.6,4,2.6c2.3,0,4.3-1.4,4.3-4.6
			v-8h-1.9V21.1L89.3,21.1z M92.5,28.8h2V15.7h-2L92.5,28.8L92.5,28.8z M97.4,24.5c-0.1-1.7,1.3-2.6,2.3-2.6c0.8,0,1.4,0.4,1.7,0.9
			L97.4,24.5z M103.5,23c-0.4-1-1.5-2.8-3.8-2.8c-2.3,0-4.2,1.8-4.2,4.5c0,2.5,1.9,4.5,4.4,4.5c2.1,0,3.2-1.3,3.7-2l-1.5-1
			c-0.5,0.7-1.2,1.2-2.2,1.2c-1,0-1.7-0.5-2.2-1.4l6-2.5L103.5,23z M55.8,21.5v1.9h4.5c-0.1,1.1-0.5,1.8-1,2.4
			c-0.7,0.7-1.7,1.4-3.5,1.4c-2.8,0-5-2.2-5-5c0-2.8,2.2-5,5-5c1.5,0,2.6,0.6,3.4,1.4l1.3-1.3c-1.1-1.1-2.6-1.9-4.8-1.9
			c-3.8,0-7.1,3.1-7.1,6.9c0,3.8,3.2,6.9,7.1,6.9c2.1,0,3.6-0.7,4.8-1.9c1.3-1.3,1.6-3,1.6-4.4c0-0.4,0-0.8-0.1-1.2H55.8z
			 M67.5,27.3c-1.4,0-2.5-1.1-2.5-2.7c0-1.6,1.2-2.7,2.5-2.7c1.4,0,2.5,1.1,2.5,2.7C70,26.2,68.9,27.3,67.5,27.3z M67.5,20.1
			C65,20.1,63,22,63,24.6c0,2.6,2,4.5,4.5,4.5c2.5,0,4.5-1.9,4.5-4.5C72,22,70,20.1,67.5,20.1z M77.3,27.3c-1.4,0-2.5-1.1-2.5-2.7
			c0-1.6,1.2-2.7,2.5-2.7c1.4,0,2.5,1.1,2.5,2.7C79.8,26.2,78.7,27.3,77.3,27.3z M77.3,20.1c-2.5,0-4.5,1.9-4.5,4.5
			c0,2.6,2,4.5,4.5,4.5c2.5,0,4.5-1.9,4.5-4.5C81.8,22,79.8,20.1,77.3,20.1L77.3,20.1z"/>
		<g>
			<path fill="#FFFFFF" d="M22.8,14.2v19.5c0,0.2,0,0.5,0.1,0.6L33.3,24L22.9,13.6C22.9,13.8,22.8,14,22.8,14.2z M37.6,27.2l4.1-2.3
				c0.9-0.5,0.9-1.3,0-1.8l-4.1-2.3L34.3,24L37.6,27.2L37.6,27.2z M24.4,34.6l12.4-7l-3-3L23.5,34.9C23.8,34.9,24.1,34.8,24.4,34.6z
				 M33.8,23.4l3-3l-12.4-7c-0.3-0.2-0.5-0.2-0.8-0.2c0,0-0.1,0-0.1,0L33.8,23.4z"/>
		</g>
	</g>
</g>
</svg>
