<svg xmlns="http://www.w3.org/2000/svg" width="96" height="96" viewBox="0 0 96 96">
    <g fill="#7954D0" fill-rule="evenodd" stroke="#7954D0">
        <path d="M85.578 22H10.422C7.98 22 6 20.442 6 18s1.98-4 4.422-4h75.156C88.02 14 90 15.558 90 18s-1.98 4-4.422 4M85.578 52.516H10.422c-2.442 0-4.422-1.558-4.422-4s1.98-4 4.422-4h75.156c2.442 0 4.422 1.558 4.422 4s-1.98 4-4.422 4M85.578 83.032H10.422c-2.442 0-4.422-1.558-4.422-4s1.98-4 4.422-4h75.156c2.442 0 4.422 1.558 4.422 4s-1.98 4-4.422 4"/>
    </g>
</svg>
