<svg xmlns="http://www.w3.org/2000/svg" width="96" height="96" viewBox="0 0 96 96">
    <g fill="#B8B3C3" fill-rule="evenodd">
        <path d="M13.417 34.435c-2.114 0-3.834-1.716-3.834-3.826 0-2.11 1.72-3.826 3.834-3.826s3.833 1.716 3.833 3.826c0 2.11-1.72 3.826-3.833 3.826m19.166-17.218c-2.114 0-3.833-1.716-3.833-3.826 0-2.11 1.72-3.826 3.833-3.826 2.114 0 3.834 1.716 3.834 3.826 0 2.11-1.72 3.826-3.834 3.826m0-17.217c-7.396 0-13.416 6.007-13.416 13.391 0 1.108.15 2.181.406 3.212.234.94.564 1.839.985 2.69-.807-.51-1.671-.932-2.584-1.263-1.424-.516-2.955-.813-4.557-.813C6.02 17.217 0 23.224 0 30.61 0 37.993 6.02 44 13.417 44c7.396 0 13.416-6.007 13.416-13.391 0-1.108-.15-2.181-.406-3.212-.234-.94-.564-1.839-.985-2.69.807.51 1.671.932 2.584 1.263 1.424.516 2.955.813 4.557.813 5.586 0 10.381-3.427 12.397-8.284.656-1.574 1.02-3.3 1.02-5.108 0-1.808-.364-3.533-1.02-5.108C42.964 3.426 38.17 0 32.583 0M59.417 17.217c-2.114 0-3.834-1.716-3.834-3.826 0-2.11 1.72-3.826 3.834-3.826s3.833 1.716 3.833 3.826c0 2.11-1.72 3.826-3.833 3.826m19.166 17.218c-2.114 0-3.833-1.716-3.833-3.826 0-2.11 1.72-3.826 3.833-3.826 2.114 0 3.834 1.716 3.834 3.826 0 2.11-1.72 3.826-3.834 3.826m0-17.218c-1.602 0-3.133.297-4.558.813-.912.331-1.776.752-2.583 1.263.422-.851.751-1.75.985-2.69.257-1.03.406-2.104.406-3.212C72.833 6.007 66.813 0 59.417 0 53.83 0 49.036 3.426 47.02 8.283c-.656 1.575-1.02 3.3-1.02 5.108 0 1.808.364 3.534 1.02 5.108 2.016 4.857 6.811 8.284 12.397 8.284 1.602 0 3.133-.297 4.557-.813.913-.331 1.777-.752 2.584-1.263-.422.851-.751 1.75-.985 2.69-.257 1.03-.406 2.104-.406 3.212 0 7.384 6.02 13.391 13.416 13.391C85.98 44 92 37.993 92 30.609c0-7.385-6.02-13.392-13.417-13.392M66.174 70.317c-1.041 0-3.102-.139-5.286-.43-4.066-.54-9.125-1.076-14.552-1.076h-.68c-5.388 0-10.42.538-14.462 1.08-2.192.295-4.26.504-5.314.504l-.121-.038c-2.52-.652-3.71-2.712-4.273-4.466-.376-3.99 2.714-7.46 7.422-12.218l.918-.935c.098-.098.193-.203.284-.311 2.163-2.55 4.084-4.86 6.067-7.237l3.286-3.937c1.6-1.873 2.968-2.987 4.271-3.443.112-.042.22-.075.378-.105.939-.183 3.115-.145 3.856-.03.106.022.213.053.421.13.852.298 2.261 1.12 4.158 3.386 2.112 2.493 3.996 4.755 5.932 7.076l3.418 4.094c.096.118.2.227.304.335l.905.916c4.711 4.761 7.802 8.223 7.405 12.24-.51 1.562-1.708 3.893-4.337 4.465m3.589-23.525l-4.083-4.745c-1.951-2.344-3.852-4.621-5.965-7.118-2.655-3.173-5.358-5.206-8.196-6.196-.617-.231-1.248-.404-1.942-.53C48.337 28 47.112 28 46.033 28c-1.107 0-2.361 0-3.655.254-.62.113-1.249.286-1.803.492-3.759 1.312-6.5 4.162-8.26 6.22l-3.29 3.94c-1.955 2.345-3.848 4.618-5.973 7.126l-.798.808c-5.085 5.143-11.416 11.54-10.07 20.801.024.166.058.327.103.489 1.706 6.11 5.942 10.349 11.677 11.641.556.117 1.183.173 1.916.173 1.673 0 3.825-.154 6.55-.521 3.766-.502 8.455-.996 13.225-.996h.68c4.814 0 9.535.492 13.33.994 2.711.362 4.854.579 6.509.579.687 0 1.279-.085 1.911-.208 5.66-1.277 9.894-5.527 11.615-11.635.047-.16.081-.33.106-.493 1.388-9.31-4.948-15.726-10.043-20.872" transform="translate(2 8)"/>
    </g>
</svg>
