<svg xmlns="http://www.w3.org/2000/svg" width="96" height="96" viewBox="0 0 96 96">
    <g fill="#7954D0" fill-rule="evenodd">
        <path d="M6.544 29.455h22.912V6.545H6.544v22.91zM29.456 36H6.544C2.935 36 0 33.064 0 29.455V6.545C0 2.935 2.935 0 6.544 0h22.912C33.062 0 36 2.936 36 6.545v22.91C36 33.065 33.062 36 29.456 36zM48.545 29.455h22.91V6.545h-22.91v22.91zM71.455 36h-22.91C44.935 36 42 33.064 42 29.455V6.545C42 2.935 44.936 0 48.545 0h22.91C75.06 0 78 2.936 78 6.545v22.91C78 33.065 75.061 36 71.455 36zM6.544 71.455h22.912v-22.91H6.544v22.91zM29.456 78H6.544C2.935 78 0 75.064 0 71.455v-22.91C0 44.935 2.935 42 6.544 42h22.912C33.062 42 36 44.936 36 48.545v22.91C36 75.065 33.062 78 29.456 78zM48.545 71.455h22.91v-22.91h-22.91v22.91zM71.455 78h-22.91C44.935 78 42 75.064 42 71.455v-22.91C42 44.935 44.936 42 48.545 42h22.91C75.06 42 78 44.936 78 48.545v22.91C78 75.065 75.061 78 71.455 78z" transform="translate(10 10)"/>
    </g>
</svg>
