<?xml version="1.0" encoding="utf-8"?>
<!-- Generator: Adobe Illustrator 18.1.1, SVG Export Plug-In . SVG Version: 6.00 Build 0)  -->
<svg version="1.1" id="Layer_1" xmlns="http://www.w3.org/2000/svg" xmlns:xlink="http://www.w3.org/1999/xlink" x="0px" y="0px"
	 viewBox="0 0 512 512" enable-background="new 0 0 512 512" xml:space="preserve">
<g>
	<path fill="#9d9ba1" d="M446,96h-40.1H349V46c0-16.5-16.5-30-33-30H196c-16.5,0-33,13.5-33,30v50h-48H66c-11,0-20,9-20,20
		s9,20,20,20h3v264.9c0,50.7,49.4,95.1,97.7,95.1h197.4c41,0,64.8-36.6,64.8-85.1V136h17c11,0,20-9,20-20S457,96,446,96z M203,56
		h106v27H203V56z M389,410.9c0,18.1-1.5,45.1-24.8,45.1H166.7c-26.5,0-57.7-26.3-57.7-55.1V136h280V410.9z"/>
	<path fill="#9d9ba1" d="M169,406c11,0,20-9,20-20V206c0-11-9-20-20-20s-20,9-20,20v180C149,397,158,406,169,406z"/>
	<path fill="#9d9ba1" d="M249,406c11,0,20-9,20-20V206c0-11-9-20-20-20s-20,9-20,20v180C229,397,238,406,249,406z"/>
	<path fill="#9d9ba1" d="M329,406c11,0,20-9,20-20V206c0-11-9-20-20-20s-20,9-20,20v180C309,397,318,406,329,406z"/>
</g>
</svg>
