<?xml version="1.0" encoding="utf-8"?>
<!-- Generator: Adobe Illustrator 18.1.1, SVG Export Plug-In . SVG Version: 6.00 Build 0)  -->
<svg version="1.1" id="Layer_1" xmlns="http://www.w3.org/2000/svg" xmlns:xlink="http://www.w3.org/1999/xlink" x="0px" y="0px"
	 viewBox="0 0 50 50" enable-background="new 0 0 50 50" xml:space="preserve">
<g>
	<path fill="#FFFFFF" d="M48.9,11.8L38.2,1.1c-1.4-1.4-3.9-1.4-5.3,0L3.4,30.5c-0.4,0.4-0.6,0.8-0.7,1.3L0,47
		c-0.1,0.8,0.1,1.6,0.7,2.2C1.2,49.7,1.8,50,2.5,50c0.1,0,0.3,0,0.4,0l15.2-2.7c0.5-0.1,1-0.3,1.3-0.7l29.5-29.5
		c0.7-0.7,1.1-1.7,1.1-2.7S49.6,12.5,48.9,11.8z M16.5,42.5L5.6,44.4l1.9-10.9l18.7-18.7l9,9L16.5,42.5z M38.7,20.3l-9-9l5.8-5.8
		l9,9L38.7,20.3z"/>
</g>
</svg>
