<?xml version="1.0" encoding="utf-8"?>
<!-- Generator: Adobe Illustrator 18.1.1, SVG Export Plug-In . SVG Version: 6.00 Build 0)  -->
<svg version="1.1" id="Layer_1" xmlns="http://www.w3.org/2000/svg" xmlns:xlink="http://www.w3.org/1999/xlink" x="0px" y="0px"
	 viewBox="0 0 512 512" enable-background="new 0 0 512 512" xml:space="preserve">
<path fill="#9d9ba1" d="M416,442.7H96c-14.7,0-26.7-12-26.7-26.7V96c0-14.7,12-26.7,26.7-26.7h320c14.7,0,26.7,12,26.7,26.7v320
	C442.7,430.7,430.7,442.7,416,442.7z M442.7,16H69.3C40,16,16,40,16,69.3v373.3C16,472,40,496,69.3,496h373.3
	c29.3,0,53.3-24,53.3-53.3V69.3C496,40,472,16,442.7,16z"/>
</svg>
