<?xml version="1.0" encoding="utf-8"?>
<!-- Generator: Adobe Illustrator 18.1.1, SVG Export Plug-In . SVG Version: 6.00 Build 0)  -->
<svg version="1.1" id="Layer_1" xmlns="http://www.w3.org/2000/svg" xmlns:xlink="http://www.w3.org/1999/xlink" x="0px" y="0px"
	 viewBox="0 0 48 48" enable-background="new 0 0 48 48" xml:space="preserve">
<path fill="#BDBDBD" d="M24,18c1.6,0,3-1.4,3-3s-1.4-3-3-3c-1.7,0-3,1.4-3,3S22.3,18,24,18z M24,21c-1.7,0-3,1.3-3,3s1.3,3,3,3
	c1.6,0,3-1.3,3-3S25.6,21,24,21z M24,30c-1.7,0-3,1.3-3,3s1.3,3,3,3c1.6,0,3-1.3,3-3S25.6,30,24,30z"/>
</svg>
