<?xml version="1.0" encoding="utf-8"?>
<!-- Generator: Adobe Illustrator 18.1.1, SVG Export Plug-In . SVG Version: 6.00 Build 0)  -->
<svg version="1.1" id="Layer_1" xmlns="http://www.w3.org/2000/svg" xmlns:xlink="http://www.w3.org/1999/xlink" x="0px" y="0px"
	 viewBox="0 0 32 32" enable-background="new 0 0 32 32" xml:space="preserve">
<path fill="#BDBDBD" d="M22.9,2c-2.7,0-5.2,1.2-6.9,3.2C14.3,3.2,11.8,2,9.1,2c-4.7,0-8.4,3.7-8.4,8.4c0,5.8,5.2,10.5,13,17.6l2.2,2
	l2.2-2c7.9-7.1,13-11.8,13-17.6C31.3,5.7,27.6,2,22.9,2z M16.2,25.7L16,25.9l-0.2-0.2C8.6,19.2,3.8,14.8,3.8,10.4
	c0-3.1,2.3-5.3,5.3-5.3c2.3,0,4.6,1.5,5.4,3.6h2.9c0.8-2.1,3.1-3.6,5.4-3.6c3.1,0,5.3,2.3,5.3,5.3C28.2,14.8,23.4,19.2,16.2,25.7z"
	/>
</svg>
