<?xml version="1.0" encoding="utf-8"?>
<!-- Generator: Adobe Illustrator 18.1.1, SVG Export Plug-In . SVG Version: 6.00 Build 0)  -->
<svg version="1.1" id="Capa_1" xmlns="http://www.w3.org/2000/svg" xmlns:xlink="http://www.w3.org/1999/xlink" x="0px" y="0px"
	 viewBox="0 0 50 50" enable-background="new 0 0 50 50" xml:space="preserve">
<g>
	<path fill="#9D9BA1" d="M45.8,41.8l-3.6-4.7V22.7c0-7.1-4.4-13.6-11.1-16.1C30.8,3.5,28.2,1,25,1s-5.7,2.4-6.1,5.5
		C12.1,9,7.6,15.4,7.6,22.7v14.4l-3.4,4.8c-0.4,0.5-0.4,1.2-0.1,1.8s0.9,0.9,1.5,0.9h13.6c0.8,2.6,3.1,4.4,5.9,4.4
		c2.7,0,5.1-1.8,5.9-4.4h13.6c0.7,0,1.3-0.4,1.6-1C46.3,43,46.2,42.3,45.8,41.8z M27,44.6c-0.5,0.6-1.2,0.9-2,0.9s-1.5-0.3-2-0.9H27
		z M10.9,38.3L10.9,38.3h22.3c0.8,0,1.4-0.6,1.4-1.4c0-0.8-0.6-1.4-1.4-1.4H11V22.7c0-7.6,6.2-13.8,13.8-13.8s13.8,6.2,13.8,13.8v15
		c0,0.4,0.1,0.8,0.4,1.1l1.9,2.4h-32l1.8-2.5C10.8,38.5,10.9,38.4,10.9,38.3z M22.9,5.5c0.5-0.6,1.3-1,2.1-1c0.9,0,1.6,0.4,2.1,1.1
		c-0.8-0.1-1.5-0.2-2.3-0.2C24.2,5.4,23.6,5.4,22.9,5.5z"/>
</g>
<circle fill="#FF4D7E" cx="43.8" cy="6.3" r="6.3"/>
</svg>
