<?xml version="1.0" encoding="utf-8"?>
<!-- Generator: Adobe Illustrator 18.1.1, SVG Export Plug-In . SVG Version: 6.00 Build 0)  -->
<svg version="1.1" id="Layer_1" xmlns="http://www.w3.org/2000/svg" xmlns:xlink="http://www.w3.org/1999/xlink" x="0px" y="0px"
	 viewBox="0 0 50 50" enable-background="new 0 0 50 50" xml:space="preserve">
<g>
	<path fill="#FFFFFF" d="M41,39.4c0.1-0.4,0.2-0.8,0.2-1.2c0.1-0.3,0.1-0.6,0.2-0.8c0.1-10.7-3.3-16-6.4-16.8
		c-1.8-0.5-3.3-0.3-4.3,0c-0.8,1.2-1.9,2.5-3.3,3.7c-0.1,0.1-0.3,0.2-0.5,0.2c-0.2,0-0.4-0.1-0.6-0.2c-0.3-0.3-0.3-0.8,0.1-1.1
		c1-0.9,1.8-1.8,2.5-2.7c2.4-4.7,2.1-9.3,0.4-11.8c-1.9-2.8-5.4-2.5-6.1-0.2c-0.7,2.3,0.4,6.9,0.2,9.8c-0.1,1.5-0.5,2.1-0.8,2.1
		c-0.1,0.7-0.3,1.4-0.3,1.7c-0.1,0.4-0.5,0.7-0.9,0.6c-0.4-0.1-0.7-0.5-0.6-0.9c0.1-0.5,0.2-1,0.3-1.5c-7.8-1.9-12.9,7.4-10.7,18
		c0.3,1.6,0.2,2.3-0.2,2.3c0.1,0.4,0.2,0.8,0.3,1.1c0.6,2.6,1.2,5.1,2.4,5.6c0.5,0.2,1.1,0.2,1.7-0.1c1.3-0.6,2.4-2.2,2.7-3
		c0.3-0.9,1.3-1.3,2.5-1.8c1.6-0.6,3.7-1.5,4.4-3.6c0.1-0.4,0.5-0.6,0.9-0.5c0.4,0.1,0.6,0.5,0.5,0.8c0.9,1.6,3.3,2.6,5.2,3.3
		c1.2,0.5,2.2,0.9,2.7,1.4c0.4,0.4,0.8,0.9,1.2,1.5c1.1,1.5,1.9,2.5,3.1,2.2C39.5,46.9,40.4,42.4,41,39.4z"/>
	<path fill="#040000" d="M13.9,9.9c0.1,0,0.2,0,0.3-0.1c0.2-0.2,0.2-0.5,0-0.6c-2.3-2.5-1-5.3-1-5.4c0.1-0.2,0-0.5-0.2-0.6
		c-0.2-0.1-0.5,0-0.6,0.2c-0.1,0.1-1.5,3.4,1.1,6.4C13.7,9.8,13.8,9.9,13.9,9.9z"/>
	<path fill="#040000" d="M13.5,12.3C13.5,12.4,13.5,12.4,13.5,12.3c0.3,0,0.5-0.1,0.5-0.4c0-0.2-0.1-0.5-0.4-0.5
		c-2.6-0.5-3.1-3.9-3.1-4c0-0.2-0.3-0.4-0.5-0.4c-0.2,0-0.4,0.3-0.4,0.5C9.6,7.7,10.1,11.8,13.5,12.3z"/>
	<path fill="#040000" d="M34,8.3C34,8.5,34.3,9,34.5,9c0,0,0,0,0,0c0.3,0,0.4-0.5,0.4-0.8c-0.2-3.4-1.5-4.9-1.6-4.9
		c-0.2-0.2-0.5-0.2-0.6-0.1s-0.2,0.6,0,0.7C32.8,4,33.9,5.3,34,8.3z"/>
	<path fill="#040000" d="M35.6,11.8c0.1,0,0.1,0.1,0.2,0.1c0.2,0,0.3-0.1,0.4-0.2C37.6,9,37,5.8,37,5.6c0-0.2-0.3-0.4-0.5-0.4
		c-0.2,0-0.4,0.3-0.4,0.5c0,0,0.6,3.1-0.6,5.4C35.3,11.5,35.4,11.7,35.6,11.8z"/>
	<path fill="#F5B04F" d="M23.3,18.2c0.1-2.8-0.9-7.5-0.2-9.8c0.7-2.3,4.2-2.7,6.1,0.2c1.7,2.5,2,7.2-0.4,11.8
		c2.1-2.7,3.1-5.4,2.9-8.2c-0.2-3.7-2.5-6.6-4.4-7.9c-2.3-1.6-5.3-2.2-7.4-1.5c-0.8,0.3-1.9,0.8-2.4,2.1c-0.8,2.3,0.7,4.2,2.4,6.2
		c0.6,0.7,1.1,1.4,1.6,2c0.3,0.4,0.5,0.9,0.7,1.4c0,0,0,0,0,0.1c0.7,1.9,0.5,4.1,0.3,5.7C22.9,20.3,23.3,19.8,23.3,18.2z"/>
	<path fill="#F5B04F" d="M10.3,38.3C8,27.7,13.2,18.4,21,20.3c0.3-1.9,0.3-3.5,0-4.7c-1.5-0.1-6.5,0.1-10,4
		c-4.3,4.8-3.8,12.8-2.1,16.9c0.5,1.3,0.9,2.7,1.3,4.1C10.5,40.6,10.6,39.9,10.3,38.3z"/>
	<path fill="#F5B04F" d="M34.9,20.5c3.1,0.8,6.6,6.1,6.4,16.8c0-0.1,0-0.2,0.1-0.3c0.8-3.5,2-8.9-0.7-15c-2.4-5.5-6.4-6.2-7.8-6.3
		c-0.4,1.4-1.1,3-2.2,4.7C31.7,20.2,33.1,20,34.9,20.5z"/>
	<path fill="#040000" d="M42.1,21.5c-2.7-6-7-7-8.9-7.2c0.1-0.8,0.1-1.5,0.1-2.1c-0.3-4.3-2.9-7.6-5-9.1c-2.7-1.9-6.1-2.6-8.8-1.7
		c-1.6,0.5-2.8,1.6-3.3,3C15,7.5,17,10,18.8,12.1c0.6,0.7,1.1,1.3,1.5,1.9c0,0,0,0,0,0c-2.3,0-6.9,0.6-10.5,4.5
		C5,23.8,5.6,32.5,7.4,37c0.6,1.5,1.1,3.3,1.5,5c0.7,3.1,1.4,5.8,3.3,6.6c0.4,0.2,0.9,0.3,1.3,0.3c0.5,0,1.1-0.1,1.6-0.4
		c1.8-0.8,3.1-2.8,3.5-4c0.1-0.2,1.1-0.6,1.7-0.9c1.5-0.6,3.4-1.3,4.6-3.1c1.4,1.5,3.6,2.4,5.4,3.2c1,0.4,1.9,0.8,2.2,1.1
		c0.3,0.3,0.6,0.7,1,1.2c0.9,1.2,2.1,2.9,3.8,2.9c0.3,0,0.6,0,0.9-0.1c2.6-0.8,3.5-5.2,4.3-9.2c0.1-0.4,0.2-0.8,0.2-1.2
		c0.1-0.3,0.2-0.7,0.2-1.1C43.8,33.6,45,28,42.1,21.5z M34.7,45.2c-0.4-0.6-0.8-1.1-1.2-1.5c-0.5-0.5-1.5-0.9-2.7-1.4
		c-1.9-0.8-4.3-1.7-5.2-3.3c0.1-0.4-0.1-0.7-0.5-0.8c-0.4-0.1-0.8,0.1-0.9,0.5c-0.7,2.2-2.7,3-4.4,3.6c-1.2,0.5-2.3,0.9-2.5,1.8
		c-0.3,0.9-1.4,2.4-2.7,3c-0.6,0.3-1.2,0.3-1.7,0.1c-1.2-0.5-1.8-3-2.4-5.6c-0.1-0.4-0.2-0.8-0.3-1.1c-0.3-1.4-0.7-2.8-1.3-4.1
		c-1.7-4.1-2.2-12.1,2.1-16.9c3.5-3.9,8.5-4.1,10-4c0.3,1.3,0.3,2.8,0,4.7c-0.1,0.5-0.2,1-0.3,1.5c-0.1,0.4,0.2,0.8,0.6,0.9
		c0.4,0.1,0.8-0.2,0.9-0.6c0.1-0.4,0.2-1,0.3-1.7c0.3-1.6,0.4-3.8-0.3-5.7c0,0,0,0,0-0.1c-0.2-0.5-0.4-1-0.7-1.4
		c-0.4-0.7-1-1.3-1.6-2c-1.7-2-3.3-3.9-2.4-6.2c0.5-1.3,1.5-1.9,2.4-2.1c2.2-0.7,5.2-0.1,7.4,1.5c1.9,1.3,4.2,4.2,4.4,7.9
		c0.2,2.7-0.8,5.5-2.9,8.2c-0.7,0.9-1.5,1.8-2.5,2.7c-0.3,0.3-0.3,0.8-0.1,1.1c0.1,0.2,0.4,0.2,0.6,0.2c0.2,0,0.4-0.1,0.5-0.2
		c1.4-1.3,2.5-2.5,3.3-3.7c1.2-1.7,1.9-3.3,2.2-4.7c1.4,0.1,5.4,0.8,7.8,6.3c2.7,6.1,1.5,11.4,0.7,15c0,0.1,0,0.2-0.1,0.3
		c-0.1,0.3-0.1,0.6-0.2,0.8C41.1,38.5,41,39,41,39.4c-0.6,3-1.5,7.5-3.2,8C36.6,47.8,35.8,46.8,34.7,45.2z"/>
</g>
</svg>
