<?xml version="1.0" encoding="utf-8"?>
<!-- Generator: Adobe Illustrator 18.1.1, SVG Export Plug-In . SVG Version: 6.00 Build 0)  -->
<svg version="1.1" id="Layer_1" xmlns="http://www.w3.org/2000/svg" xmlns:xlink="http://www.w3.org/1999/xlink" x="0px" y="0px"
	 viewBox="0 0 50 50" enable-background="new 0 0 50 50" xml:space="preserve">
<g>
	<path fill="#727075" d="M27.9,49c-0.4,0-0.9-0.2-1.2-0.5L1.5,23.3C1.2,23,1,22.5,1,22.1L1.3,3c0-0.9,0.7-1.6,1.7-1.7L22.1,1
		c0.5,0,0.9,0.2,1.2,0.5l25.2,25.2c0.7,0.7,0.7,1.7,0,2.4L29.1,48.5C28.8,48.8,28.3,49,27.9,49z M4.4,21.4l23.5,23.5l17.1-17.1
		L21.4,4.4L4.7,4.7L4.4,21.4z"/>
	<g>
		<path fill="#727075" d="M35.5,26.8L35.5,26.8l-18,0c-0.7,0-1.2-0.5-1.2-1.2s0.5-1.2,1.2-1.2l0,0l18,0c0.7,0,1.2,0.5,1.2,1.2
			S36.1,26.8,35.5,26.8z"/>
		<g>
			<path fill="#727075" d="M25.3,30.4c-0.7,0.7-0.7,1.9,0,2.7c0.4,0.4,0.8,0.6,1.3,0.6c0.5,0,1-0.2,1.3-0.6c0.4-0.4,0.6-0.8,0.6-1.3
				c0-0.5-0.2-1-0.6-1.3C27.3,29.6,26.1,29.6,25.3,30.4z"/>
			<path fill="#727075" d="M26.7,21.1c0.5,0,1-0.2,1.3-0.6c0.4-0.4,0.6-0.8,0.6-1.3c0-0.5-0.2-1-0.6-1.3c-0.7-0.7-2-0.7-2.7,0
				c-0.7,0.7-0.7,1.9,0,2.7C25.7,20.9,26.2,21.1,26.7,21.1z"/>
		</g>
	</g>
	<path fill="#727075" d="M11.7,16.4c-1.3,0-2.5-0.5-3.3-1.4C7.5,14.2,7,13,7,11.7c0-1.3,0.5-2.5,1.4-3.3C9.2,7.5,10.4,7,11.7,7
		s2.5,0.5,3.3,1.4c1.8,1.8,1.8,4.9,0,6.7C14.2,15.9,13,16.4,11.7,16.4z M11.7,9.4c-0.6,0-1.2,0.2-1.6,0.7c-0.4,0.4-0.7,1-0.7,1.7
		c0,0.6,0.2,1.2,0.7,1.7c0.9,0.9,2.4,0.9,3.3,0c0.9-0.9,0.9-2.4,0-3.3C12.9,9.6,12.3,9.4,11.7,9.4z"/>
</g>
</svg>
