<?xml version="1.0" encoding="utf-8"?>
<!-- Generator: Adobe Illustrator 18.1.1, SVG Export Plug-In . SVG Version: 6.00 Build 0)  -->
<svg version="1.1" id="Layer_1" xmlns="http://www.w3.org/2000/svg" xmlns:xlink="http://www.w3.org/1999/xlink" x="0px" y="0px"
	 viewBox="0 0 512 512" enable-background="new 0 0 512 512" xml:space="preserve">
<g>
	<path fill="#747474" d="M468.2,97H444V36.9c0-11.5-9-20.9-20.5-20.9S403,25.3,403,36.9V97h-18.3c-11.5,0-24.7,11.8-24.7,23.3v125.2
		c0,11.5,13.2,18.4,24.7,18.4H403v211.1c0,11.5,9,20.9,20.5,20.9s20.5-9.3,20.5-20.9V264h24.2c11.5,0,16.8-6.9,16.8-18.4V120.3
		C485,108.8,479.7,97,468.2,97z M444,222h-41v-84h41V222z"/>
	<path fill="#747474" d="M301.2,243H277V36.9c0-11.5-9.5-20.9-21-20.9c-11.5,0-21,9.3-21,20.9V243h-17.3
		c-11.5,0-24.7,11.9-24.7,23.4v125.2c0,11.5,13.2,17.3,24.7,17.3H235v66.1c0,11.5,9.5,20.9,21,20.9c11.5,0,21-9.3,21-20.9V409h24.2
		c11.5,0,17.8-5.8,17.8-17.3V266.4C319,254.9,312.7,243,301.2,243z M277,368h-42v-83h42V368z"/>
	<path fill="#747474" d="M134.3,97H109V36.9c0-11.5-9-20.9-20.5-20.9S68,25.3,68,36.9V97H50.8C39.3,97,27,108.8,27,120.3v125.2
		c0,11.5,12.3,18.4,23.8,18.4H68v211.1c0,11.5,9,20.9,20.5,20.9s20.5-9.3,20.5-20.9V264h25.3c11.5,0,17.7-6.9,17.7-18.4V120.3
		C152,108.8,145.8,97,134.3,97z M109,222H68v-84h41V222z"/>
</g>
</svg>
