<?xml version="1.0" encoding="utf-8"?>
<!-- Generator: Adobe Illustrator 18.1.1, SVG Export Plug-In . SVG Version: 6.00 Build 0)  -->
<svg version="1.1" id="Layer_1" xmlns="http://www.w3.org/2000/svg" xmlns:xlink="http://www.w3.org/1999/xlink" x="0px" y="0px"
	 viewBox="0 0 50 50" enable-background="new 0 0 50 50" xml:space="preserve">
<path fill="#9E9E9E" d="M46.3,43.1c-3.8-14.2-9-27-15.7-39.2c-0.7-1.2-2-2-3.4-2.1c-1.4,0-2.8,0.7-3.5,1.9
	C16.3,15.9,10.2,27.7,3.9,42c-0.9,2,0,4.4,2.1,5.3c2,0.9,4.4,0,5.3-2.1c1.9-4.4,3.8-8.6,5.8-12.6c0,0,0,0,0,0
	c3.1,0.7,6.3,1.1,9.5,1.1c2.8,0,5.5-0.3,8.2-0.8c1.4,4,2.6,8,3.8,12.2c0.5,1.8,2.1,3,3.9,3c0.3,0,0.7,0,1-0.1
	C45.6,47.4,46.9,45.2,46.3,43.1z M20.7,25.3c2-3.8,4-7.5,6.1-11.2c1.8,3.7,3.5,7.4,5.1,11.3C28.2,25.9,24.4,25.9,20.7,25.3z"/>
</svg>
