<?xml version="1.0" encoding="utf-8"?>
<!-- Generator: Adobe Illustrator 18.1.1, SVG Export Plug-In . SVG Version: 6.00 Build 0)  -->
<svg version="1.1" id="Layer_1" xmlns="http://www.w3.org/2000/svg" xmlns:xlink="http://www.w3.org/1999/xlink" x="0px" y="0px"
	 viewBox="0 0 512 512" enable-background="new 0 0 512 512" xml:space="preserve">
<path fill="#7953d0" d="M441.7,15H68.3C39,15,15,39,15,68.3v373.3C15,471,39,495,68.3,495h373.3c29.3,0,53.3-24,53.3-53.3V68.3
	C495,39,471,15,441.7,15z M220.6,369.4c-10.4,10.4-27.2,10.4-37.6,0l-95.7-95.7c-10.4-10.4-10.4-27.2,0-37.6s27.2-10.4,37.6,0
	l76.8,76.8l183.5-183.5c10.4-10.4,27.2-10.4,37.6,0c10.4,10.4,10.4,27.2,0,37.6L220.6,369.4z"/>
</svg>
