<?xml version="1.0" encoding="utf-8"?>
<!-- Generator: Adobe Illustrator 18.1.1, SVG Export Plug-In . SVG Version: 6.00 Build 0)  -->
<svg version="1.1" id="Layer_1" xmlns="http://www.w3.org/2000/svg" xmlns:xlink="http://www.w3.org/1999/xlink" x="0px" y="0px"
	 viewBox="0 0 48 48" enable-background="new 0 0 48 48" xml:space="preserve">
<g>
	<g>
		<path fill="#9C9C9C" d="M26.9,40c-3.1,0-6.2-1.6-9.3-4.8c-4-4.1-6.4-8.3-8-11.4c-1.8-3.5-2.2-6.7-1.2-9.5c1.5-4.2,5.5-5.9,5.7-6
			c0.5-0.2,1.2-0.1,1.5,0.4l5.1,6.8c0.4,0.5,0.3,1.2-0.1,1.7L17.8,20c0.7,2.1,3,8.6,7.8,10l3.1-2.6c0.3-0.2,0.6-0.3,0.9-0.3
			c0.3,0,0.7,0.2,0.9,0.5l5,5.9c0.4,0.4,0.4,1,0.1,1.5C35.4,35.2,32.2,40,26.9,40z M14.2,11.2c-1,0.6-2.7,2-3.4,4
			c-0.8,2.1-0.4,4.6,1.1,7.4c1.6,3,3.8,6.9,7.6,10.8c2.6,2.7,5.1,4,7.4,4c2.9,0,5-2,5.9-3.1l-3.5-4.2l-2.6,2.2
			c-0.3,0.3-0.7,0.4-1.1,0.3C18,31.1,15.2,20.4,15.1,20c-0.1-0.4,0-0.9,0.3-1.2l2.6-2.6L14.2,11.2z"/>
	</g>
	<g>
		<path fill="#9C9C9C" d="M35.1,23.5C35.1,23.5,35.1,23.5,35.1,23.5c-0.7,0-1.3-0.6-1.3-1.3c0-1.9-0.6-3.7-1.7-5.1
			c-1.1-1.4-2.6-2.4-4.3-3c-0.7-0.2-1.1-0.9-0.9-1.6c0.2-0.7,0.9-1.1,1.6-0.9c2.2,0.7,4.2,2,5.6,3.9c1.5,1.9,2.2,4.2,2.2,6.7
			C36.4,22.9,35.8,23.5,35.1,23.5z"/>
		<path fill="#9C9C9C" d="M31.4,23.6c-0.7,0-1.3-0.5-1.3-1.2c0-1.1-0.4-2.1-1.1-3c-0.6-0.8-1.4-1.4-2.4-1.7c-0.7-0.2-1-1-0.8-1.6
			c0.2-0.7,1-1,1.6-0.8c1.4,0.5,2.6,1.4,3.5,2.6c1,1.3,1.5,2.8,1.6,4.4C32.7,23,32.1,23.6,31.4,23.6C31.4,23.6,31.4,23.6,31.4,23.6z
			"/>
		<path fill="#9C9C9C" d="M38.9,23.3C38.9,23.3,38.8,23.3,38.9,23.3c-0.7,0-1.3-0.6-1.3-1.3c0.1-2.7-0.8-5.2-2.4-7.3
			c-1.6-2.1-3.7-3.5-6.2-4.2c-0.7-0.2-1.1-0.9-0.9-1.6C28.3,8.3,29,7.9,29.7,8c3,0.8,5.7,2.6,7.6,5.1c2,2.6,3,5.7,2.9,8.9
			C40.1,22.8,39.6,23.3,38.9,23.3z"/>
		<path fill="#9C9C9C" d="M35.1,23.5C35.1,23.5,35.1,23.5,35.1,23.5c-0.7,0-1.3-0.6-1.3-1.3c0-1.9-0.6-3.7-1.7-5.1
			c-1.1-1.4-2.6-2.4-4.3-3c-0.7-0.2-1.1-0.9-0.9-1.6c0.2-0.7,0.9-1.1,1.6-0.9c2.2,0.7,4.2,2,5.6,3.9c1.5,1.9,2.2,4.2,2.2,6.7
			C36.4,22.9,35.8,23.5,35.1,23.5z"/>
	</g>
</g>
</svg>
