<?xml version="1.0" encoding="utf-8"?>
<!-- Generator: Adobe Illustrator 18.1.1, SVG Export Plug-In . SVG Version: 6.00 Build 0)  -->
<svg version="1.1" id="Layer_1" xmlns="http://www.w3.org/2000/svg" xmlns:xlink="http://www.w3.org/1999/xlink" x="0px" y="0px"
	 viewBox="0 0 50 50" enable-background="new 0 0 50 50" xml:space="preserve">
<rect fill="#F3F1F6" width="50" height="50"/>
<g>
	<g>
		<path fill="#D4CAED" d="M36.8,13.1c-0.8,0-1.4-0.6-1.4-1.4s0.6-1.4,1.4-1.4c0.8,0,1.4,0.6,1.4,1.4S37.6,13.1,36.8,13.1z"/>
		<path fill="#D4CAED" d="M40,16.8c-1,0-1.8-0.8-1.8-1.8s0.8-1.8,1.8-1.8s1.8,0.8,1.8,1.8S41,16.8,40,16.8z"/>
	</g>
	<g>
		<path fill="#FFFFFF" stroke="#9D9BA1" stroke-width="0.5" stroke-miterlimit="10" d="M29.7,10h-8c-0.8,0-1.5,0.7-1.5,1.5
			c0,0.8,0.7,1.5,1.5,1.5h0.5v1h-0.5c-0.3,0-0.5,0.2-0.5,0.5v3c0,0.3,0.2,0.5,0.5,0.5v0.3c0,0.6-0.3,1.1-0.8,1.3l-0.1,0.1
			c-1.9,0.9-3,2.8-3,4.9v11.9c0,1.9,1.6,3.5,3.5,3.5h6c1.9,0,3.5-1.6,3.5-3.5V24.6c0-2.1-1.2-4-3-4.9l-0.1-0.1
			c-0.5-0.3-0.8-0.8-0.8-1.3V18c0.3,0,0.5-0.2,0.5-0.5v-3c0-0.3-0.2-0.5-0.5-0.5h-0.5v-1h3.5c0.3,0,0.5,0.2,0.5,0.5v1
			c0,0.3,0.2,0.5,0.5,0.5h2c0.3,0,0.5-0.2,0.5-0.5v-1C33.2,11.6,31.6,10,29.7,10z"/>
	</g>
	<rect x="21.7" y="14.4" fill="#D4CAED" width="4.9" height="3.1"/>
	<path fill="#D4CAED" d="M24.1,35.1L24.1,35.1c-1.7,0-3.1-1.4-3.1-3.1v-4c0-1.7,1.4-3.1,3.1-3.1h0c1.7,0,3.1,1.4,3.1,3.1v4
		C27.2,33.7,25.8,35.1,24.1,35.1z"/>
	<g>
		<path fill="#9D9BA1" d="M24.2,35.5c-1.9,0-3.5-1.6-3.5-3.5v-4c0-1.9,1.6-3.5,3.5-3.5c1.9,0,3.5,1.6,3.5,3.5v4
			C27.7,33.9,26.1,35.5,24.2,35.5z M24.2,25.5c-1.4,0-2.5,1.1-2.5,2.5v4c0,1.4,1.1,2.5,2.5,2.5c1.4,0,2.5-1.1,2.5-2.5v-4
			C26.7,26.6,25.5,25.5,24.2,25.5z"/>
		<path fill="#9D9BA1" d="M29.7,10h-8c-0.8,0-1.5,0.7-1.5,1.5s0.7,1.5,1.5,1.5h0.5v1h-0.5c-0.3,0-0.5,0.2-0.5,0.5v3
			c0,0.3,0.2,0.5,0.5,0.5v0.3c0,0.6-0.3,1.1-0.8,1.3l-0.1,0.1c-1.9,0.9-3,2.8-3,4.9v11.9c0,1.9,1.6,3.5,3.5,3.5h6
			c1.9,0,3.5-1.6,3.5-3.5V24.6c0-2.1-1.2-4-3-4.9l-0.1-0.1c-0.5-0.3-0.8-0.8-0.8-1.3V18c0.3,0,0.5-0.2,0.5-0.5v-3
			c0-0.3-0.2-0.5-0.5-0.5h-0.5v-1h3.5c0.3,0,0.5,0.2,0.5,0.5v1c0,0.3,0.2,0.5,0.5,0.5h2c0.3,0,0.5-0.2,0.5-0.5v-1
			C33.2,11.6,31.6,10,29.7,10z M22.2,15h4v2h-4V15z M27.1,20.5l0.1,0.1c1.5,0.8,2.5,2.3,2.5,4v11.9c0,1.4-1.1,2.5-2.5,2.5h-6
			c-1.4,0-2.5-1.1-2.5-2.5V24.6c0-1.7,1-3.3,2.5-4l0.1-0.1c0.8-0.4,1.4-1.3,1.4-2.2V18h3v0.3C25.7,19.2,26.2,20.1,27.1,20.5z
			 M25.2,14h-2v-1h2V14z M32.2,14h-1v-0.5c0-0.8-0.7-1.5-1.5-1.5h-8c-0.3,0-0.5-0.2-0.5-0.5s0.2-0.5,0.5-0.5h8
			c1.4,0,2.5,1.1,2.5,2.5V14z"/>
	</g>
</g>
</svg>
