<?xml version="1.0" encoding="utf-8"?>
<!-- Generator: Adobe Illustrator 18.1.1, SVG Export Plug-In . SVG Version: 6.00 Build 0)  -->
<svg version="1.1" id="Layer_1" xmlns="http://www.w3.org/2000/svg" xmlns:xlink="http://www.w3.org/1999/xlink" x="0px" y="0px"
	 viewBox="0 0 24 24" enable-background="new 0 0 24 24" xml:space="preserve">
<rect fill="#F3F1F6" width="24" height="24"/>
<polygon fill="#D4CAED" points="6.2,11.5 7.1,11.1 9.1,7.7 14.9,7.7 17.1,11.2 17.8,11.9 17.8,13.8 17,14.4 14.9,17.7 9.1,17.7 
	6.8,14.2 6,13.7 "/>
<polygon fill="#FFFFFF" points="8.7,12.4 10.3,10 13.6,10 15.2,12.8 13.5,15.7 10.3,15.7 "/>
<g>
	<g>
		<path fill="#9D9BA1" d="M17.1,10.9l-1.6-2.7c-0.3-0.5-0.9-0.9-1.5-0.9h-0.2V7.1c0-0.6-0.5-1.1-1.1-1.1h-1.4
			c-0.6,0-1.1,0.5-1.1,1.1v0.3H10c-0.6,0-1.2,0.3-1.5,0.9l-1.6,2.7C6.4,11,6,11.5,6,12v1.4c0,0.5,0.4,0.9,0.9,1.1l1.6,2.7
			C8.9,17.7,9.5,18,10,18h4c0.6,0,1.2-0.3,1.5-0.9l1.6-2.7c0.5-0.1,0.9-0.5,0.9-1.1V12C18,11.5,17.6,11.1,17.1,10.9z M10.9,7.1
			c0-0.2,0.1-0.3,0.3-0.3h1.4c0.2,0,0.3,0.1,0.3,0.3v0.3h-2.1L10.9,7.1L10.9,7.1z M17.3,13.4c0,0.2-0.1,0.3-0.3,0.3
			c-0.1,0-0.2,0-0.3,0.2l-1.7,2.9c-0.2,0.3-0.5,0.5-0.9,0.5h-4c-0.4,0-0.7-0.2-0.9-0.5l-1.7-2.9c0-0.1-0.2-0.2-0.3-0.2
			c-0.2,0-0.3-0.1-0.3-0.3V13h1.8l1.6,2.6c0,0.1,0.2,0.2,0.3,0.2h3.2c0.1,0,0.2,0,0.3-0.2l1.6-2.6h1.8V13.4z M10.2,13.1v1.5
			l-0.9-1.5H10.2z M9.3,12.3l0.9-1.5v1.5H9.3z M11.7,13.1v2.1h-0.7v-2.1H11.7z M10.9,12.3v-2.1h0.7v2.1H10.9z M13.1,13.1v2.1h-0.7
			v-2.1H13.1z M12.3,12.3v-2.1h0.7v2.1H12.3z M14.7,13.1l-0.9,1.5v-1.5H14.7z M13.8,12.3v-1.5l0.9,1.5H13.8z M17.3,12.3h-1.8
			l-1.6-2.6c0-0.1-0.2-0.2-0.3-0.2h-3.2c-0.1,0-0.2,0-0.3,0.2l-1.6,2.6H6.7V12c0-0.2,0.1-0.3,0.3-0.3c0.1,0,0.2,0,0.3-0.2l1.7-2.9
			C9.3,8.3,9.6,8.1,10,8.1c0.1,0,3.9,0,4,0c0.4,0,0.7,0.2,0.9,0.5l1.7,2.9c0,0.1,0.2,0.2,0.3,0.2c0.2,0,0.3,0.1,0.3,0.3
			C17.3,12,17.3,12.3,17.3,12.3z"/>
	</g>
</g>
</svg>
