<?xml version="1.0" encoding="utf-8"?>
<!-- Generator: Adobe Illustrator 18.1.1, SVG Export Plug-In . SVG Version: 6.00 Build 0)  -->
<svg version="1.1" id="Layer_1" xmlns="http://www.w3.org/2000/svg" xmlns:xlink="http://www.w3.org/1999/xlink" x="0px" y="0px"
	 viewBox="128 0 144 144" enable-background="new 128 0 144 144" xml:space="preserve">
<g>
	<path fill="#7953d0" d="M200.4,45.6c-12.9,0-23.7,10.8-23.7,23.7S187.5,93,200.4,93c12.9,0,23.7-10.8,23.7-23.7
		S213.8,45.6,200.4,45.6z M200.4,81.2c-6.5,0-11.8-5.4-11.8-11.8c0-6.5,5.4-11.8,11.8-11.8s11.8,5.4,11.8,11.8
		C212.2,75.8,206.8,81.2,200.4,81.2z"/>
	<path fill="#7953d0" d="M265,44.5c0.5-2.2,0-4.8-1.6-6.5l-14-19.4c-1.6-2.2-4.3-3.8-7.5-3.8c-1.6,0-3.8,0.5-4.8,1.6l-5.9,4.3
		c-2.7-2.7-9.7-4.3-9.7-5.9V9.5c0-1.1-1.6-7.5-11.8-7.5h-23.7c-2.2,0-4.3,0.5-5.4,2.2c-2.2,2.2-2.2,4.8-2.2,6.5v4.8
		c0,1.6-6.5,3.2-9.7,5.4l-6.5-4.8c-3.8-2.7-9.2-1.6-12.4,2.2l-13.5,19.9c-2.7,3.8-1.6,9.7,2.2,12.4l7,4.8c-1.1,4.3-1.6,8.6-1.6,12.9
		c0,4.8,0.5,9.2,1.6,13.5l-5.9,4.3c-2.2,1.6-3.2,3.2-3.8,5.9c-0.5,2.2,0,4.8,1.6,6.5l14,19.4c2.7,3.8,8.6,4.8,12.4,2.2l5.4-3.8
		c2.7,1.1,9.2,2.7,9.2,4.3v7c0,2.2,3.2,14.5,10.2,14.5h23.7c3.8,0,8.6-3.2,8.6-14.5v-7c0-1.6,7-3.2,10.2-5.4l4.8,3.8
		c1.6,1.1,3.2,1.6,4.8,1.6c3.2,0,5.9-1.6,7.5-3.8l13.5-19.4c2.7-4.3,1.6-9.7-2.2-12.4l-4.8-3.2c1.1-4.3,1.6-8.6,1.6-13.5
		c0-4.3-0.5-9.2-1.6-13.5l5.9-4.3C263.4,48.8,264.5,46.7,265,44.5z M243.5,53.7c1.6,4.3,2.2,9.2,2.2,14s-0.5,9.2-2.2,14l-1.6,4.3
		l9.7,6.5L241.3,107l-10.2-7l-3.2,2.7c-3.8,3.2-10.8,5.9-16.2,7.5l-5.9,1.1v15.6c0,0.5,3.2-1.6,3.2-1.6h-17.2
		c-0.5,0,3.2,2.2,3.2,1.6v-15.6l-5.4-1.1c-4.3-1.6-9.2-3.2-14.5-7l-4.3-2.7l-10.2,7.5l-10.2-14.5l10.2-7.5l-1.6-4.3
		c-1.1-4.3-2.2-9.2-2.2-14s0.5-9.2,2.2-13.5l1.6-3.8l-11.3-8.1l10.2-14.5l10.8,8.1l3.8-2.7c4.8-3.8,11.3-5.9,16.2-7.5l5.4-1.6V12.8
		h10.8v11.3l5.9,1.1c5.4,1.6,11.3,4.3,15.6,7.5l3.8,2.7l11.3-7.5l10.8,14.5l-10.2,7.5V53.7z"/>
</g>
</svg>
