<?xml version="1.0" encoding="utf-8"?>
<!-- Generator: Adobe Illustrator 18.1.1, SVG Export Plug-In . SVG Version: 6.00 Build 0)  -->
<svg version="1.1" id="Layer_1" xmlns="http://www.w3.org/2000/svg" xmlns:xlink="http://www.w3.org/1999/xlink" x="0px" y="0px"
	 viewBox="0 0 50 50" enable-background="new 0 0 50 50" xml:space="preserve">
<rect fill="#F3F1F6" width="50" height="50"/>
<g>
	<g>
		<path fill="#FFFFFF" d="M36.8,23.4L26.6,13.1c-0.9-0.9-2.3-0.9-3.1,0L13.2,23.4c-1.1,1.1-0.8,3,0.7,3.6c0.5,0.2,1.1,0.2,1.6,0v9.7
			c0,0.4,0.3,0.7,0.7,0.7h17.6c0.4,0,0.7-0.3,0.7-0.7v-9.7c0.5,0.2,1.1,0.2,1.6,0C37.6,26.4,38,24.5,36.8,23.4L36.8,23.4z"/>
	</g>
	<polygon fill="#D4CAED" points="13.1,24.4 24.8,12.8 36.7,24.7 35.3,26.4 25.3,16.5 15.3,26.5 13.5,26 	"/>
	<path fill="#D4CAED" d="M29,36.3H21v-7c1.1-0.6,2.5-1,4-1s2.9,0.4,4,1V36.3z"/>
	<g>
		<path fill="#9D9BA1" d="M36.8,23.4L26.6,13.1c-0.9-0.9-2.3-0.9-3.1,0L13.2,23.4c-1.1,1.1-0.8,3,0.7,3.6c0.5,0.2,1.1,0.2,1.6,0v9.7
			c0,0.4,0.3,0.7,0.7,0.7h17.6c0.4,0,0.7-0.3,0.7-0.7v-9.7c0.5,0.2,1.1,0.2,1.6,0C37.6,26.4,38,24.5,36.8,23.4L36.8,23.4z M28.7,36
			h-7.3v-6.5c1-0.6,2.3-0.9,3.7-0.9c1.4,0,2.7,0.3,3.7,0.9V36z M30.1,36v-6.9c0-0.2-0.1-0.5-0.3-0.6c-1.2-0.9-3-1.4-4.8-1.4
			c-1.8,0-3.6,0.5-4.8,1.4c-0.2,0.1-0.3,0.4-0.3,0.6V36h-2.9V25.9l8.1-8.1l8.1,8.1V36H30.1z M35.6,25.7c-0.1,0-0.5,0.2-0.8-0.2
			c0,0-9.3-9.3-9.3-9.3c-0.3-0.3-0.7-0.3-1,0c-0.4,0.4-9.3,9.3-9.3,9.3c-0.3,0.3-0.7,0.2-0.8,0.2c-0.5-0.2-0.6-0.9-0.2-1.2
			c0,0,10.3-10.3,10.3-10.3c0.3-0.3,0.8-0.3,1,0c0,0,10.3,10.3,10.3,10.3C36.2,24.8,36.1,25.5,35.6,25.7L35.6,25.7z"/>
		<path fill="#9D9BA1" d="M26.5,24.2h-2.9c-0.4,0-0.7,0.3-0.7,0.7c0,0.4,0.3,0.7,0.7,0.7h2.9c0.4,0,0.7-0.3,0.7-0.7
			C27.2,24.5,26.9,24.2,26.5,24.2z"/>
	</g>
</g>
</svg>
