<?xml version="1.0" encoding="utf-8"?>
<!-- Generator: Adobe Illustrator 18.1.1, SVG Export Plug-In . SVG Version: 6.00 Build 0)  -->
<svg version="1.1" id="Layer_1" xmlns="http://www.w3.org/2000/svg" xmlns:xlink="http://www.w3.org/1999/xlink" x="0px" y="0px"
	 viewBox="0 0 50 50" enable-background="new 0 0 50 50" xml:space="preserve">
<path fill="#BDBDBD" d="M48.7,15.8L43,4.1C42.7,3.4,42,3,41.2,3H8.8C8.1,3,7.4,3.4,7,4.1L1.3,15.3c-0.2,0.4-0.2,1.6-0.2,1.8
	c0,3.5,1.9,6.5,5.9,7.2v21c0,1,0.8,1.8,1.8,1.8h31.8c1.4,0,2.5-1.1,2.5-2.5V24.2c2.9-0.7,5.8-3.6,5.8-7.2
	C48.9,16.9,48.9,16.1,48.7,15.8z M39,43h-7v-9.3c0-1.5-1.1-2.7-2.5-2.7h-9C19,31,18,32.2,18,33.7V43h-7V24c0-0.4,2.3-1.2,3.2-2.2
	c1.3,1.5,3.2,2.5,5.4,2.5c2.2,0,4.1-1,5.5-2.5c1.3,1.5,3.3,2.5,5.5,2.5c2.2,0,4-1,5.3-2.5c0.9,1,1.1,1.8,3.1,2.2V43z"/>
</svg>
