<?xml version="1.0" encoding="utf-8"?>
<!-- Generator: Adobe Illustrator 18.1.1, SVG Export Plug-In . SVG Version: 6.00 Build 0)  -->
<svg version="1.1" id="Layer_1" xmlns="http://www.w3.org/2000/svg" xmlns:xlink="http://www.w3.org/1999/xlink" x="0px" y="0px"
	 viewBox="0 0 40 40" enable-background="new 0 0 40 40" xml:space="preserve">
<g>
	<path fill="none" d="M29.5,17.3c0-6.4-5.2-11.5-11.7-11.5S6.1,10.9,6.1,17.3s5.2,11.5,11.7,11.5S29.5,23.7,29.5,17.3z"/>
	<path fill="#9d9ba1" d="M36.7,35.7l-8-8.3c2.5-2.7,4.1-6.2,4.1-10.1c0-8.2-6.7-14.8-15-14.8s-15,6.6-15,14.8s6.7,14.8,15,14.8
		c3.1,0,6-0.9,8.4-2.6l8.2,8.4c0.3,0.3,0.7,0.5,1.2,0.5c0.4,0,0.8-0.2,1.1-0.5C37.4,37.4,37.4,36.4,36.7,35.7z M6.1,17.3
		c0-6.4,5.2-11.5,11.7-11.5s11.7,5.2,11.7,11.5s-5.2,11.5-11.7,11.5S6.1,23.7,6.1,17.3z"/>
</g>
</svg>
