<?xml version="1.0" encoding="utf-8"?>
<!-- Generator: Adobe Illustrator 18.1.1, SVG Export Plug-In . SVG Version: 6.00 Build 0)  -->
<svg version="1.1" id="Layer_1" xmlns="http://www.w3.org/2000/svg" xmlns:xlink="http://www.w3.org/1999/xlink" x="0px" y="0px"
	 viewBox="0 0 50 50" enable-background="new 0 0 50 50" xml:space="preserve">
<path fill="#7953D0" d="M42.9,23.7L24.3,42.2c-3.8,3.7-9.6,4.2-13.5,1C6.2,39.5,6,32.7,10.1,28.7L31.8,6.8c2.3-2.3,6-2.7,8.5-0.6
	c2.9,2.3,3.1,6.7,0.4,9.2L22.4,33.7c-1,1-2.5,1-3.5,0c-1-1-1-2.5,0-3.5L34.1,15c0.6-0.6,0.6-1.9,0-2.7c-0.6-0.8-1.9-0.6-2.7,0
	l-14.8,15c-2.3,2.3-2.7,6-0.6,8.5c2.3,2.9,6.7,3.1,9.2,0.4l18.1-18.1c3.8-3.7,4.2-9.6,1-13.5c-4.2-4.4-10.8-4.6-15-0.6L7.9,25.4
	c-5,5-5.8,13.1-1.3,18.5c5.2,6.3,14.6,6.7,20.2,1l18.8-18.8c0.6-0.6,0.6-1.9,0-2.7S43.7,22.9,42.9,23.7z"/>
</svg>
