<?xml version="1.0" encoding="utf-8"?>
<!-- Generator: Adobe Illustrator 18.1.1, SVG Export Plug-In . SVG Version: 6.00 Build 0)  -->
<svg version="1.1" id="Layer_1" xmlns="http://www.w3.org/2000/svg" xmlns:xlink="http://www.w3.org/1999/xlink" x="0px" y="0px"
	 viewBox="0 0 50 50" enable-background="new 0 0 50 50" xml:space="preserve">
<path fill="#7953D0" d="M45,39.4c-1.1-1-2.2-1.9-3.4-2.9c2.2-4.7,2-8.5,1.8-12.5c0-0.5-0.1-1.1-0.1-1.6c-0.2-4.5-1-10.9-5.5-15.4
	c-4.2-4.2-10.4-6.4-16.1-5.9C15.1,1.7,6.8,4.6,4.7,14.5c-1.5,7.1-1.3,13.2,0.8,19c2.6,7.2,8.1,11.2,12.7,13.9C20,48.5,22,49,24.4,49
	c0.5,0,1,0,1.5-0.1c4.8-0.3,8.2-3.2,9.7-4.4c0.6-0.5,1.1-1,1.7-1.6c0.9,0.7,1.8,1.5,2.7,2.3c0.7,0.6,1.6,1,2.5,1
	c1.1,0,2.1-0.4,2.9-1.3C46.8,43.2,46.6,40.8,45,39.4z M30.6,38.6c-1,0.8-3,2.5-5.3,2.7c-0.3,0-0.6,0-0.9,0c-1,0-1.7-0.2-2.3-0.6
	c-5.2-3.1-8-6-9.4-9.9c-1.6-4.4-1.8-9.1-0.5-14.8c0.4-1.9,1.4-6.5,10.3-7.4c0.3,0,0.7,0,1,0c3.2,0,6.6,1.4,9,3.7
	c2,2,3.1,5.3,3.3,10.3c0,0.6,0.1,1.1,0.1,1.7c0.2,3,0.3,5.1-0.5,7.4c-2-1.3-4-2.6-6.1-3.7c-1.8-1-4.2-0.4-5.2,1.5
	c-1,1.8-0.4,4.2,1.5,5.2c1.9,1.1,3.8,2.2,5.6,3.5C30.9,38.4,30.8,38.5,30.6,38.6z"/>
</svg>
