<?xml version="1.0" encoding="utf-8"?>
<svg version="1.1" id="Layer_1" xmlns="http://www.w3.org/2000/svg" xmlns:xlink="http://www.w3.org/1999/xlink" x="0px" y="0px"
	  enable-background="new 0 0 88 100" xml:space="preserve">

<g xmlns="http://www.w3.org/2000/svg" fill-rule="nonzero" fill="#ffffff">
    <path d="M.44 1.42v19.515c0 .242.034.45.095.616l10.4-10.373L.537.804C.474.972.44 1.179.44 1.42zM15.159 14.403l4.118-2.334c.938-.533.938-1.25 0-1.782L15.16 7.953l-3.232 3.225 3.232 3.225zM2.028 21.844l12.416-7.037-3.013-3.006-10.3 10.275c.245.036.55-.035.897-.232zM11.431 10.554l3.013-3.006L2.028.511c-.285-.162-.55-.24-.774-.24-.043 0-.084.003-.123.008l10.3 10.275z" transform="translate(22.4 12.8)"/>
</g>
</svg>