<?xml version="1.0" encoding="utf-8"?>
<!-- Generator: Adobe Illustrator 18.1.1, SVG Export Plug-In . SVG Version: 6.00 Build 0)  -->
<svg version="1.1" id="Layer_1" xmlns="http://www.w3.org/2000/svg" xmlns:xlink="http://www.w3.org/1999/xlink" x="0px" y="0px"
	 viewBox="0 0 150 128" enable-background="new 0 0 150 128" xml:space="preserve">
<g>
	<path fill="#7953D0" d="M72.7,62.3c0-1-0.9-1.9-1.9-1.9c-1,0-1.9,0.8-1.9,1.9v0.6c0,1,0.9,1.9,1.9,1.9c1,0,1.9-0.8,1.9-1.9V62.3z"
		/>
	<path fill="#7953D0" d="M92.8,60.3c-0.7-0.7-2-0.7-2.7,0c-0.7,0.7-0.7,1.9,0,2.7c0.2,0.2,0.4,0.4,0.6,0.6c0.7,0.7,2,0.7,2.7,0
		c0.7-0.7,0.7-1.9,0-2.7C93.2,60.7,93,60.5,92.8,60.3"/>
	<path fill="#7953D0" d="M147,61.3c-0.5-3-1.4-5.9-2.5-8.5c-2-4.9-5.2-9.6-9.2-13.6c0.6-4.2-0.7-8.4-1.7-11.2
		c-1.8-4.8-2.8-8.8-3.1-12.5c-0.4-4.6-1-10.3-5.4-13c-4.5-2.8-9.9-1.4-15.2,3.9c-4.1,4.1-7.9,9-11.3,14.5c-4.8-1-9.5-1.6-14.1-1.8
		c-2.8-0.1-5.4,0.1-8.3,0.4c-0.3,0-0.6,0.1-0.8,0c-0.2,0-0.4-0.1-0.7-0.2c-2.7-1.2-5.3-2.8-7.6-4.3c-2.6-1.7-5.4-3.5-8.4-4.7
		c-7.8-3.2-13.9-2-16.3,3.3c-2.2,4.9-1.9,10.7-1.5,15.9l0,0.2c0,0.7,0.1,1.4,0.1,2c0.1,2,0.2,3.9,0.4,5.9c0.3,4.2,0.6,8.6,0.6,12.8
		c-4,9.3-5.6,19.1-4.5,28.5c1.3,11.5,6.8,20.9,15.4,26.3c5.1,3.3,11.2,5.4,18.5,6.7c6.7,1.1,13.7,1.8,20.7,1.9c0.5,0,1,0,1.5,0
		c16.2,0,44.4-3.4,51.6-26.3C147.9,78.5,148.5,69.5,147,61.3 M108.2,19.8l0.7-0.9c1.2-1.6,2.5-3.2,3.8-4.6c5.5-6.2,7.8-6.1,8.2-6
		c0.5,0.1,0.9,0.7,1.3,1.8c0.7,2.2,1,4.5,1.4,6.9c0.3,2.5,0.7,5,1.5,7.5c0.3,0.9,0.6,1.9,1,2.8l0.1,0.4c0.4,1.3,0.9,2.6,1.3,3.9
		c0.1,0.2,0.1,0.4,0.2,0.7c0,0.1,0.1,0.2,0.1,0.2c-0.2-0.1-0.4-0.3-0.6-0.5c-1.4-1-2.8-1.9-4.3-2.7c-0.1-1.2-1.1-4.5-1.4-5.8
		c-0.3-1.5-0.6-3.1-0.7-4.7c-0.1-1-0.6-1.8-1.4-2.4c-0.8-0.5-1.8-0.7-2.8-0.4c-2,0.6-3,3-4.6,4.4c-0.8,0.7-2.3,2.7-2.6,3.1
		c-0.2-0.1-0.3-0.1-0.5-0.2c-0.8-0.3-1.7-0.5-2.5-0.7l-0.1,0C106.8,21.7,107.5,20.7,108.2,19.8 M48.2,20.4L48.2,20.4
		c0.1-1.1,0.2-2.3,0.6-3.4c0.2-0.5,0.6-1.7,3.8-1.1c2.1,0.4,4.2,1.3,6.9,2.8c1.4,0.8,2.7,1.7,4,2.5c0.7,0.5,1.5,0.9,2.2,1.4
		c-0.1,0.1-0.2,0.1-0.3,0.2c-1,0.6-1.8,1.1-2.6,1.5c-0.8-0.2-1.7-0.4-2.5-0.7c-1-0.4-2-0.8-2.9-1.3c-1-0.5-2.1-1-3.2-0.8
		c-0.8,0.2-1.6,0.6-2.1,1.3c-0.5,0.7-0.5,1.6-0.4,2.5c0.1,1.1,0.3,2.1,0.3,3.2c0.1,0.6,0.1,1.3,0.1,2c0,1,0,1.9,0.1,2.9
		c0,0.3,0,0.6,0,1c-0.5,0.7-1.1,1.3-1.7,2.1c-0.7,0.8-1.3,1.6-1.9,2.4c0-0.1,0-0.3,0-0.4C48.2,32.3,47.7,26.2,48.2,20.4 M139.7,76.9
		c-0.6,5.9-2,10.3-4.2,13.9c-2.3,3.6-5.8,6.6-10.6,9.1c-8,4.1-18.3,6.3-30.5,6.4c-28.5,0.3-44.4-7.1-48.7-22.7
		C43.2,74,44.2,63.1,48.7,53c0.2-0.3,0.3-0.6,0.4-1c2.5-5.5,6.1-10.6,10.1-15l1.3-1.3c0.9-0.8,1.7-1.7,2.6-2.5
		c1.2-1.1,2.5-2.1,3.8-3c4.7-3,10-3.8,13.6-3.9c11.1-0.5,22.7,3,30.5,5.9c10.1,3.8,18.1,9.7,23.1,16.9C139.3,56.4,141,65,139.7,76.9
		"/>
	<path fill="#7953D0" d="M89.8,77.7c-2.2-0.1-4.4-0.3-6.7-0.4c0-1-0.2-2-0.2-3c0.1,0,0.1,0,0.2,0c1.9-0.6,3.6-2.4,3.3-4.5
		c-0.2-1.5-1.4-2.3-2.8-1.6c-1.7,0.8-3.5,1.1-5.4,1c-0.4-0.1-0.7-0.1-1,0c-0.8,0.2-1.2,0.8-1.2,1.5c-0.1,0.7,0.1,1.4,0.8,1.9
		c0.7,0.5,1.5,0.9,2.4,1.3c0,0.1,0,0.1,0,0.2c0,0.7,0,1.4,0.1,2.2c0,0.4,0.1,0.9,0.2,1.4c-1.6,0.8-3.7,1-5.4,1c-2.4,0-2.4,3.7,0,3.8
		c2.5,0,5-0.4,7.3-1.5c0.1,0,0.2,0.1,0.4,0.1c2.7,0.2,5.4,0.4,8.1,0.5C92.2,81.7,92.2,77.9,89.8,77.7"/>
	<path fill="#FF4D7D" d="M63.1,121.5c5.7,3.3,14.4,4.4,21,5.1c14.5,1.5,28.7-0.8,41.9-5.8c5.6-2.1,0.7-8.9-4.8-6.8
		c-11.6,4.4-24.5,6.2-37.2,4.7c-5.1-0.6-11.7-1.4-16-4C63,111.8,58.2,118.6,63.1,121.5"/>
	<path fill="#FF4D7D" d="M12.2,27.7c0,0,0.1,0.7,0.3,1.9c0,0.3,0.1,0.6,0.2,1c0,0.2,0.1,0.4,0.1,0.6c0,0.1,0.1,0.3,0.1,0.5
		c0.2,0.6,0.4,1.4,0.6,2.2c0.3,0.9,0.7,1.9,1.1,3c0.4,1.1,0.9,2.3,1.4,3.5c0.5,1.3,1,2.5,1.5,4c0.5,1.4,1,2.8,1.4,4.4l0.6,2.3
		c0.1,0.8,0.2,1.6,0.3,2.4l0.2,1.2l0,0.3l0,0.1l0,0.3l0,0.5c0,0.7,0,1.4,0.1,2c0,1.3,0.1,2.6,0.1,3.9c0,0.6,0,1.2,0,1.8
		c0,0.5,0,1.1,0.1,1.6c0,1,0,1.9,0.1,2.7c0.1,0.8,0.2,1.5,0.2,2c0.1,1.1,0.2,1.8,0.2,1.8l0.1,0.4c0.2,2.1-1.3,4-3.3,4.2
		c-2,0.2-3.9-1.2-4.2-3.1c0,0-0.1-0.8-0.4-2.1c-0.1-0.7-0.3-1.5-0.4-2.4c-0.1-0.9-0.2-1.9-0.3-3.1c0-0.6-0.1-1.1-0.1-1.7
		c0-0.6-0.1-1.1-0.1-1.7c-0.1-1.2-0.1-2.4-0.2-3.8c-0.1-0.7-0.1-1.3-0.2-2l0-0.5l0,0c0,0.2,0,0.1,0,0.1l0,0l0-0.1l0-0.1l0-0.2
		l-0.2-0.9c-0.1-0.6-0.2-1.2-0.3-1.7l-0.6-1.8C10,50.1,9.5,48.8,9,47.7c-0.5-1.2-1.1-2.4-1.6-3.6c-0.6-1.2-1.1-2.4-1.6-3.5
		c-0.5-1.2-1-2.4-1.4-3.4c-0.4-1.2-0.8-2.4-1.1-3.4C3.2,33.5,3.1,33.2,3,33c0-0.2-0.1-0.4-0.1-0.6c-0.1-0.4-0.1-0.7-0.2-1
		c-0.3-1.2-0.4-1.9-0.4-1.9c-0.6-2.7,1.2-5.4,3.9-6c2.7-0.6,5.4,1.2,6,3.9C12.2,27.5,12.2,27.6,12.2,27.7L12.2,27.7z"/>
	<path fill="#FF4D7D" d="M20.6,94C20.5,94,20.5,94,20.6,94c-1.3,0-2.9,0-4.5-1.1c-1-0.7-1.6-1.8-1.7-3c-0.1-1.2,0.3-2.4,1.2-3.3
		c2.8-2.9,5.6-3.2,7.5-3c1.6,0.2,2.9,1.2,3.5,2.7c0.3,0.7,0.9,2.6,0.3,4.5c-0.6,1.8-2.2,2.8-4,2.8C22.1,94,21.4,94,20.6,94z"/>
</g>
</svg>
