<?xml version="1.0" encoding="utf-8"?>
<!-- Generator: Adobe Illustrator 18.1.1, SVG Export Plug-In . SVG Version: 6.00 Build 0)  -->
<svg version="1.1" id="Layer_1" xmlns="http://www.w3.org/2000/svg" xmlns:xlink="http://www.w3.org/1999/xlink" x="0px" y="0px"
	 viewBox="0 0 104 100" enable-background="new 0 0 104 100" xml:space="preserve">
<g>
	<g>
		<path fill="#FF4D7D" stroke="#FF4D7D" stroke-width="0.8354" stroke-miterlimit="10" d="M94.3,73.9C94.3,73.9,94.3,73.9,94.3,73.9
			c0,0.1,0,0.1,0.1,0.1c0,0.1,0,0.1,0,0.2c0.1,0.4,0.3,0.7,0.7,1c0.3,0.2,0.6,0.3,0.9,0.3c0.1,0,0.3,0,0.4-0.1
			c0.8-0.2,1.3-1,1.1-1.9c-0.1-0.7-0.4-1.3-0.9-1.9c-0.3-0.3-0.6-0.5-1.1-0.5c-0.5,0-0.9,0.2-1.2,0.5c-0.6,0.6-0.6,1.4-0.1,2.1
			C94.2,73.7,94.2,73.8,94.3,73.9z"/>
		<path fill="#7953D0" stroke="#7953D0" stroke-width="0.8354" stroke-miterlimit="10" d="M26.8,91.6L26.8,91.6
			c-0.3-0.1-0.5-0.1-0.8,0c-0.2,0.1-0.4,0.1-0.6,0.2l-0.1,0c-0.2,0.1-0.5,0.2-0.7,0.3c-0.7,0.3-1.3,0.6-2,0.8
			c-0.3,0.1-0.6,0.2-0.9,0.2c-0.1,0-0.1,0-0.1,0c0,0-0.1-0.1-0.1-0.3c-0.1-0.4-0.1-0.9-0.2-1.4l0-0.4c-0.1-1.3-0.1-2.7-0.1-4
			c0-0.2,0-0.6,0-1c1.6-0.2,3.2-0.6,4.8-1.1c0.5-0.2,0.9-0.6,1-1.1c0.1-0.5-0.1-1.1-0.5-1.5c-0.4-0.3-0.9-0.4-1.4-0.3
			c-1.3,0.4-2.5,0.7-3.8,0.9c0.1-1.2,0.2-2.4,0.3-3.7l3.7-0.6c0.8-0.1,1.3-0.8,1.1-1.5c-0.1-0.8-0.8-1.5-1.7-1.3L18,77.1
			c-0.5,0.1-0.9,0.4-1.1,0.8c-0.2,0.5-0.1,1.1,0.3,1.5c0.3,0.4,0.9,0.6,1.4,0.5l0.2,0c-0.1,1.2-0.2,2.4-0.3,3.5
			c-0.8,0.1-1.3,0.7-1.3,1.5c0,0.7,0.5,1.3,1.2,1.4c0,0.6,0,1.1-0.1,1.7c-0.1,1.2-0.1,2.4,0,3.6c0,0.7,0.1,1.4,0.2,2.1
			c0.1,0.4,0.1,0.8,0.3,1.3c0.1,0.3,0.4,0.9,1,1.2c0.3,0.2,0.7,0.3,1.2,0.3c0.1,0,0.2,0,0.4,0c0.8-0.1,1.6-0.4,2.3-0.7
			c0.5-0.2,1.1-0.5,1.6-0.7c0.4-0.2,0.7-0.3,1.1-0.5c0.2-0.1,0.4-0.1,0.5-0.2c0.4-0.1,0.7-0.4,0.9-0.8c0.2-0.4,0.2-0.8,0-1.2
			C27.5,92,27.2,91.7,26.8,91.6z"/>
		<path fill="#7953D0" stroke="#7953D0" stroke-width="0.8354" stroke-miterlimit="10" d="M10.6,76.5c-1-0.7-2.1-0.9-3.3-1.1
			c0-0.4-0.1-0.7-0.3-1c-0.2-0.3-0.6-0.4-0.9-0.5C5.5,73.8,5,74,4.6,74.4c-0.1,0.2-0.2,0.3-0.3,0.5c-0.3-0.1-0.6-0.1-0.8-0.2
			c-0.5-0.2-1-0.1-1.3,0.2c-0.4,0.3-0.6,0.9-0.5,1.4c0.1,0.5,0.5,0.9,1,1.1c0.5,0.2,1,0.3,1.5,0.4c-0.3,4.1-0.2,7.6,0,11
			c0.1,0.9,0,2,0,3c0,0.8-0.1,1.6-0.1,2.4c-0.1,0-0.3,0-0.4,0.1c-0.5,0.1-1,0.4-1.2,0.9c-0.2,0.5-0.1,1.1,0.2,1.5
			c0.3,0.4,0.7,0.5,1.2,0.5c0.2,0,0.4-0.1,0.6-0.1c0.1,0.4,0.2,0.7,0.4,1.1C5.1,98.7,5.5,99,6.1,99c0.2,0,0.4,0,0.6-0.2
			c0.7-0.3,1.1-1.2,0.7-2c0-0.1-0.1-0.2-0.1-0.3c1.3-0.4,2.3-1.1,3.1-2c2.2-2.5,3.3-6.2,3.1-10.2C13.3,80.2,12.4,77.6,10.6,76.5z
			 M7.1,93.4c0-0.4,0.1-0.7,0.1-1c0.1-1.7-0.1-3.3-0.2-5l-0.1-0.7c-0.2-2.8-0.1-5.6,0.1-8.3c0,0,0.1,0,0.1,0c2.3,0.5,2.9,2,3.3,4.8
			c0.3,2.1,0.3,5.3-1.3,8.1C8.6,92.2,8,92.9,7.1,93.4z"/>
		<path fill="#7953D0" stroke="#7953D0" stroke-width="0.8354" stroke-miterlimit="10" d="M85,90.2c-0.1-0.5-0.2-1.1-0.4-1.6
			c-0.4-1.3-0.8-2.6-1.2-4c0.2-0.1,0.5-0.3,0.7-0.5c1.4-1.1,2.1-2.8,1.7-4.4c-0.5-1.8-2.2-2.8-3.6-3.1c-0.4-0.1-0.8-0.2-1.2-0.2
			c-0.5-0.1-1-0.1-1.4,0c-0.5,0-1,0.1-1.5,0.4c-0.3,0.2-0.5,0.4-0.8,0.6c-0.3,0.3-0.4,0.6-0.5,0.9c-0.1,0.3-0.2,0.7-0.3,1.1
			c-0.1,0.7,0,1.4,0.1,2l0.1,0.6c0,0.2,0.1,0.5,0.1,0.7c0.3,4.2,0,8.5-0.9,12.9c-0.2,0.9,0.5,1.6,1.2,1.8c0.1,0,0.2,0,0.3,0
			c0.7,0,1.2-0.4,1.3-1.1c0.6-2.9,0.9-5.7,1.1-8.3c0-0.3,0-1.1-0.1-2.4l0-0.2c0.3,0,0.6,0,0.8,0c0.6,1.7,1.1,3.3,1.5,4.8
			c0.1,0.4,0.2,0.8,0.3,1.2c0.3,1.3,0.6,2.6,1.3,3.8c0.3,0.5,0.7,0.7,1.2,0.7c0.6,0,1.1-0.3,1.3-0.7c0.3-0.4,0.3-1,0-1.4
			C85.6,92.7,85.3,91.4,85,90.2z M81.8,79.5c0.1,0,1.3,0.4,1.1,1.3c-0.2,1-1.2,1.5-3.3,1.5c0,0-0.1,0-0.1,0c-0.1-1.6,0-2.7,0.1-3.1
			C80.3,79.2,81.6,79.4,81.8,79.5z"/>
		<path fill="#7953D0" stroke="#7953D0" stroke-width="0.8354" stroke-miterlimit="10" d="M54.8,87.9c-0.7,0-1.4,0.2-2.1,0.3
			c-0.3,0.1-0.6,0.1-0.9,0.2c-0.7,0.1-1.2,0.8-1.1,1.5c0.1,0.8,0.7,1.3,1.4,1.4c0.3,0,0.6,0,0.8-0.1c0,0,0.1,0,0.1,0
			c0.2,0,0.3,0,0.5-0.1c0.1,0,0.1,0,0.2,0c0.1,0,1,0,1.2-0.1c-0.2,0.3-0.4,0.7-0.6,0.9c-0.3,0.4-0.7,0.6-1,0.8
			c-0.2,0.1-1.2,0.1-1.4,0.1c-0.2,0-0.5-0.1-0.8-0.2c0,0-0.1-0.1-0.1-0.1c-1.6-1-1.6-2.2-1.6-4.1l0-0.3c0.1-2.8,0.2-9.4,3.9-9.4
			c0,0,0,0,0,0c0.5,0,1-0.2,1.2-0.7c0.3-0.5,0.3-1.1,0-1.5c-0.3-0.4-0.7-0.7-1.2-0.7c-1.8,0-3.2,0.7-4.4,2.1
			c-2.7,3.3-3,9.7-2.4,13.2c0.5,2.4,2.2,4.2,4.8,4.7c1.1,0.2,2.1,0.1,3-0.5c0.1,0.2,0.3,2.5,0.5,2.6c0.2,0.1,0.5,0.2,0.8,0.2
			c0.3,0,0.5-0.1,0.8-0.2c0.4-0.3,0.7-0.7,0.7-1.2l0-5.3c0-0.1,0-0.3,0-0.4c0-0.6,0.1-1.4-0.3-2C56.5,88.4,55.9,87.9,54.8,87.9z"/>
		<path fill="#7953D0" stroke="#7953D0" stroke-width="0.8354" stroke-miterlimit="10" d="M70.6,78.3L70.6,78.3
			c-0.1-0.5-0.4-0.9-0.8-1.1c-0.5-0.2-1.1-0.1-1.5,0.3c-0.4,0.3-0.6,0.9-0.5,1.4c0.6,3.2,0.6,6.7,0.2,10.4c-0.1,0.7-0.2,1.5-0.3,2.2
			l0,0.2c-0.1,0.5-0.2,1-0.4,1.3c-0.1,0.1-0.2,0.2-0.3,0.2c0,0-0.2,0-0.5-0.2c-0.5-0.2-0.6-0.6-0.7-1.5c-0.2-1.4-0.2-2.8-0.1-4.3
			c0-0.8,0-1.7,0-2.6c0-1.6-0.3-3.3-0.7-5.3l0-0.3c-0.1-0.5-0.2-0.9-0.3-1.4c-0.1-0.5-0.5-0.9-1-1c-0.5-0.1-1.1,0-1.5,0.4
			c-0.4,0.4-0.5,0.9-0.4,1.4c0.8,3,0.8,6,0.9,9.2c0,1.3,0.1,2.7,0.2,4c0.1,1.1,0.3,4.3,3.8,4.5c0.1,0,0.2,0,0.3,0
			c1.3,0,2.4-0.6,2.9-1.8c0.5-1,0.6-2.2,0.7-3.2c0-0.3,0-0.5,0.1-0.8c0.5-4.2,0.5-7.6,0.1-10.8C70.7,79.2,70.7,78.7,70.6,78.3z"/>
		<path fill="#FF4D7D" stroke="#FF4D7D" stroke-width="0.8354" stroke-miterlimit="10" d="M99.8,79L99.8,79
			c-0.3-0.5-0.8-0.8-1.3-0.8c-0.6,0-1.1,0.5-1.3,1.2c0,0.1-0.1,0.3-0.1,0.5c0,0.3,0,0.5,0.1,0.8c0.5,2.8,0.5,6,0.1,10
			c-0.1,0.9-0.2,1.9-0.5,2.8c-0.2,0.6-0.4,0.7-0.5,0.8c-0.1,0.1-0.3,0-0.5-0.1c-0.4-0.3-0.7-0.8-0.8-1.6c-0.2-1.2-0.1-2.3-0.1-3.5
			c0-0.5,0-1.1,0-1.6c0-1.9-0.1-3.7-0.4-5.4c-0.1-0.8-0.3-1.5-0.4-2.3c-0.1-0.3-0.2-0.7-0.2-1c-0.1-0.5-0.5-0.9-1-1
			c-0.5-0.1-1.1,0-1.5,0.4c-0.4,0.4-0.5,0.9-0.4,1.4c0.7,3,0.9,6.2,1,9.3l0.1,1.5c0,0.9,0.1,1.9,0.2,2.8c0.1,1.1,0.4,1.9,0.8,2.6
			c0.7,1,2,1.6,3.2,1.6c0.5,0,1.1-0.1,1.5-0.3c1.6-0.8,1.8-2.5,2-3.5c0.8-5.5,0.9-9.6,0.3-13.4C100.1,79.7,100,79.4,99.8,79z"/>
		<path fill="#7953D0" stroke="#7953D0" stroke-width="0.8354" stroke-miterlimit="10" d="M40.3,76.6c-0.8,0-1.4,0.7-1.4,1.5
			c0.1,3,0,6-0.2,9c-0.3-0.9-0.7-1.9-1-2.8c-0.1-0.4-0.3-0.9-0.5-1.4c-0.2-0.5-0.4-1.1-0.6-1.7c0-0.7,0-1.4,0-2.1
			c0-0.6-0.4-1.1-1-1.3c-0.3-0.1-0.6-0.1-0.9,0c0,0-0.1-0.1-0.1-0.1c-0.8-0.6-1.7-0.3-2.2,0.3c-0.5,0.6-0.4,1.4,0.2,1.9
			c0.1,0.1,0.3,0.7,0.5,1c0.1,0.2,0.1,0.4,0.2,0.5c0.1,0.3,0.3,0.6,0.4,0.9c-0.1,2.3-0.3,4.6-0.6,6.9c-0.2,1.9-0.4,3.9-0.5,5.8
			c0,0.5,0.2,1,0.6,1.2c0.4,0.3,1,0.3,1.5,0.1c0.5-0.2,0.8-0.7,0.8-1.2c0.1-1.9,0.3-3.9,0.5-5.8c0-0.2,0-0.5,0.1-0.7
			c0.8,2.2,1.4,4.5,1.6,6.8c0.1,0.8,0.8,1.4,1.5,1.4c0,0,0,0,0.1,0c0.7,0,1.2-0.4,1.3-1.1c1-5.8,1.4-11.7,1.2-17.5
			C41.8,77.2,41.1,76.6,40.3,76.6z"/>
		<path fill="#FF4D7D" stroke="#FF4D7D" stroke-width="0.8354" stroke-miterlimit="10" d="M102.3,74.2c-0.1-0.9-0.8-1.6-1.6-1.5
			c-0.5,0-0.9,0.2-1.2,0.6c-0.3,0.3-0.4,0.7-0.4,1.1c0,0.1,0,0.3,0,0.3c0,0,0,0,0,0.1l0,0.1c0,0,0,0.1,0,0.1
			c-0.3,0.8-0.1,1.7,0.6,2.1c0.2,0.1,0.5,0.2,0.8,0.2c0.2,0,0.3,0,0.5-0.1c0.4-0.1,0.7-0.4,0.9-0.8
			C102.2,75.6,102.3,74.9,102.3,74.2z"/>
		<path fill="#FF4D7D" stroke="#FF4D7D" stroke-width="0.8354" stroke-miterlimit="10" d="M92.1,73.5c-0.5-0.5-1.1-0.9-1.8-1.1
			c-0.4-0.1-0.9-0.1-1.3,0.2c-0.4,0.2-0.7,0.6-0.7,1c-0.2,0.8,0.3,1.7,1.1,1.9c0,0,0.1,0,0.1,0.1c0,0,0,0,0.1,0l0.1,0
			c0,0,0.1,0.1,0.1,0.1c0.3,0.3,0.7,0.5,1.1,0.5c0,0,0,0,0,0c0.4,0,0.9-0.2,1.2-0.5C92.7,75.1,92.7,74.1,92.1,73.5z"/>
	</g>
	<g>
		<g>
			<path fill="#7953D0" d="M39.5,33.5c0-0.5-0.5-1-1-1c-0.5,0-1,0.4-1,1c0,0.1,0,0.2,0,0.3c0,0.5,0.5,1,1,1c0.5,0,1-0.4,1-1
				C39.5,33.7,39.5,33.6,39.5,33.5z"/>
			<path fill="#7953D0" d="M50.2,32.5c-0.4-0.4-1-0.4-1.4,0c-0.4,0.4-0.4,1,0,1.4c0.1,0.1,0.2,0.2,0.3,0.3c0.4,0.4,1,0.4,1.4,0
				c0.4-0.4,0.4-1,0-1.4C50.4,32.7,50.3,32.6,50.2,32.5z"/>
			<path fill="#7953D0" d="M78.9,33c-0.3-1.6-0.7-3.1-1.3-4.5c-1.1-2.6-2.8-5.1-4.9-7.2c0.3-2.2-0.4-4.5-0.9-6
				c-0.9-2.5-1.5-4.7-1.7-6.6c-0.2-2.4-0.5-5.4-2.9-6.9c-2.4-1.5-5.3-0.7-8.1,2.1c-2.2,2.2-4.2,4.8-6,7.7c-2.5-0.5-5-0.9-7.5-1
				c-1.5-0.1-2.9,0.1-4.4,0.2c-0.2,0-0.3,0-0.4,0c-0.1,0-0.2-0.1-0.3-0.1c-1.4-0.6-2.8-1.5-4-2.3c-1.4-0.9-2.8-1.8-4.5-2.5
				c-4.1-1.7-7.4-1-8.7,1.7c-1.2,2.6-1,5.7-0.8,8.4l0,0.1c0,0.4,0,0.7,0.1,1.1c0.1,1,0.1,2.1,0.2,3.1c0.1,2.2,0.3,4.5,0.3,6.8
				c-2.1,4.9-3,10.1-2.4,15.1c0.7,6.1,3.6,11.1,8.1,14c2.7,1.7,5.9,2.9,9.8,3.5c3.5,0.6,7.2,0.9,11,1c0.3,0,0.5,0,0.8,0
				c8.6,0,23.5-1.8,27.4-14C79.4,42.1,79.7,37.3,78.9,33z M58.3,11l0.4-0.5c0.6-0.9,1.3-1.7,2-2.5c2.9-3.3,4.1-3.2,4.4-3.2
				c0.3,0.1,0.5,0.4,0.7,0.9c0.4,1.2,0.6,2.4,0.7,3.7c0.2,1.3,0.3,2.7,0.8,4c0.2,0.5,0.3,1,0.5,1.5l0.1,0.2c0.2,0.7,0.5,1.4,0.7,2
				c0,0.1,0.1,0.2,0.1,0.4c0,0,0,0.1,0,0.1c-0.1-0.1-0.2-0.2-0.3-0.2c-0.7-0.5-1.5-1-2.2-1.4c-0.2-0.8-0.5-2-0.6-2.6
				c-0.2-0.8-0.3-1.6-0.4-2.5c-0.1-0.5-0.3-1-0.7-1.3c-0.4-0.3-1-0.4-1.5-0.2c-1.1,0.3-1.6,1.6-2.4,2.3c-0.3,0.3-0.8,0.8-1.1,1.3
				c-0.2-0.1-0.5-0.2-0.7-0.2c-0.4-0.1-0.9-0.3-1.3-0.4l-0.1,0C57.6,12,58,11.5,58.3,11z M26.5,11.3L26.5,11.3
				c0-0.6,0.1-1.2,0.3-1.8c0.1-0.3,0.3-0.9,2-0.6c1.1,0.2,2.2,0.7,3.7,1.5c0.7,0.4,1.5,0.9,2.1,1.3c0.4,0.2,0.8,0.5,1.2,0.7
				c-0.1,0-0.1,0.1-0.1,0.1c-0.6,0.3-1,0.6-1.5,0.9c-0.5-0.1-0.9-0.2-1.4-0.4c-0.5-0.2-1.1-0.4-1.6-0.7c-0.5-0.3-1.1-0.5-1.7-0.4
				c-0.4,0.1-0.9,0.3-1.1,0.7c-0.2,0.4-0.3,0.9-0.2,1.3c0.1,0.6,0.1,1.1,0.2,1.7c0,0.3,0,0.7,0.1,1c0,0.5,0,1,0,1.5
				c0,0.2,0,0.4,0,0.6c-0.2,0.3-0.5,0.6-0.8,0.9c-0.3,0.4-0.7,0.9-1,1.3c0-0.1,0-0.1,0-0.2C26.5,17.6,26.3,14.4,26.5,11.3z
				 M75.1,41.2c-0.3,3.1-1,5.5-2.2,7.4c-1.2,1.9-3.1,3.5-5.6,4.8c-4.2,2.2-9.7,3.3-16.2,3.4C36,57,27.5,53,25.3,44.8
				c-1.4-5.1-0.8-10.8,1.5-16.2c0.1-0.2,0.2-0.3,0.2-0.5c1.3-2.9,3.2-5.6,5.4-7.9l0.7-0.7c0.5-0.4,0.9-0.9,1.4-1.3
				c0.7-0.6,1.3-1.1,2-1.6c2.5-1.6,5.3-2,7.2-2.1c5.9-0.3,12.1,1.6,16.2,3.1c5.4,2,9.6,5.1,12.3,9C74.9,30.4,75.7,34.9,75.1,41.2z"
				/>
			<path fill="#7953D0" d="M48.6,41.7c-1.2-0.1-2.4-0.2-3.5-0.2c0-0.5-0.1-1.1-0.1-1.6c0,0,0.1,0,0.1,0c1-0.3,1.9-1.3,1.8-2.4
				c-0.1-0.8-0.8-1.2-1.5-0.9c-0.9,0.4-1.9,0.6-2.9,0.6c-0.2-0.1-0.4,0-0.6,0c-0.4,0.1-0.6,0.4-0.6,0.8c-0.1,0.4,0.1,0.7,0.4,1
				c0.4,0.2,0.8,0.5,1.3,0.7c0,0,0,0.1,0,0.1c0,0.4,0,0.8,0,1.1c0,0.2,0.1,0.5,0.1,0.8c-0.9,0.4-2,0.5-2.9,0.5c-1.3,0-1.3,2,0,2
				c1.3,0,2.7-0.2,3.9-0.8c0.1,0,0.1,0,0.2,0c1.4,0.1,2.9,0.2,4.3,0.3C49.9,43.8,49.8,41.8,48.6,41.7z"/>
		</g>
		<g>
			<path fill="#FF4D7D" d="M34.5,64.9c3,1.8,7.6,2.3,11.2,2.7c7.7,0.8,15.2-0.4,22.2-3.1c3-1.1,0.4-4.7-2.6-3.6
				c-6.2,2.3-13,3.3-19.7,2.5c-2.7-0.3-6.2-0.8-8.5-2.1C34.4,59.7,31.8,63.3,34.5,64.9L34.5,64.9z"/>
		</g>
	</g>
</g>
</svg>
