<?xml version="1.0" encoding="utf-8"?>
<!-- Generator: Adobe Illustrator 18.1.1, SVG Export Plug-In . SVG Version: 6.00 Build 0)  -->
<svg version="1.1" id="Layer_1" xmlns="http://www.w3.org/2000/svg" xmlns:xlink="http://www.w3.org/1999/xlink" x="0px" y="0px"
	 viewBox="0 0 290 100" enable-background="new 0 0 290 100" xml:space="preserve">
<g>
	<g>
		<path fill="#9e9e9e" d="M273,35C273,35,273,35.1,273,35c0.1,0.2,0.1,0.3,0.1,0.4c0.1,0.9,0.7,1.7,1.5,2.3c0.6,0.4,1.4,0.6,2.1,0.6
			c0.3,0,0.6,0,0.9-0.1c1.8-0.5,2.9-2.3,2.6-4.3c-0.2-1.4-0.8-2.6-1.8-3.9c-0.6-0.7-1.5-1.1-2.5-1.2c-1.1-0.1-2.1,0.3-2.8,1.1
			c-1.3,1.3-1.4,3.2-0.4,4.7C272.8,34.7,272.9,34.9,273,35z"/>
		<path fill="#9e9e9e" d="M149.8,66.6L149.8,66.6c-0.6-0.2-1.2-0.2-1.9,0c-0.5,0.1-0.9,0.3-1.1,0.4l-0.2,0.1
			c-0.4,0.2-0.7,0.3-1.1,0.5l-0.3,0.1c-1.2,0.6-2.3,1.1-3.5,1.5c-0.3,0.1-0.8,0.3-1.2,0.4c0,0,0,0,0-0.1c-0.2-0.7-0.2-1.6-0.3-2.5
			l0-0.7c-0.1-2.4-0.1-4.9-0.1-7.3c0-0.2,0-0.7,0-1.3c2.8-0.4,5.6-1.1,8.3-1.9c1.2-0.4,2-1.3,2.3-2.5c0.3-1.2-0.2-2.5-1-3.3
			c-0.9-0.8-2-1-3.2-0.6c-2,0.6-4,1.1-6.1,1.5c0.1-1.8,0.3-3.6,0.4-5.4l6.2-1c0.9-0.1,1.6-0.6,2.1-1.2c0.5-0.7,0.7-1.5,0.5-2.4
			c-0.1-0.9-0.7-1.8-1.4-2.4c-0.7-0.5-1.6-0.7-2.5-0.6l-12.6,1.9c-1.2,0.2-2.1,0.9-2.5,1.9c-0.4,1.1-0.2,2.4,0.6,3.4
			c0.7,0.8,1.6,1.3,2.7,1.3c0,0,0,0,0,0c-0.2,1.8-0.3,3.4-0.4,5.1c-1.5,0.4-2.5,1.8-2.4,3.4c0.1,1.4,0.9,2.6,2.1,3
			c0,0.8-0.1,1.7-0.1,2.6c-0.1,2.2-0.2,4.5-0.1,6.8c0.1,1.3,0.2,2.6,0.4,3.9c0.1,0.8,0.2,1.6,0.6,2.5c0.3,0.7,0.9,1.8,2.1,2.5
			c0.7,0.4,1.6,0.6,2.5,0.6c0.2,0,0.5,0,0.7,0c1.7-0.2,3.1-0.7,4.4-1.2c1-0.4,1.9-0.8,3-1.3l0.2-0.1c0.6-0.3,1.2-0.5,1.8-0.8
			c0.3-0.1,0.6-0.3,0.9-0.4c0.9-0.3,1.6-0.9,2-1.8c0.4-0.9,0.4-1.9,0-2.8C151.5,67.5,150.7,66.8,149.8,66.6z"/>
		<path fill="#9e9e9e" d="M120.2,38.9c-1.8-1.2-3.9-1.8-5.8-2.1c-0.1-0.6-0.3-1.2-0.7-1.7c-0.5-0.6-1.3-1-2.1-1.1
			c-1.3-0.3-2.5,0.2-3.3,1.2c-0.1,0.2-0.2,0.4-0.3,0.6c-0.3-0.1-0.5-0.2-0.8-0.3c-1.1-0.4-2.3-0.2-3.1,0.5c-0.9,0.8-1.4,2.1-1.2,3.3
			c0.2,1.2,1,2.2,2.2,2.6c0.7,0.2,1.4,0.5,2.3,0.7c-0.4,7.4-0.4,13.6,0,19.7c0.1,1.7,0,3.5-0.1,5.5c-0.1,1.2-0.1,2.5-0.2,3.8
			c-0.1,0-0.1,0-0.2,0c-1.2,0.2-2.3,1-2.8,2.1c-0.5,1.2-0.3,2.5,0.4,3.4c0.7,0.9,1.8,1.3,2.9,1.1l0.6-0.1c0.2,0.5,0.4,1,0.6,1.5
			c0.6,1.2,1.6,1.8,2.8,1.8c0.5,0,1-0.1,1.5-0.3c1.5-0.7,2.5-2.6,1.7-4.4c2.2-0.8,3.9-2,5.4-3.7c4.2-4.7,6.3-11.7,5.9-19.2
			C125.4,46,123.6,41.1,120.2,38.9z M113.8,59.4l-0.1-1.3c-0.4-4.8-0.2-9.7,0.2-14.3c3.4,0.9,4.3,3.4,5,8.1
			c0.6,3.8,0.6,9.4-2.3,14.4c-0.7,1.2-1.5,2.1-2.4,2.8c0-0.2,0-0.4,0-0.5C114.4,65.4,114.1,62.4,113.8,59.4z"/>
		<path fill="#9e9e9e" d="M257.2,64.6c-0.2-1-0.5-2-0.7-3.1c-0.6-2.2-1.3-4.5-2.1-6.9c0.3-0.2,0.6-0.4,0.9-0.6
			c2.9-2.2,4.2-5.7,3.4-8.7c-1-3.7-4.3-5.7-7.2-6.3c-0.8-0.2-1.5-0.3-2.3-0.4c-1-0.1-1.9-0.1-2.8-0.1c-0.9,0.1-1.9,0.2-2.9,0.8
			c-0.6,0.3-1.1,0.8-1.6,1.3c-0.5,0.6-0.8,1.3-1,1.8c-0.3,0.7-0.4,1.4-0.5,2.2c-0.1,1.4,0,2.6,0.2,3.9l0.1,1
			c0.1,0.4,0.1,0.8,0.1,1.2c0.5,7.6,0,15.6-1.7,23.6c-0.2,1,0,1.9,0.6,2.7c0.5,0.7,1.3,1.2,2.1,1.4c0.2,0,0.5,0.1,0.7,0.1
			c1.5,0,2.8-1.1,3.1-2.6c1.1-5.4,1.8-10.5,2-15.3c0-0.6-0.1-1.8-0.2-4.2c0.1,0,0.2,0,0.3,0c1,3,1.8,5.7,2.5,8.3
			c0.2,0.7,0.4,1.5,0.5,2.2c0.6,2.4,1.1,4.8,2.4,7.2c0.6,1.1,1.6,1.7,2.8,1.7c0,0,0,0,0,0c1.3,0,2.4-0.6,3-1.7
			c0.6-1,0.7-2.2,0.1-3.3C258.2,69,257.7,66.8,257.2,64.6z M252.1,47.4c-0.2,0.9-0.9,2.2-4.9,2.3c0-1.9,0-3.5,0.1-4.4
			c1.2,0,2.9,0.3,3.2,0.4C250.5,45.7,252.3,46.3,252.1,47.4z"/>
		<path fill="#9e9e9e" d="M201,59.9L201,59.9c-1.4,0.1-2.7,0.3-4,0.6c-0.6,0.1-1.2,0.2-1.7,0.3c-1.7,0.3-2.8,1.8-2.6,3.5
			c0.2,1.8,1.5,3.1,3.3,3.1c0.6,0,1.1-0.1,1.6-0.2l0.1,0c0.4,0,0.7-0.1,1.1-0.2l0.2,0c0.1,0,0.4,0,0.8,0c-0.1,0.2-0.3,0.4-0.4,0.5
			c-0.5,0.6-1.1,1-1.5,1.3c-0.3,0.1-1.8,0.2-2.2,0.2c-0.4,0-0.7-0.1-1.2-0.4l-0.2-0.1c-2.7-1.6-2.6-3.5-2.5-6.9l0-0.5
			c0.1-5,0.4-16.7,6.6-16.7c1.2,0,2.2-0.6,2.8-1.6c0.6-1.1,0.6-2.4,0-3.5c-0.6-1-1.6-1.6-2.9-1.7c-3.4-0.1-6.3,1.3-8.6,4
			c-5.2,6.1-5.7,18.3-4.5,24.9c0.9,4.8,4.3,8.2,9.3,9.2c1.9,0.4,3.6,0.2,5.1-0.5c0,0.2,0.1,0.5,0.1,0.7c0.4,2.6,0.5,3.3,1,3.6
			c0.5,0.3,1.1,0.5,1.7,0.5c0,0,0,0,0,0c0.6,0,1.2-0.2,1.7-0.5c1-0.6,1.6-1.6,1.6-2.9l0-9.8c0-0.2,0-0.5,0-0.8
			c0.1-1.2,0.1-2.8-0.6-4.1C204.7,61.1,203.5,59.7,201,59.9z"/>
		<path fill="#9e9e9e" d="M230.7,42.7L230.7,42.7c-0.2-1.2-0.9-2.1-2-2.5c-1.1-0.4-2.5-0.2-3.4,0.6c-0.9,0.8-1.4,2-1.2,3.2
			c1,5.8,1.1,12.2,0.4,18.8c-0.1,1.3-0.3,2.7-0.6,4.1l-0.1,0.3c-0.1,0.8-0.3,1.6-0.6,2c-0.1,0.1-0.1,0.1-0.2,0.2
			c-0.1,0-0.3-0.1-0.5-0.2c-0.5-0.2-0.7-0.7-0.9-2.3c-0.4-2.6-0.3-5.1-0.2-7.9c0-1.5,0.1-3.1,0-4.7c-0.1-2.9-0.5-6.1-1.2-9.9
			l-0.1-0.5c-0.2-0.9-0.3-1.7-0.6-2.5c-0.3-1.2-1.1-2-2.2-2.4c-1.2-0.3-2.5,0-3.4,0.9c-0.9,0.8-1.2,2-0.9,3.2
			c1.4,5.5,1.5,10.9,1.7,16.7c0.1,2.4,0.2,4.9,0.3,7.4c0.4,5.6,3,8.6,7.7,9c0.2,0,0.4,0,0.7,0c2.7,0,4.9-1.3,6-3.7
			c0.9-2,1.1-4.2,1.3-6.1c0-0.5,0.1-0.9,0.1-1.4c0.9-7.8,1-14.1,0.2-20C231,44.3,230.8,43.5,230.7,42.7z"/>
		<polygon fill="#9e9e9e" points="284.3,43.8 284.3,43.8 284.4,43.8 		"/>
		<path fill="#9e9e9e" d="M284.3,43.8L284.3,43.8c-0.7-1.1-1.9-1.8-3.1-1.7c-1.4,0.1-2.7,1.2-3,2.7c-0.1,0.3-0.1,0.7-0.1,1
			c0,0.6,0.1,1.1,0.2,1.5c0.9,5.2,0.9,11,0.2,18.3c-0.2,1.7-0.4,3.4-0.9,5c-0.3,0.8-0.5,1-0.5,1c0,0-0.2,0-0.3-0.1
			c-0.6-0.4-0.9-1.1-1.2-2.5c-0.3-2-0.3-4.1-0.2-6.3c0-1,0.1-2,0.1-3c0-3.6-0.2-6.9-0.7-10.1c-0.2-1.4-0.5-2.8-0.8-4.2
			c-0.1-0.6-0.3-1.3-0.4-1.9c-0.3-1.2-1.1-2-2.2-2.4c-1.2-0.3-2.5,0-3.4,0.9c-0.9,0.8-1.2,2-0.9,3.2c1.4,5.5,1.5,11.3,1.7,16.9
			l0.1,2.7c0.1,1.7,0.1,3.4,0.3,5.2c0.2,2.1,0.7,3.8,1.7,5.1c1.4,2,3.9,3.3,6.5,3.3c1.1,0,2.2-0.2,3.1-0.7c3.2-1.6,3.7-5,4-6.9
			c1.4-10.1,1.6-17.7,0.6-24.8C284.9,45.3,284.8,44.6,284.3,43.8z"/>
		<path fill="#9e9e9e" d="M174.3,39.1L174.3,39.1c-0.9,0-1.7,0.4-2.3,1c-0.6,0.6-0.9,1.5-0.9,2.4c0.2,4.4,0.1,8.8-0.1,13.2
			c-0.3-0.7-0.5-1.4-0.8-2.1c-0.3-0.7-0.5-1.6-0.8-2.6c-0.3-1-0.6-2-1-3.1c0-1.3,0-2.5,0-3.7c0-1.4-0.9-2.6-2.2-3.1
			c-0.6-0.2-1.2-0.3-1.8-0.1c0,0,0,0,0,0c-0.7-0.6-1.6-0.8-2.5-0.7c-0.9,0.1-1.8,0.6-2.4,1.4c-0.5,0.7-0.8,1.5-0.7,2.3
			c0.1,0.8,0.5,1.6,1.2,2.1c0.1,0.1,0.3,0.4,0.7,1.5c0.1,0.4,0.3,0.7,0.4,1c0.2,0.5,0.4,1,0.7,1.5c-0.2,4.1-0.6,8.3-1.1,12.4
			c-0.4,3.5-0.8,7.2-1,10.7c-0.1,1.2,0.4,2.3,1.4,2.9c1,0.7,2.4,0.7,3.5,0.2c1.1-0.5,1.8-1.6,1.8-2.8c0.2-2.8,0.5-5.7,0.8-8.6
			c0.9,2.8,1.7,6,1.9,9.3c0.2,1.9,1.9,3.1,3.4,3.2l0.1,0c1.6,0,2.8-1.1,3.1-2.6c1.9-10.7,2.6-21.5,2.3-32.2
			C177.8,40.4,176.3,39,174.3,39.1z"/>
		<path fill="#9e9e9e" d="M288.9,35.2c-0.2-2.1-1.8-3.6-3.7-3.5c-1,0-2,0.5-2.7,1.3c-0.6,0.7-0.9,1.6-0.8,2.5c0,0.1,0,0.3,0,0.4
			l-0.1,0.2c-0.8,1.8-0.2,3.8,1.4,4.7c0.5,0.3,1.2,0.5,1.8,0.5c0.4,0,0.8-0.1,1.1-0.2c0.9-0.3,1.7-0.9,2.1-1.8
			C288.8,38,289.1,36.6,288.9,35.2z"/>
		<path fill="#9e9e9e" d="M270.1,38.6c1.4-1.4,1.4-3.6,0.1-5.1c-1-1-2.2-1.8-3.6-2.2c-0.9-0.3-2-0.1-2.9,0.4
			c-0.9,0.5-1.5,1.3-1.7,2.3c-0.4,1.9,0.6,3.8,2.4,4.3c0.1,0.1,0.2,0.1,0.3,0.1l0.1,0c0.1,0.1,0.1,0.1,0.2,0.2
			c0.6,0.7,1.5,1.1,2.6,1.1C268.5,39.6,269.4,39.3,270.1,38.6z"/>
	</g>
	<g>
		<g>
			<path fill="#9e9e9e" d="M28.7,48.7c0-0.8-0.7-1.5-1.5-1.5c-0.8,0-1.5,0.6-1.5,1.5c0,0.2,0,0.3,0,0.5c0,0.8,0.7,1.5,1.5,1.5
				c0.8,0,1.5-0.6,1.5-1.5C28.7,49,28.7,48.8,28.7,48.7z"/>
			<path fill="#9e9e9e" d="M44.3,47.1c-0.5-0.5-1.5-0.6-2.1,0c-0.5,0.6-0.6,1.5,0,2.1c0.2,0.2,0.3,0.3,0.5,0.5
				c0.5,0.5,1.5,0.6,2.1,0c0.5-0.6,0.6-1.5,0-2.1C44.7,47.5,44.5,47.3,44.3,47.1z"/>
			<path fill="#9e9e9e" d="M86.5,47.9c-0.4-2.3-1.1-4.6-1.9-6.6c-1.6-3.8-4-7.5-7.1-10.6c0.5-3.3-0.5-6.5-1.3-8.7
				c-1.4-3.7-2.2-6.8-2.4-9.7c-0.3-3.6-0.8-8-4.2-10.1C66-0.1,61.8,1,57.7,5.2c-3.2,3.2-6.1,7-8.8,11.3c-3.7-0.8-7.4-1.2-11-1.4
				c-2.1-0.1-4.2,0.1-6.5,0.3c-0.2,0-0.5,0-0.6,0c-0.1,0-0.3-0.1-0.5-0.2c-2.1-0.9-4.1-2.2-5.9-3.4c-2.1-1.3-4.2-2.7-6.6-3.7
				C11.8,5.6,7,6.6,5.1,10.7C3.4,14.5,3.7,19,4,23l0,0.2c0,0.5,0.1,1.1,0.1,1.6c0.1,1.5,0.2,3,0.3,4.6c0.2,3.3,0.4,6.6,0.5,10
				c-3.1,7.2-4.3,14.8-3.5,22.1c1,9,5.3,16.2,12,20.5c4,2.5,8.7,4.2,14.4,5.2c5.2,0.9,10.6,1.4,16.1,1.5c0.4,0,0.8,0,1.1,0
				c12.6,0,34.5-2.7,40.1-20.5C87.2,61.3,87.7,54.3,86.5,47.9z M56.3,15.6l0.5-0.7c0.9-1.3,1.9-2.5,2.9-3.6c4.3-4.8,6.1-4.8,6.4-4.7
				c0.4,0.1,0.7,0.5,1,1.4c0.6,1.7,0.8,3.5,1.1,5.4c0.2,1.9,0.5,3.9,1.1,5.9c0.2,0.7,0.5,1.4,0.7,2.2l0.1,0.3c0.3,1,0.7,2,1,3
				c0,0.1,0.1,0.3,0.2,0.5c0,0.1,0,0.1,0.1,0.2c-0.2-0.1-0.3-0.2-0.5-0.4c-1.1-0.7-2.2-1.4-3.4-2.1c-0.1-0.9-0.9-3.5-1.1-4.5
				c-0.2-1.2-0.4-2.4-0.6-3.6c-0.1-0.8-0.5-1.4-1.1-1.8c-0.6-0.4-1.4-0.5-2.2-0.3c-1.6,0.4-2.3,2.3-3.6,3.4c-0.6,0.5-1.8,2.1-2,2.4
				c-0.1,0-0.2-0.1-0.4-0.1c-0.6-0.2-1.3-0.4-1.9-0.6l-0.1,0C55.2,17.1,55.7,16.3,56.3,15.6z M9.6,16.1L9.6,16.1
				c0.1-0.8,0.2-1.8,0.5-2.7c0.2-0.4,0.5-1.3,3-0.9c1.6,0.3,3.2,1,5.4,2.2c1.1,0.6,2.1,1.3,3.1,1.9c0.6,0.4,1.1,0.7,1.7,1.1
				c-0.1,0.1-0.1,0.1-0.2,0.1c-0.8,0.4-1.4,0.8-2,1.2c-0.7-0.2-1.3-0.3-2-0.6c-0.8-0.3-1.5-0.6-2.3-1c-0.8-0.4-1.6-0.8-2.5-0.6
				c-0.6,0.1-1.3,0.5-1.6,1c-0.4,0.6-0.4,1.3-0.3,1.9c0.1,0.8,0.2,1.6,0.3,2.5c0,0.5,0.1,1,0.1,1.5c0,0.7,0,1.5,0,2.2
				c0,0.2,0,0.5,0,0.8c-0.4,0.5-0.9,1-1.3,1.6c-0.5,0.6-1,1.3-1.5,1.9c0-0.1,0-0.2,0-0.3C9.6,25.4,9.3,20.6,9.6,16.1z M80.8,60
				c-0.5,4.6-1.5,8-3.3,10.8c-1.8,2.8-4.5,5.2-8.2,7.1c-6.2,3.2-14.2,4.9-23.7,5c-22.2,0.3-34.5-5.5-37.8-17.6
				c-2-7.4-1.2-15.9,2.3-23.8c0.2-0.2,0.3-0.5,0.3-0.8c2-4.2,4.7-8.3,7.9-11.6l1-1c0.7-0.7,1.3-1.3,2-1.9c1-0.8,2-1.6,3-2.4
				c3.6-2.3,7.7-2.9,10.6-3c8.6-0.4,17.7,2.3,23.8,4.6c7.9,3,14.1,7.5,18,13.2C80.5,44.1,81.8,50.8,80.8,60z"/>
			<path fill="#9e9e9e" d="M42,60.7c-1.7-0.1-3.5-0.2-5.2-0.3c0-0.8-0.1-1.5-0.2-2.3c0.1,0,0.1,0,0.2,0c1.5-0.4,2.8-1.9,2.6-3.5
				c-0.1-1.1-1.1-1.8-2.2-1.3c-1.3,0.6-2.8,0.9-4.2,0.8c-0.3-0.1-0.6-0.1-0.8,0c-0.6,0.1-0.9,0.6-0.9,1.2c-0.1,0.5,0.1,1.1,0.7,1.5
				c0.6,0.4,1.2,0.7,1.8,1c0,0,0,0.1,0,0.1c0,0.6,0,1.1,0.1,1.7c0,0.3,0.1,0.7,0.1,1.1c-1.3,0.6-2.9,0.8-4.2,0.8
				c-1.9,0-1.9,2.9,0,2.9c1.9,0,3.9-0.3,5.7-1.2c0.1,0,0.2,0,0.3,0c2.1,0.1,4.2,0.3,6.3,0.4C43.8,63.7,43.8,60.8,42,60.7z"/>
		</g>
		<g>
			<path fill="#9e9e9e" d="M21.3,94.7c4.4,2.6,11.2,3.4,16.4,3.9c11.3,1.1,22.3-0.6,32.6-4.5c4.4-1.6,0.6-6.9-3.8-5.3
				c-9,3.4-19,4.8-28.9,3.7c-4-0.5-9.1-1.1-12.5-3.1C21.1,87.2,17.4,92.4,21.3,94.7L21.3,94.7z"/>
		</g>
	</g>
</g>
</svg>
