<?xml version="1.0" encoding="utf-8"?>
<!-- Generator: Adobe Illustrator 18.1.1, SVG Export Plug-In . SVG Version: 6.00 Build 0)  -->
<svg version="1.1" id="Layer_1" xmlns="http://www.w3.org/2000/svg" xmlns:xlink="http://www.w3.org/1999/xlink" x="0px" y="0px"
	 viewBox="-7 0 64 50" enable-background="new -7 0 64 50" xml:space="preserve">
<g display="none">
	<g display="inline">
		<defs>
			<rect id="SVGID_1_" x="0.8" y="10.5" width="44.8" height="29"/>
		</defs>
		<clipPath id="SVGID_2_">
			<use xlink:href="#SVGID_1_"  overflow="visible"/>
		</clipPath>
		<path clip-path="url(#SVGID_2_)" fill="#747474" d="M33.8,29.9H8.8c-0.5,0-0.9-0.4-0.9-0.9V11.4c0-0.5,0.4-0.9,0.9-0.9h25.1
			c0.5,0,0.9,0.4,0.9,0.9V29C34.8,29.5,34.3,29.9,33.8,29.9 M9.6,28.1h23.3V12.3H9.6V28.1z"/>
	</g>
	<g display="inline">
		<defs>
			<rect id="SVGID_3_" x="0.8" y="10.5" width="44.8" height="29"/>
		</defs>
		<clipPath id="SVGID_4_">
			<use xlink:href="#SVGID_3_"  overflow="visible"/>
		</clipPath>
		<path clip-path="url(#SVGID_4_)" fill="#FFFFFF" d="M41.3,19.8v-2.3c0-1.5-1.2-2.8-2.8-2.8h-4.7v5.1V29h7.4h3.5v-6.5
			c0-1.5-1.2-2.8-2.8-2.8H41.3z"/>
	</g>
	<g display="inline">
		<defs>
			<rect id="SVGID_5_" x="0.8" y="10.5" width="44.8" height="29"/>
		</defs>
		<clipPath id="SVGID_6_">
			<use xlink:href="#SVGID_5_"  overflow="visible"/>
		</clipPath>
		<path clip-path="url(#SVGID_6_)" fill="#747474" d="M44.8,29.9H33.8c-0.5,0-0.9-0.4-0.9-0.9V14.8c0-0.5,0.4-0.9,0.9-0.9h4.7
			c2,0,3.7,1.6,3.7,3.6V19c2,0,3.5,1.6,3.5,3.6V29C45.7,29.5,45.3,29.9,44.8,29.9 M34.8,28.1h9.1v-5.6c0-1-0.8-1.8-1.8-1.8h-0.8
			c-0.5,0-0.9-0.4-0.9-0.9v-2.3c0-1-0.8-1.9-1.8-1.9h-3.8L34.8,28.1L34.8,28.1z"/>
	</g>
	<g display="inline">
		<defs>
			<rect id="SVGID_7_" x="0.8" y="10.5" width="44.8" height="29"/>
		</defs>
		<clipPath id="SVGID_8_">
			<use xlink:href="#SVGID_7_"  overflow="visible"/>
		</clipPath>
		<rect x="8.8" y="29" clip-path="url(#SVGID_8_)" fill="#D4CAED" width="36" height="5"/>
	</g>
	<g display="inline">
		<defs>
			<rect id="SVGID_9_" x="0.8" y="10.5" width="44.8" height="29"/>
		</defs>
		<clipPath id="SVGID_10_">
			<use xlink:href="#SVGID_9_"  overflow="visible"/>
		</clipPath>
		<path clip-path="url(#SVGID_10_)" fill="#747474" d="M44.8,34.8h-36c-0.5,0-0.9-0.4-0.9-0.9v-5c0-0.5,0.4-0.9,0.9-0.9h36
			c0.5,0,0.9,0.4,0.9,0.9v5C45.7,34.5,45.3,34.8,44.8,34.8 M9.6,33h34.2v-3.1H9.6V33z"/>
	</g>
	<g display="inline">
		<defs>
			<rect id="SVGID_11_" x="0.8" y="10.5" width="44.8" height="29"/>
		</defs>
		<clipPath id="SVGID_12_">
			<use xlink:href="#SVGID_11_"  overflow="visible"/>
		</clipPath>
		<path clip-path="url(#SVGID_12_)" fill="#FFFFFF" d="M19.1,34.8c0,2.1-1.7,3.8-3.8,3.8s-3.8-1.7-3.8-3.8c0-2.1,1.7-3.8,3.8-3.8
			C17.4,31,19.1,32.7,19.1,34.8"/>
	</g>
	<g display="inline">
		<defs>
			<rect id="SVGID_13_" x="0.8" y="10.5" width="44.8" height="29"/>
		</defs>
		<clipPath id="SVGID_14_">
			<use xlink:href="#SVGID_13_"  overflow="visible"/>
		</clipPath>
		<path clip-path="url(#SVGID_14_)" fill="#747474" d="M15.3,39.5c-2.6,0-4.7-2.1-4.7-4.7s2.1-4.7,4.7-4.7s4.7,2.1,4.7,4.7
			S17.9,39.5,15.3,39.5 M15.3,32c-1.6,0-2.9,1.3-2.9,2.9c0,1.6,1.3,2.9,2.9,2.9s2.9-1.3,2.9-2.9C18.2,33.2,16.9,32,15.3,32"/>
	</g>
	<g display="inline">
		<defs>
			<rect id="SVGID_15_" x="0.8" y="10.5" width="44.8" height="29"/>
		</defs>
		<clipPath id="SVGID_16_">
			<use xlink:href="#SVGID_15_"  overflow="visible"/>
		</clipPath>
		<path clip-path="url(#SVGID_16_)" fill="#FFFFFF" d="M16.5,34.8c0,0.6-0.5,1.1-1.1,1.1s-1.1-0.5-1.1-1.1s0.5-1.1,1.1-1.1
			C15.9,33.7,16.5,34.2,16.5,34.8"/>
	</g>
	<g display="inline">
		<defs>
			<rect id="SVGID_17_" x="0.8" y="10.5" width="44.8" height="29"/>
		</defs>
		<clipPath id="SVGID_18_">
			<use xlink:href="#SVGID_17_"  overflow="visible"/>
		</clipPath>
		<path clip-path="url(#SVGID_18_)" fill="#747474" d="M15.3,36.7c-1.1,0-1.9-0.9-1.9-1.9c0-1.1,0.9-1.9,1.9-1.9s1.9,0.8,1.9,1.9
			C17.2,35.8,16.4,36.7,15.3,36.7 M15.3,34.5c-0.2,0-0.4,0.1-0.4,0.4c0,0.2,0.1,0.4,0.4,0.4c0.2,0,0.4-0.2,0.4-0.4
			S15.5,34.5,15.3,34.5"/>
	</g>
	<g display="inline">
		<defs>
			<rect id="SVGID_19_" x="0.8" y="10.5" width="44.8" height="29"/>
		</defs>
		<clipPath id="SVGID_20_">
			<use xlink:href="#SVGID_19_"  overflow="visible"/>
		</clipPath>
		<path clip-path="url(#SVGID_20_)" fill="#FFFFFF" d="M41.4,34.8c0,2.1-1.7,3.8-3.8,3.8s-3.8-1.7-3.8-3.8c0-2.1,1.7-3.8,3.8-3.8
			C39.8,31,41.4,32.7,41.4,34.8"/>
	</g>
	<g display="inline">
		<defs>
			<rect id="SVGID_21_" x="0.8" y="10.5" width="44.8" height="29"/>
		</defs>
		<clipPath id="SVGID_22_">
			<use xlink:href="#SVGID_21_"  overflow="visible"/>
		</clipPath>
		<path clip-path="url(#SVGID_22_)" fill="#747474" d="M37.7,39.5c-2.6,0-4.7-2.1-4.7-4.7s2.1-4.7,4.7-4.7c2.6,0,4.7,2.1,4.7,4.7
			C42.3,37.4,40.2,39.5,37.7,39.5 M37.7,32c-1.6,0-2.9,1.3-2.9,2.9c0,1.6,1.3,2.9,2.9,2.9s2.9-1.3,2.9-2.9
			C40.5,33.2,39.3,32,37.7,32"/>
	</g>
	<g display="inline">
		<defs>
			<rect id="SVGID_23_" x="0.8" y="10.5" width="44.8" height="29"/>
		</defs>
		<clipPath id="SVGID_24_">
			<use xlink:href="#SVGID_23_"  overflow="visible"/>
		</clipPath>
		<path clip-path="url(#SVGID_24_)" fill="#FFFFFF" d="M38.8,34.8c0,0.6-0.5,1.1-1.2,1.1s-1.2-0.5-1.2-1.1s0.5-1.1,1.2-1.1
			C38.3,33.7,38.8,34.2,38.8,34.8"/>
	</g>
	<g display="inline">
		<defs>
			<rect id="SVGID_25_" x="0.8" y="10.5" width="44.8" height="29"/>
		</defs>
		<clipPath id="SVGID_26_">
			<use xlink:href="#SVGID_25_"  overflow="visible"/>
		</clipPath>
		<path clip-path="url(#SVGID_26_)" fill="#747474" d="M37.7,36.7c-1,0-1.9-0.9-1.9-1.9c0-1.1,0.8-1.9,1.9-1.9c1,0,1.9,0.8,1.9,1.9
			C39.5,35.8,38.7,36.7,37.7,36.7 M37.7,34.5c-0.2,0-0.4,0.1-0.4,0.4c0,0.2,0.2,0.4,0.4,0.4c0.2,0,0.4-0.2,0.4-0.4
			C38,34.6,37.8,34.5,37.7,34.5"/>
	</g>
	<g display="inline">
		<defs>
			<rect id="SVGID_27_" x="0.8" y="10.5" width="44.8" height="29"/>
		</defs>
		<clipPath id="SVGID_28_">
			<use xlink:href="#SVGID_27_"  overflow="visible"/>
		</clipPath>
		<path clip-path="url(#SVGID_28_)" fill="#FFFFFF" d="M38.8,17.5c0-0.2-0.2-0.4-0.3-0.4h-2.3v2.7h2.6V17.5z"/>
	</g>
	<g display="inline">
		<defs>
			<rect id="SVGID_29_" x="0.8" y="10.5" width="44.8" height="29"/>
		</defs>
		<clipPath id="SVGID_30_">
			<use xlink:href="#SVGID_29_"  overflow="visible"/>
		</clipPath>
		<path clip-path="url(#SVGID_30_)" fill="#747474" d="M38.8,20.5h-2.6c-0.4,0-0.8-0.3-0.8-0.8v-2.7c0-0.4,0.3-0.8,0.8-0.8h2.3
			c0.6,0,1.1,0.5,1.1,1.1v2.4C39.6,20.3,39.3,20.5,38.8,20.5 M37,19h1.1v-1.2H37V19z"/>
	</g>
	<g display="inline">
		<defs>
			<rect id="SVGID_31_" x="0.8" y="10.5" width="44.8" height="29"/>
		</defs>
		<clipPath id="SVGID_32_">
			<use xlink:href="#SVGID_31_"  overflow="visible"/>
		</clipPath>
		<line clip-path="url(#SVGID_32_)" fill="none" x1="5.8" y1="34" x2="1.6" y2="34"/>
	</g>
	<g display="inline">
		<defs>
			<rect id="SVGID_33_" x="0.8" y="10.5" width="44.8" height="29"/>
		</defs>
		<clipPath id="SVGID_34_">
			<use xlink:href="#SVGID_33_"  overflow="visible"/>
		</clipPath>
		<path clip-path="url(#SVGID_34_)" fill="#747474" d="M5.8,34.7H1.6c-0.4,0-0.8-0.4-0.8-0.8s0.4-0.8,0.8-0.8h4.2
			c0.4,0,0.8,0.4,0.8,0.8S6.2,34.7,5.8,34.7"/>
	</g>
	<g display="inline">
		<defs>
			<rect id="SVGID_35_" x="0.8" y="10.5" width="44.8" height="29"/>
		</defs>
		<clipPath id="SVGID_36_">
			<use xlink:href="#SVGID_35_"  overflow="visible"/>
		</clipPath>
		<line clip-path="url(#SVGID_36_)" fill="none" x1="5.8" y1="31.5" x2="2.8" y2="31.5"/>
	</g>
	<g display="inline">
		<defs>
			<rect id="SVGID_37_" x="0.8" y="10.5" width="44.8" height="29"/>
		</defs>
		<clipPath id="SVGID_38_">
			<use xlink:href="#SVGID_37_"  overflow="visible"/>
		</clipPath>
		<path clip-path="url(#SVGID_38_)" fill="#747474" d="M5.8,32.2h-3c-0.4,0-0.8-0.4-0.8-0.8s0.3-0.8,0.8-0.8h3
			c0.4,0,0.8,0.4,0.8,0.8C6.6,31.9,6.2,32.2,5.8,32.2"/>
	</g>
	<g display="inline">
		<defs>
			<rect id="SVGID_39_" x="0.8" y="10.5" width="44.8" height="29"/>
		</defs>
		<clipPath id="SVGID_40_">
			<use xlink:href="#SVGID_39_"  overflow="visible"/>
		</clipPath>
		<line clip-path="url(#SVGID_40_)" fill="none" x1="5.8" y1="29" x2="1.6" y2="29"/>
	</g>
	<g display="inline">
		<defs>
			<rect id="SVGID_41_" x="0.8" y="10.5" width="44.8" height="29"/>
		</defs>
		<clipPath id="SVGID_42_">
			<use xlink:href="#SVGID_41_"  overflow="visible"/>
		</clipPath>
		<path clip-path="url(#SVGID_42_)" fill="#747474" d="M5.8,29.8H1.6c-0.4,0-0.8-0.4-0.8-0.8s0.4-0.8,0.8-0.8h4.2
			c0.4,0,0.8,0.4,0.8,0.8C6.6,29.4,6.2,29.8,5.8,29.8"/>
	</g>
	<g display="inline">
		<defs>
			<rect id="SVGID_43_" x="0.8" y="10.5" width="44.8" height="29"/>
		</defs>
		<clipPath id="SVGID_44_">
			<use xlink:href="#SVGID_43_"  overflow="visible"/>
		</clipPath>
		<line clip-path="url(#SVGID_44_)" fill="none" x1="36.3" y1="22.4" x2="37.8" y2="22.4"/>
	</g>
	<g display="inline">
		<defs>
			<rect id="SVGID_45_" x="0.8" y="10.5" width="44.8" height="29"/>
		</defs>
		<clipPath id="SVGID_46_">
			<use xlink:href="#SVGID_45_"  overflow="visible"/>
		</clipPath>
		<path clip-path="url(#SVGID_46_)" fill="#747474" d="M37.8,23.1h-1.6c-0.4,0-0.8-0.4-0.8-0.8s0.3-0.8,0.8-0.8h1.6
			c0.4,0,0.8,0.4,0.8,0.8C38.6,22.8,38.3,23.1,37.8,23.1"/>
	</g>
</g>
<g>
	<rect x="14.2" y="36.3" fill="#D4CAED" width="17.3" height="3"/>
	<rect x="-1.3" y="36.3" fill="#D4CAED" width="7.1" height="3"/>
	<polygon fill="#D4CAED" points="49.3,29.1 36.9,29.1 36.9,21.7 44.6,21.8 	"/>
	<g>
		<g>
			<g>
				<path fill="#747474" stroke="#747474" stroke-width="1.0552" stroke-miterlimit="10" d="M10,34.9c-2.9,0-5.3,2.4-5.3,5.3
					s2.4,5.3,5.3,5.3s5.3-2.4,5.3-5.3C15.3,37.3,13,34.9,10,34.9z M10,43.7c-1.9,0-3.5-1.6-3.5-3.5c0-1.9,1.6-3.5,3.5-3.5
					s3.5,1.6,3.5,3.5C13.6,42.2,12,43.7,10,43.7z"/>
			</g>
		</g>
		<g>
			<g>
				<path fill="#747474" stroke="#747474" stroke-width="1.0552" stroke-miterlimit="10" d="M39.9,34.9c-2.9,0-5.3,2.4-5.3,5.3
					s2.4,5.3,5.3,5.3c2.9,0,5.3-2.4,5.3-5.3C45.2,37.3,42.8,34.9,39.9,34.9z M39.9,43.7c-1.9,0-3.5-1.6-3.5-3.5
					c0-1.9,1.6-3.5,3.5-3.5c1.9,0,3.5,1.6,3.5,3.5S41.9,43.7,39.9,43.7z"/>
			</g>
		</g>
		<g>
			<g>
				<path fill="#747474" stroke="#747474" stroke-width="1.0552" stroke-miterlimit="10" d="M50.4,30.1l-7.9-12.3
					c-0.2-0.3-0.4-0.4-0.7-0.4H32c-0.5,0-0.9,0.4-0.9,0.9v22c0,0.5,0.4,0.9,0.9,0.9h3.5v-1.8h-2.6V19.1h8.3l7.5,11.7v8.5h-4.4v1.8
					h5.3c0.5,0,0.9-0.4,0.9-0.9v-9.7C50.5,30.4,50.4,30.2,50.4,30.1z"/>
			</g>
		</g>
		<g>
			<g>
				<path fill="#747474" stroke="#747474" stroke-width="0.5" stroke-miterlimit="10" d="M37.4,28.4v-5.8H44v-1.7h-7.5
					c-0.5,0-0.8,0.4-0.8,0.8v7.5c0,0.5,0.4,0.8,0.8,0.8H49v-1.7L37.4,28.4L37.4,28.4z"/>
			</g>
		</g>
		<g>
			<g>
				<path fill="#747474" stroke="#747474" stroke-width="1.0552" stroke-miterlimit="10" d="M32,11.2H-1.4c-0.5,0-0.9,0.4-0.9,0.9
					v28.1c0,0.5,0.4,0.9,0.9,0.9h7v-1.8h-6.2V13h31.7v26.4H14.4v1.8H32c0.5,0,0.9-0.4,0.9-0.9V12.1C32.9,11.6,32.5,11.2,32,11.2z"/>
			</g>
		</g>
		<g>
			<g>
				<rect x="-1.1" y="35.1" fill="#747474" width="32.2" height="1.8"/>
			</g>
		</g>
		<g>
			<g>
				<path fill="#747474" d="M47,35.8h2.6v1.8H47c-0.5,0-0.9-0.4-0.9-0.9v0C46.1,36.2,46.5,35.8,47,35.8z"/>
			</g>
		</g>
		<g>
			<g>
				<path fill="#747474" d="M3.1,14.7H32v1.8H3.1c-0.5,0-0.9-0.4-0.9-0.9v0C2.2,15.1,2.6,14.7,3.1,14.7z"/>
			</g>
		</g>
		<g>
			<g>
				<path fill="#747474" stroke="#747474" stroke-width="0.8" stroke-miterlimit="10" d="M-2.1,6.6H8.5c0.5,0,0.9,0.4,0.9,0.9v0
					c0,0.5-0.4,0.9-0.9,0.9H-2.1C-2.6,8.4-3,8-3,7.5v0C-3,7-2.6,6.6-2.1,6.6z"/>
			</g>
		</g>
		<g>
			<g>
				<path fill="#747474" stroke="#747474" stroke-width="0.8" stroke-miterlimit="10" d="M-5.6,2.5H4.9c0.5,0,0.9,0.4,0.9,0.9v0
					c0,0.5-0.4,0.9-0.9,0.9H-5.6c-0.5,0-0.9-0.4-0.9-0.9v0C-6.5,2.9-6.1,2.5-5.6,2.5z"/>
			</g>
		</g>
	</g>
</g>
</svg>
