<?xml version="1.0" encoding="utf-8"?>
<!-- Generator: Adobe Illustrator 16.0.0, SVG Export Plug-In . SVG Version: 6.00 Build 0)  -->
<!DOCTYPE svg PUBLIC "-//W3C//DTD SVG 1.1//EN" "http://www.w3.org/Graphics/SVG/1.1/DTD/svg11.dtd">
<svg version="1.1" id="레이어_1" xmlns="http://www.w3.org/2000/svg" xmlns:xlink="http://www.w3.org/1999/xlink" x="0px"
	 y="0px" width="48px" height="48px" viewBox="0 0 48 48" enable-background="new 0 0 48 48" xml:space="preserve">
<g>
	<path fill="#727075" d="M19.384,18.178l-1.541,4.261h3.132l-1.541-4.325C19.416,18.114,19.401,18.178,19.384,18.178"/>
	<path fill="#727075" d="M24,2.87c-12.703,0-23,8.141-23,18.183c0,6.537,4.363,12.265,10.911,15.469
		c-0.48,1.797-1.742,6.507-1.995,7.515c-0.311,1.251,0.46,1.234,0.963,0.896c0.396-0.263,6.303-4.278,8.853-6.011
		c1.383,0.205,2.81,0.313,4.269,0.313c12.702,0,23-8.142,23-18.183C47,11.011,36.702,2.87,24,2.87 M12.687,26.043
		c0,0.295-0.123,0.604-0.333,0.813c-0.206,0.207-0.495,0.35-0.788,0.35h-0.244c-0.295,0-0.533-0.143-0.737-0.351
		c-0.21-0.208-0.28-0.52-0.28-0.813V18.27H8.019c-0.632,0-1.144-0.56-1.144-1.192c0-0.631,0.512-1.191,1.144-1.191h6.727
		c0.633,0,1.145,0.56,1.145,1.191c0,0.632-0.512,1.192-1.145,1.192h-2.059V26.043z M23.69,27.1
		c-0.579,0.204-1.215-0.085-1.418-0.665l-0.57-1.612h-4.588l-0.569,1.612c-0.204,0.58-0.84,0.877-1.418,0.674
		s-0.884-0.842-0.68-1.423l3.296-8.842c0.019-0.053,0.041-0.103,0.063-0.152c0.135-0.654,0.812-1.155,1.63-1.155
		c0.737,0,1.355,0.407,1.57,0.965c0.004,0.003,0.011,0.01,0.011,0.01l3.353,9.17C24.573,26.263,24.269,26.896,23.69,27.1
		 M30.908,27.206h-4.571c-0.575,0-1.038-0.526-1.038-1.101c0-0.065-0.044-0.163-0.031-0.229c-0.011-0.064-0.07-0.159-0.07-0.229
		v-8.87c0-0.686,0.506-1.242,1.19-1.242c0.686,0,1.192,0.556,1.192,1.242v8.044h3.328c0.574,0,1.037,0.619,1.037,1.19
		C31.945,26.588,31.482,27.206,30.908,27.206 M40.682,26.939c-0.489,0.37-1.187,0.27-1.554-0.221l-3.195-4.327L35.324,23.1v2.821
		c0,0.687-0.804,1.241-1.489,1.241s-1.489-0.555-1.489-1.241v-9.143c0-0.686,0.804-1.242,1.489-1.242s1.489,0.556,1.489,1.242v3.232
		l3.798-3.898c0.428-0.426,1.069-0.426,1.495,0c0.426,0.427,0.401,1.119-0.025,1.545l-3.162,3.15l3.479,4.577
		C41.276,25.875,41.172,26.571,40.682,26.939"/>
</g>
</svg>
