<?xml version="1.0" encoding="utf-8"?>
<!-- Generator: Adobe Illustrator 18.1.1, SVG Export Plug-In . SVG Version: 6.00 Build 0)  -->
<svg version="1.1" id="Layer_1" xmlns="http://www.w3.org/2000/svg" xmlns:xlink="http://www.w3.org/1999/xlink" x="0px" y="0px"
	 viewBox="0 0 56 56" enable-background="new 0 0 56 56" xml:space="preserve">
<circle fill="#7953D0" cx="28" cy="28" r="25"/>
<g>
	<path fill="#FFFFFF" d="M40,18h-2.5h-3.6v-3.1c0-1-1-1.9-2.1-1.9h-7.5c-1,0-2.1,0.8-2.1,1.9V18h-3h-3.1c-0.7,0-1.2,0.6-1.2,1.2
		c0,0.7,0.6,1.2,1.2,1.2h0.2v16.6c0,3.2,3.1,5.9,6.1,5.9h12.4c2.5,0,4-2.3,4-5.4V20.5h1c0.7,0,1.2-0.6,1.2-1.2
		C41.2,18.5,40.6,18,40,18z M24.8,15.5h6.7v1.7h-6.7V15.5z M36.4,37.7c0,1.1-0.1,2.8-1.6,2.8H22.4c-1.7,0-3.6-1.7-3.6-3.5V20.5h17.6
		V37.7z"/>
	<path fill="#FFFFFF" d="M22.6,37.5c0.7,0,1.2-0.6,1.2-1.2V24.9c0-0.7-0.6-1.2-1.2-1.2c-0.7,0-1.2,0.6-1.2,1.2v11.3
		C21.4,36.9,21.9,37.5,22.6,37.5z"/>
	<path fill="#FFFFFF" d="M27.6,37.5c0.7,0,1.2-0.6,1.2-1.2V24.9c0-0.7-0.6-1.2-1.2-1.2s-1.2,0.6-1.2,1.2v11.3
		C26.3,36.9,26.9,37.5,27.6,37.5z"/>
	<path fill="#FFFFFF" d="M32.7,37.5c0.7,0,1.2-0.6,1.2-1.2V24.9c0-0.7-0.6-1.2-1.2-1.2c-0.7,0-1.2,0.6-1.2,1.2v11.3
		C31.3,36.9,31.9,37.5,32.7,37.5z"/>
</g>
</svg>
