<?xml version="1.0" encoding="utf-8"?>
<!-- Generator: Adobe Illustrator 16.0.0, SVG Export Plug-In . SVG Version: 6.00 Build 0)  -->
<!DOCTYPE svg PUBLIC "-//W3C//DTD SVG 1.1//EN" "http://www.w3.org/Graphics/SVG/1.1/DTD/svg11.dtd">
<svg version="1.1" id="레이어_1" xmlns="http://www.w3.org/2000/svg" xmlns:xlink="http://www.w3.org/1999/xlink" x="0px"
	 y="0px" width="48px" height="48px" viewBox="0 0 48 48" enable-background="new 0 0 48 48" xml:space="preserve">
<path fill="#9d9ba1" d="M34.35,2.897c-4.001,0-7.842,1.863-10.35,4.809c-2.508-2.945-6.348-4.809-10.35-4.809
	C6.565,2.897,1,8.464,1,15.549c0,8.694,7.82,15.777,19.665,26.544L24,45.103l3.336-3.035C39.18,31.326,47,24.243,47,15.549
	C47,8.464,41.435,2.897,34.35,2.897 M24.229,38.664L24,38.896l-0.23-0.231C12.822,28.75,5.599,22.197,5.599,15.549
	c0-4.601,3.451-8.051,8.051-8.051c3.542,0,6.992,2.278,8.21,5.428h4.302c1.195-3.15,4.646-5.428,8.188-5.428
	c4.602,0,8.053,3.451,8.053,8.051C42.402,22.197,35.178,28.75,24.229,38.664"/>
</svg>
