<?xml version="1.0" encoding="utf-8"?>
<!-- Generator: Adobe Illustrator 18.1.1, SVG Export Plug-In . SVG Version: 6.00 Build 0)  -->
<svg version="1.1" id="Layer_1" xmlns="http://www.w3.org/2000/svg" xmlns:xlink="http://www.w3.org/1999/xlink" x="0px" y="0px"
	 viewBox="0 0 56 56" enable-background="new 0 0 56 56" xml:space="preserve">
<g>
	<path fill="#FFFFFF" d="M45.4,14.9c-1.1-1.1-2.8-1.1-3.9,0L22.4,34.1l-8-8c-1.1-1.1-2.8-1.1-3.9,0s-1.1,2.8,0,3.9l9.9,9.9
		c1.1,1.1,2.8,1.1,3.9,0l21.1-21.1C46.5,17.8,46.5,16,45.4,14.9z"/>
	<path fill="#7953D0" d="M28,3C14.3,3,3,14.3,3,28s11.3,25,25,25s25-11.3,25-25S41.8,3,28,3z M20.5,39.9L10.6,30
		c-1.1-1.1-1.1-2.8,0-3.9s2.8-1.1,3.9,0l8,8L41.6,15c1.1-1.1,2.8-1.1,3.9,0c1.1,1.1,1.1,2.8,0,3.9l-21,21C23.3,41,21.6,41,20.5,39.9
		z"/>
</g>
</svg>
