<?xml version="1.0" encoding="utf-8"?>
<!-- Generator: Adobe Illustrator 18.1.1, SVG Export Plug-In . SVG Version: 6.00 Build 0)  -->
<svg version="1.1" id="Layer_1" xmlns="http://www.w3.org/2000/svg" xmlns:xlink="http://www.w3.org/1999/xlink" x="0px" y="0px"
	 viewBox="0 0 50 50" enable-background="new 0 0 50 50" xml:space="preserve">
<circle fill="#F3F1F6" cx="25" cy="25" r="25"/>
<g display="none">
	<g display="inline">
		<polygon fill="#FFFFFF" points="36.4,18.4 25,11.8 13.6,18.4 13.6,31.6 25,38.1 36.4,31.6 		"/>
		<path fill="#616161" d="M25,38.8c-0.1,0-0.2-0.1-0.3-0.1l-11.4-6.6C13.1,32,13,31.8,13,31.6V18.4c0-0.2,0.1-0.5,0.3-0.6l11.4-6.6
			c0.2-0.1,0.5-0.1,0.7,0l11.4,6.6c0.2,0.1,0.3,0.3,0.3,0.6v13.2c0,0.2-0.1,0.5-0.3,0.6l-11.5,6.6C25.2,38.8,25.1,38.8,25,38.8z
			 M14.3,31.1L25,37.4l10.7-6.2V18.8L25,12.6l-10.7,6.2V31.1z"/>
	</g>
	<g display="inline">
		<polyline fill="#FFFFFF" points="25,38.2 25,25.4 36.4,18.4 		"/>
		<path fill="#616161" d="M25,38.9c-0.4,0-0.7-0.3-0.7-0.7V25.4c0-0.2,0.1-0.4,0.3-0.6l11.4-7c0.3-0.2,0.7-0.1,0.9,0.2
			c0.2,0.3,0.1,0.7-0.2,0.9l-11,6.8v12.4C25.7,38.5,25.4,38.9,25,38.9z"/>
	</g>
	<g display="inline">
		<line fill="none" x1="25" y1="25.4" x2="13.6" y2="18.4"/>
		<path fill="#616161" d="M25,26c-0.1,0-0.2-0.1-0.4-0.1l-11.4-7c-0.3-0.2-0.4-0.6-0.2-0.9c0.2-0.3,0.6-0.4,0.9-0.2l11.4,7
			c0.3,0.2,0.4,0.6,0.2,0.9C25.4,25.9,25.2,26,25,26z"/>
	</g>
	<g display="inline">
		<line fill="none" x1="30.3" y1="21.7" x2="19.7" y2="15.1"/>
		<path fill="#616161" d="M30.3,22.3c-0.1,0-0.3-0.1-0.4-0.1l-10.5-6.6c-0.3-0.2-0.4-0.6-0.2-0.9c0.2-0.3,0.6-0.4,0.9-0.2l10.5,6.6
			c0.3,0.2,0.4,0.6,0.2,0.9C30.7,22.2,30.5,22.3,30.3,22.3z"/>
	</g>
</g>
<g>
	<g>
		<path fill="#FFFFFF" d="M37.1,17.8l-11.8-6.2c-0.2-0.1-0.4-0.1-0.5,0l-11.8,6.2c-0.2,0.1-0.3,0.3-0.3,0.5v13.5
			c0,0.2,0.1,0.4,0.3,0.5l11.8,6.2c0.1,0,0.2,0.1,0.3,0.1s0.2,0,0.3-0.1l11.8-6.2c0.2-0.1,0.3-0.3,0.3-0.5V18.2
			C37.4,18,37.3,17.8,37.1,17.8z"/>
	</g>
</g>
<g>
	<g>
		<path fill="#616161" stroke="#616161" stroke-width="0.3" stroke-miterlimit="10" d="M37.1,17.8l-11.8-6.2c-0.2-0.1-0.4-0.1-0.5,0
			l-11.8,6.2c-0.2,0.1-0.3,0.3-0.3,0.5v13.5c0,0.2,0.1,0.4,0.3,0.5l11.8,6.2c0.1,0,0.2,0.1,0.3,0.1s0.2,0,0.3-0.1l11.8-6.2
			c0.2-0.1,0.3-0.3,0.3-0.5V18.2C37.4,18,37.3,17.8,37.1,17.8z M25,12.7l10.6,5.6l-4.4,2.3l-10.9-5.4L25,12.7z M24.4,37l-10.7-5.6
			V19.2l10.7,5.6L24.4,37L24.4,37z M25,23.8l-10.6-5.6l4.7-2.5L30,21.2L25,23.8z M36.2,31.4L25.6,37V24.8l5.1-2.7v6.8
			c0,0.3,0.3,0.6,0.6,0.6c0.3,0,0.6-0.3,0.6-0.6v-7.4l4.5-2.4L36.2,31.4L36.2,31.4z"/>
	</g>
</g>
</svg>
