<?xml version="1.0" encoding="utf-8"?>
<!-- Generator: Adobe Illustrator 18.1.1, SVG Export Plug-In . SVG Version: 6.00 Build 0)  -->
<svg version="1.1" id="Layer_1" xmlns="http://www.w3.org/2000/svg" xmlns:xlink="http://www.w3.org/1999/xlink" x="0px" y="0px"
	 viewBox="0 0 50 50" enable-background="new 0 0 50 50" xml:space="preserve">
<circle fill="#F3F1F6" cx="25" cy="25" r="25"/>
<g display="none">
	<path display="inline" fill="#616161" d="M37.7,18H12.3c-1.5,0-2.7-1.2-2.7-2.7s1.2-2.7,2.7-2.7h25.3c1.5,0,2.7,1.2,2.7,2.7
		S39.2,18,37.7,18z M12.3,14c-0.8,0-1.4,0.6-1.4,1.4c0,0.8,0.6,1.4,1.4,1.4h25.3c0.8,0,1.4-0.6,1.4-1.4c0-0.8-0.6-1.4-1.4-1.4H12.3z
		"/>
	<g display="inline">
		<polyline fill="#FFFFFF" points="15.8,36.1 15.8,13.3 34.2,13.3 34.2,36.1 		"/>
		<path fill="#616161" d="M34.2,36.8c-0.4,0-0.7-0.3-0.7-0.7V14h-17v22.2c0,0.4-0.3,0.7-0.7,0.7c-0.4,0-0.7-0.3-0.7-0.7V13.3
			c0-0.4,0.3-0.7,0.7-0.7h18.3c0.4,0,0.7,0.3,0.7,0.7v22.9C34.8,36.5,34.5,36.8,34.2,36.8z"/>
	</g>
	<path display="inline" fill="#616161" d="M17.8,37.9c-0.1,0-0.2-0.1-0.3-0.1l-1.8-1.1c-0.3-0.2-0.4-0.6-0.2-0.9
		c0.2-0.3,0.6-0.4,0.9-0.2l1.5,0.9l1.5-0.9c0.2-0.1,0.5-0.1,0.7,0l1.5,0.9l1.5-0.9c0.2-0.1,0.5-0.1,0.7,0l1.5,0.9l1.5-0.9
		c0.2-0.1,0.5-0.1,0.7,0l1.5,0.9l1.5-0.9c0.2-0.1,0.5-0.1,0.7,0l1.5,0.9l1.5-0.9c0.3-0.2,0.7-0.1,0.9,0.2c0.2,0.3,0.1,0.7-0.2,0.9
		l-1.8,1.1c-0.2,0.1-0.5,0.1-0.7,0l-1.5-0.9l-1.5,0.9c-0.2,0.1-0.5,0.1-0.7,0l-1.5-0.9l-1.5,0.9c-0.2,0.1-0.5,0.1-0.7,0l-1.5-0.9
		l-1.5,0.9c-0.2,0.1-0.5,0.1-0.7,0l-1.5-0.9l-1.5,0.9C18,37.9,17.9,37.9,17.8,37.9z"/>
	<g display="inline">
		<line fill="none" x1="19.8" y1="19.2" x2="30.2" y2="19.2"/>
		<path fill="#616161" d="M30.2,19.8H19.8c-0.4,0-0.7-0.3-0.7-0.7c0-0.4,0.3-0.7,0.7-0.7h10.4c0.4,0,0.7,0.3,0.7,0.7
			C30.9,19.5,30.5,19.8,30.2,19.8z"/>
	</g>
	<g display="inline">
		<line fill="none" x1="19.8" y1="23.9" x2="30.2" y2="23.9"/>
		<path fill="#616161" d="M30.2,24.5H19.8c-0.4,0-0.7-0.3-0.7-0.7c0-0.4,0.3-0.7,0.7-0.7h10.4c0.4,0,0.7,0.3,0.7,0.7
			C30.9,24.2,30.5,24.5,30.2,24.5z"/>
	</g>
	<g display="inline">
		<line fill="none" x1="19.8" y1="28.5" x2="30.2" y2="28.5"/>
		<path fill="#616161" d="M30.2,29.2H19.8c-0.4,0-0.7-0.3-0.7-0.7s0.3-0.7,0.7-0.7h10.4c0.4,0,0.7,0.3,0.7,0.7S30.5,29.2,30.2,29.2z
			"/>
	</g>
</g>
<path fill="#FFFFFF" d="M34.1,35.1l-3.8-1.6c-0.2-0.1-0.4-0.1-0.6,0L25,35.4l-4.6-1.9c-0.2-0.1-0.4-0.1-0.6,0l-3.8,1.6V14.6h18.2
	V35.1z"/>
<g>
	<g>
		<g>
			<path fill="#616161" d="M37.2,13.3c-2,0-23.4,0-24.5,0c-0.4,0-0.8,0.3-0.8,0.8s0.3,0.8,0.8,0.8h1.8V36c0,0.3,0.1,0.5,0.3,0.6
				c0.2,0.1,0.5,0.2,0.7,0.1l4.5-1.9l4.5,1.9c0.2,0.1,0.4,0.1,0.6,0l4.5-1.9l4.5,1.9c0.2,0.1,0.5,0.1,0.7-0.1
				c0.2-0.1,0.3-0.4,0.3-0.6V14.8h1.8c0.4,0,0.8-0.3,0.8-0.8S37.7,13.3,37.2,13.3z M33.9,34.8l-3.8-1.6c-0.2-0.1-0.4-0.1-0.6,0
				L25,35.1l-4.5-1.9c-0.2-0.1-0.4-0.1-0.6,0l-3.8,1.6v-20h17.8V34.8z"/>
		</g>
	</g>
	<g>
		<g>
			<path fill="#616161" d="M28.8,17.3h-7.6c-0.4,0-0.8,0.3-0.8,0.8c0,0.4,0.3,0.8,0.8,0.8h7.6c0.4,0,0.8-0.3,0.8-0.8
				C29.6,17.7,29.2,17.3,28.8,17.3z"/>
		</g>
	</g>
	<g>
		<g>
			<path fill="#616161" d="M30.6,23.4h-7.1c-0.4,0-0.8,0.3-0.8,0.8c0,0.4,0.3,0.8,0.8,0.8h7.1c0.4,0,0.8-0.3,0.8-0.8
				C31.3,23.8,31,23.4,30.6,23.4z"/>
		</g>
	</g>
	<g>
		<g>
			<circle fill="#616161" cx="19.5" cy="24.2" r="1"/>
		</g>
	</g>
	<g>
		<g>
			<path fill="#616161" d="M30.6,27.5h-7.1c-0.4,0-0.8,0.3-0.8,0.8c0,0.4,0.3,0.8,0.8,0.8h7.1c0.4,0,0.8-0.3,0.8-0.8
				C31.3,27.8,31,27.5,30.6,27.5z"/>
		</g>
	</g>
	<g>
		<g>
			<circle fill="#616161" cx="19.5" cy="28.2" r="1"/>
		</g>
	</g>
</g>
</svg>
