<?xml version="1.0" encoding="utf-8"?>
<!-- Generator: Adobe Illustrator 18.1.1, SVG Export Plug-In . SVG Version: 6.00 Build 0)  -->
<svg version="1.1" id="Layer_1" xmlns="http://www.w3.org/2000/svg" xmlns:xlink="http://www.w3.org/1999/xlink" x="0px" y="0px"
	 viewBox="0 0 50 50" enable-background="new 0 0 50 50" xml:space="preserve">
<circle fill="#F3F1F6" cx="25" cy="25" r="25"/>
<g display="none">
	<g display="inline">
		<g>
			<path fill="#FFFFFF" d="M37.4,33c0,0.4-0.4,0.8-0.8,0.8H13.3c-0.4,0-0.8-0.4-0.8-0.8V17c0-0.4,0.4-0.8,0.8-0.8h23.3
				c0.4,0,0.8,0.4,0.8,0.8V33z"/>
			<path fill="#616161" d="M36.7,34.4H13.3c-0.8,0-1.4-0.6-1.4-1.4V17c0-0.8,0.6-1.4,1.4-1.4h23.3c0.8,0,1.4,0.6,1.4,1.4V33
				C38.1,33.8,37.4,34.4,36.7,34.4z M13.3,16.9c-0.1,0-0.1,0.1-0.1,0.1V33c0,0.1,0.1,0.1,0.1,0.1h23.3c0.1,0,0.1-0.1,0.1-0.1V17
				c0-0.1-0.1-0.1-0.1-0.1H13.3z"/>
		</g>
		<path fill="#616161" d="M25.7,31.4H15.5c-0.4,0-0.7-0.3-0.7-0.7c0-0.4,0.3-0.7,0.7-0.7h10.2c0.4,0,0.7,0.3,0.7,0.7
			C26.4,31,26.1,31.4,25.7,31.4z"/>
		<path fill="#616161" d="M33.4,31.4h-4.1c-0.4,0-0.7-0.3-0.7-0.7c0-0.4,0.3-0.7,0.7-0.7h4.1c0.4,0,0.7,0.3,0.7,0.7
			C34.1,31,33.8,31.4,33.4,31.4z"/>
	</g>
	<path display="inline" fill="#616161" d="M37,24.9H12.7c-0.4,0-0.7-0.3-0.7-0.7s0.3-0.7,0.7-0.7H37c0.4,0,0.7,0.3,0.7,0.7
		S37.4,24.9,37,24.9z"/>
	<path display="inline" fill="#616161" d="M37,21.5H12.7c-0.4,0-0.7-0.3-0.7-0.7s0.3-0.7,0.7-0.7H37c0.4,0,0.7,0.3,0.7,0.7
		S37.4,21.5,37,21.5z"/>
</g>
<path fill="#FFFFFF" d="M35.5,33.1H14.5c-1,0-1.8-0.8-1.8-1.8V18.7c0-1,0.8-1.8,1.8-1.8h20.9c1,0,1.8,0.8,1.8,1.8v12.6
	C37.3,32.3,36.5,33.1,35.5,33.1z"/>
<g>
	<g>
		<g>
			<path fill="#616161" stroke="#616161" stroke-width="0.3" stroke-miterlimit="10" d="M35.3,16.3H14.7c-1.5,0-2.7,1.2-2.7,2.7V31
				c0,1.5,1.2,2.7,2.7,2.7h20.6c1.5,0,2.7-1.2,2.7-2.7V19C38,17.5,36.8,16.3,35.3,16.3z M36.9,31c0,0.9-0.7,1.6-1.6,1.6H14.7
				c-0.9,0-1.6-0.7-1.6-1.6V19c0-0.9,0.7-1.6,1.6-1.6h20.6c0.9,0,1.6,0.7,1.6,1.6L36.9,31L36.9,31z"/>
		</g>
	</g>
	<g>
		<g>
			<path fill="#616161" d="M37.5,19.6H12.5c-0.3,0-0.5,0.2-0.5,0.5v3.2c0,0.3,0.2,0.5,0.5,0.5h24.9c0.3,0,0.5-0.2,0.5-0.5v-3.2
				C38,19.8,37.8,19.6,37.5,19.6z M36.9,22.8H13.1v-2.2h23.8L36.9,22.8L36.9,22.8z"/>
		</g>
	</g>
	<g>
		<g>
			<path fill="#616161" d="M31.7,29.3h-6.5c-0.3,0-0.5,0.2-0.5,0.5s0.2,0.5,0.5,0.5h6.5c0.3,0,0.5-0.2,0.5-0.5S32,29.3,31.7,29.3z"
				/>
		</g>
	</g>
	<g>
		<g>
			<path fill="#616161" d="M22.3,29.3h-6.5c-0.3,0-0.5,0.2-0.5,0.5s0.2,0.5,0.5,0.5h6.5c0.3,0,0.5-0.2,0.5-0.5
				C22.8,29.6,22.6,29.3,22.3,29.3z"/>
		</g>
	</g>
</g>
</svg>
