<?xml version="1.0" encoding="utf-8"?>
<!-- Generator: Adobe Illustrator 18.1.1, SVG Export Plug-In . SVG Version: 6.00 Build 0)  -->
<svg version="1.1" id="Layer_1" xmlns="http://www.w3.org/2000/svg" xmlns:xlink="http://www.w3.org/1999/xlink" x="0px" y="0px"
	 viewBox="0 0 50 50" enable-background="new 0 0 50 50" xml:space="preserve">
<g id="Icon_10_">
	<path fill="#747474" d="M25,46L25,46c-0.8,0-1.6-0.4-2.1-1L6,24.9c-0.1-0.1-0.2-0.2-0.3-0.3c-0.1-0.1-0.2-0.3-0.3-0.4l-0.4-0.4
		c-0.2-0.2-0.3-0.5-0.4-0.7c-0.7-1.2-1.2-2.5-1.5-3.9C3.1,18.3,3,17.4,3,16.6C3,9.6,8.4,4,15.1,4c4,0,7.7,2.1,9.9,5.4
		C27.2,6.1,30.9,4,34.9,4C41.6,4,47,9.6,47,16.6c0,0.9-0.1,1.7-0.2,2.5c-0.3,1.4-0.8,2.7-1.5,4c-0.1,0.2-0.2,0.4-0.3,0.6l-0.5,0.7
		c-0.1,0.1-0.1,0.2-0.2,0.2c-0.1,0.1-0.2,0.2-0.3,0.3L27.1,45C26.6,45.6,25.8,46,25,46z M8.6,21.7L25,41.3l16.5-19.7
		c0.7-1,1.1-2.1,1.4-3.2c0.1-0.6,0.2-1.2,0.2-1.8c0-4.7-3.6-8.6-8.1-8.6c-3.6,0-6.8,2.5-7.8,6.2c-0.2,0.9-1.1,1.5-2,1.5l-0.4,0
		c-0.9,0-1.7-0.6-1.9-1.5c-1-3.6-4.2-6.2-7.8-6.2C10.6,8,7,11.8,7,16.6c0,0.6,0.1,1.2,0.2,1.8C7.4,19.5,7.9,20.7,8.6,21.7z"/>
</g>
</svg>
