<?xml version="1.0" encoding="utf-8"?>
<!-- Generator: Adobe Illustrator 18.1.1, SVG Export Plug-In . SVG Version: 6.00 Build 0)  -->
<svg version="1.1" id="Layer_1" xmlns="http://www.w3.org/2000/svg" xmlns:xlink="http://www.w3.org/1999/xlink" x="0px" y="0px"
	 viewBox="0 0 50 50" enable-background="new 0 0 50 50" xml:space="preserve">
<g>
	<rect x="9" y="32" fill="none" width="32" height="8"/>
	<path fill="#7953d0" d="M43,5H7C5.3,5,4,6.3,4,8v12c0,1.7,1.3,3,3,3h27.5c1.3,0,2.3-1,2.5-2.2c0-0.1,0-0.2,0-0.3
		c0-1.4-1.1-2.5-2.5-2.5H9v-8h32v10.5c0,1.4,1.1,2.5,2.5,2.5l0.3,0c1.2-0.1,2.2-1.2,2.2-2.4v-0.1V8C46,6.3,44.7,5,43,5z"/>
	<path fill="#7953d0" d="M43,27H7c-1.7,0-3,1.3-3,3v12c0,1.7,1.3,3,3,3h36c1.7,0,3-1.3,3-3V30C46,28.3,44.7,27,43,27z M41,40H9v-8
		h32V40z"/>
</g>
</svg>
