<?xml version="1.0" encoding="utf-8"?>
<!-- Generator: Adobe Illustrator 18.1.1, SVG Export Plug-In . SVG Version: 6.00 Build 0)  -->
<svg version="1.1" id="Layer_1" xmlns="http://www.w3.org/2000/svg" xmlns:xlink="http://www.w3.org/1999/xlink" x="0px" y="0px"
	 viewBox="0 0 50 50" enable-background="new 0 0 50 50" xml:space="preserve">
<g id="Icon_18_">
	<path fill="#747474" d="M44,23c-1.1,0-2-0.9-2-2V9H8v10h27c1.1,0,2,0.9,2,2s-0.9,2-2,2H7c-1.7,0-3-1.3-3-3V8c0-1.7,1.3-3,3-3h36
		c1.7,0,3,1.3,3,3v13C46,22.1,45.1,23,44,23z"/>
	<path fill="#747474" d="M43,45H7c-1.7,0-3-1.3-3-3V30c0-1.7,1.3-3,3-3h36c1.7,0,3,1.3,3,3v12C46,43.7,44.7,45,43,45z M8,41h34V31H8
		V41z"/>
</g>
</svg>
