<?xml version="1.0" encoding="utf-8"?>
<!-- Generator: Adobe Illustrator 18.1.1, SVG Export Plug-In . SVG Version: 6.00 Build 0)  -->
<svg version="1.1" id="Layer_1" xmlns="http://www.w3.org/2000/svg" xmlns:xlink="http://www.w3.org/1999/xlink" x="0px" y="0px"
	 viewBox="0 0 50 50" enable-background="new 0 0 50 50" xml:space="preserve">
<g>
	<path fill="#7953d0" d="M18,4c-3.9,0-7,3.1-7,7c0,0.6,0.1,1.1,0.2,1.7c0.1,0.5,0.3,1,0.5,1.4c-0.4-0.3-0.9-0.5-1.3-0.7
		C9.6,13.2,8.8,13,8,13c-3.9,0-7,3.1-7,7s3.1,7,7,7s7-3.1,7-7c0-0.6-0.1-1.1-0.2-1.7c-0.1-0.5-0.3-1-0.5-1.4
		c0.4,0.3,0.9,0.5,1.3,0.7c0.7,0.3,1.5,0.4,2.4,0.4c2.9,0,5.4-1.8,6.5-4.3c0.3-0.8,0.5-1.7,0.5-2.7s-0.2-1.8-0.5-2.7
		C23.4,5.8,20.9,4,18,4z M18,13c-1.1,0-2-0.9-2-2s0.9-2,2-2s2,0.9,2,2S19.1,13,18,13z M8,22c-1.1,0-2-0.9-2-2s0.9-2,2-2s2,0.9,2,2
		S9.1,22,8,22z"/>
	<path fill="#7953d0" d="M42,13c-0.8,0-1.6,0.2-2.4,0.4c-0.5,0.2-0.9,0.4-1.3,0.7c0.2-0.4,0.4-0.9,0.5-1.4c0.1-0.5,0.2-1.1,0.2-1.7
		c0-3.9-3.1-7-7-7c-2.9,0-5.4,1.8-6.5,4.3C25.2,9.1,25,10.1,25,11s0.2,1.8,0.5,2.7c1.1,2.5,3.6,4.3,6.5,4.3c0.8,0,1.6-0.2,2.4-0.4
		c0.5-0.2,0.9-0.4,1.3-0.7c-0.2,0.4-0.4,0.9-0.5,1.4C35.1,18.9,35,19.4,35,20c0,3.9,3.1,7,7,7s7-3.1,7-7S45.9,13,42,13z M42,22
		c-1.1,0-2-0.9-2-2s0.9-2,2-2s2,0.9,2,2S43.1,22,42,22z M32,13c-1.1,0-2-0.9-2-2s0.9-2,2-2s2,0.9,2,2S33.1,13,32,13z"/>
	<path fill="#7953d0" d="M37.6,28.8l-2.2-2.5c-1-1.2-2-2.4-3.2-3.7c-1.4-1.6-2.8-2.7-4.3-3.2c-0.3-0.1-0.7-0.2-1-0.3
		C26.2,19,25.6,19,25,19c-0.6,0-1.3,0-1.9,0.1c-0.3,0.1-0.7,0.1-1,0.3c-2,0.7-3.4,2.2-4.4,3.2l-1.7,2c-1,1.2-2,2.4-3.2,3.7l-0.4,0.4
		c-2.7,2.7-6,6-5.3,10.8c0,0.1,0,0.2,0.1,0.3c0.9,3.2,3.1,5.4,6.2,6.1c0.3,0.1,0.6,0.1,1,0.1c0.9,0,2-0.2,3.5-0.4
		c2-0.3,4.5-0.6,7-0.6h0.4c2.5,0,5,0.4,7.1,0.6c1.4,0.2,2.6,0.4,3.4,0.4c0.4,0,0.7,0,1-0.1c3-0.7,5.2-2.9,6.1-6c0-0.1,0-0.2,0.1-0.2
		C43.6,34.8,40.3,31.4,37.6,28.8z M35.7,41c-0.6,0-1.6-0.2-2.8-0.3C30.7,40.4,28,40,25.2,40h-0.4c-2.9,0-5.5,0.4-7.7,0.7
		C16,40.8,14.9,41,14.3,41l-0.1,0c-1.3-0.3-2-1.4-2.3-2.3c-0.2-2.1,1.4-3.9,3.9-6.3l0.5-0.5c0.1-0.1,0.1-0.1,0.2-0.2
		c1.1-1.3,2.2-2.5,3.2-3.8l1.7-2c0.8-1,1.6-1.6,2.3-1.8c0.1,0,0.1,0,0.2-0.1c0.5-0.1,1.6-0.1,2,0c0.1,0,0.1,0,0.2,0.1
		c0.5,0.2,1.2,0.6,2.2,1.8c1.1,1.3,2.1,2.5,3.1,3.7l1.8,2.1c0.1,0.1,0.1,0.1,0.2,0.2l0.5,0.5c2.5,2.5,4.1,4.3,3.9,6.4
		C37.7,39.5,37.1,40.7,35.7,41z"/>
</g>
</svg>
