<?xml version="1.0" encoding="utf-8"?>
<!-- Generator: Adobe Illustrator 18.1.1, SVG Export Plug-In . SVG Version: 6.00 Build 0)  -->
<svg version="1.1" id="Layer_1" xmlns="http://www.w3.org/2000/svg" xmlns:xlink="http://www.w3.org/1999/xlink" x="0px" y="0px"
	 viewBox="0 0 50 50" enable-background="new 0 0 50 50" xml:space="preserve">
<path fill="#7953d0" d="M34.9,4c-4,0-7.7,2.1-9.9,5.4C22.8,6.1,19.1,4,15.1,4C8.4,4,3,9.6,3,16.6c0,0.9,0.1,1.7,0.2,2.5
	C3.5,20.5,4,21.8,4.7,23c0.1,0.3,0.2,0.5,0.4,0.7l0.4,0.4c0.1,0.1,0.2,0.3,0.3,0.4c0.1,0.1,0.2,0.2,0.3,0.3L22.9,45
	c0.5,0.6,1.3,1,2.1,1c0.8,0,1.6-0.4,2.1-1l16.8-20.1c0.1-0.1,0.2-0.2,0.3-0.3c0.1-0.1,0.1-0.1,0.2-0.2l0.5-0.7
	c0.1-0.2,0.3-0.4,0.3-0.6c0.7-1.2,1.2-2.6,1.5-4c0.2-0.8,0.2-1.7,0.2-2.5C47,9.6,41.6,4,34.9,4z"/>
</svg>
