<?xml version="1.0" encoding="utf-8"?>
<!-- Generator: Adobe Illustrator 18.1.1, SVG Export Plug-In . SVG Version: 6.00 Build 0)  -->
<svg version="1.1" id="Layer_1" xmlns="http://www.w3.org/2000/svg" xmlns:xlink="http://www.w3.org/1999/xlink" x="0px" y="0px"
	 viewBox="0 0 56 56" enable-background="new 0 0 56 56" xml:space="preserve">
<rect fill="#F3F1F6" width="56" height="56"/>
<g>
	
		<polygon fill="#FFFFFF" stroke="#9D9BA1" stroke-width="1.2" stroke-linecap="round" stroke-linejoin="round" stroke-miterlimit="10" points="
		38,22.4 38,43 18,43 18,22.4 28,14.5 	"/>
	
		<path fill="#D4CAED" stroke="#9D9BA1" stroke-width="1.2" stroke-linecap="round" stroke-linejoin="round" stroke-miterlimit="10" d="
		M32.6,43h-9.1v-9.3c0-2.5,2-4.6,4.6-4.6h0c2.5,0,4.6,2,4.6,4.6V43z"/>
	
		<path fill="#D4CAED" stroke="#9D9BA1" stroke-width="1.2" stroke-linecap="round" stroke-linejoin="round" stroke-miterlimit="10" d="
		M40.4,25.7c-0.3,0-0.6-0.1-0.9-0.3L28,16.3l-11.5,9.1c-0.6,0.5-1.5,0.4-2-0.2c-0.5-0.6-0.4-1.5,0.2-2l12.4-9.8
		c0.5-0.4,1.3-0.4,1.8,0l12.4,9.8c0.6,0.5,0.7,1.4,0.2,2C41.3,25.6,40.8,25.7,40.4,25.7z"/>
</g>
</svg>
