<?xml version="1.0" encoding="utf-8"?>
<!-- Generator: Adobe Illustrator 18.1.1, SVG Export Plug-In . SVG Version: 6.00 Build 0)  -->
<svg version="1.1" id="Layer_1" xmlns="http://www.w3.org/2000/svg" xmlns:xlink="http://www.w3.org/1999/xlink" x="0px" y="0px"
	 viewBox="0 0 56 56" enable-background="new 0 0 56 56" xml:space="preserve">
<rect fill="#F3F1F6" width="56" height="56"/>
<g>
	
		<path fill="#FFFFFF" stroke="#9D9BA1" stroke-width="1.2" stroke-linecap="round" stroke-linejoin="round" stroke-miterlimit="10" d="
		M32.8,43.5H22.5c-1.4,0-2.6-1.2-2.6-2.6V27.7c0-4.3,3.5-7.8,7.8-7.8l0,0c4.3,0,7.8,3.5,7.8,7.8v13.2C35.4,42.3,34.2,43.5,32.8,43.5
		z"/>
	
		<rect x="19.9" y="29.1" fill="#FFFFFF" stroke="#9D9BA1" stroke-width="1.0956" stroke-linecap="round" stroke-linejoin="round" stroke-miterlimit="10" width="15.5" height="9.3"/>
	
		<rect x="24.2" y="17.8" fill="#D4CAED" stroke="#9D9BA1" stroke-width="1.0956" stroke-linecap="round" stroke-linejoin="round" stroke-miterlimit="10" width="6.9" height="3"/>
	
		<rect x="26.6" y="13.4" fill="#FFFFFF" stroke="#9D9BA1" stroke-width="1.0956" stroke-linecap="round" stroke-linejoin="round" stroke-miterlimit="10" width="2.1" height="4.4"/>
	<g>
		<path fill="#B9A4ED" d="M28.9,34c-0.2-0.6-0.7-0.9-1.3-0.9c-0.6,0-1.1,0.4-1.3,0.9c-0.6,0.2-1.1,0.8-0.9,1.6
			c0.1,0.6,0.6,1,1.1,1.1c0.2,0,0.4,0,0.6,0c0.3-0.1,0.7-0.1,1,0c0.2,0.1,0.4,0.1,0.6,0c0.6-0.1,1-0.5,1.1-1.1
			C30,34.8,29.6,34.2,28.9,34z"/>
		
			<ellipse transform="matrix(-0.7802 -0.6255 0.6255 -0.7802 23.7816 74.7131)" fill="#B9A4ED" cx="25" cy="33.2" rx="0.8" ry="0.6"/>
		
			<ellipse transform="matrix(-0.3797 -0.9251 0.9251 -0.3797 7.4725 68.2095)" fill="#B9A4ED" cx="26.6" cy="31.6" rx="0.9" ry="0.7"/>
		
			<ellipse transform="matrix(-0.7802 0.6255 -0.6255 -0.7802 74.6902 40.0513)" fill="#B9A4ED" cx="30.3" cy="33.1" rx="0.8" ry="0.6"/>
		
			<ellipse transform="matrix(-0.3797 0.9251 -0.9251 -0.3797 68.7411 17.0592)" fill="#B9A4ED" cx="28.7" cy="31.6" rx="0.9" ry="0.7"/>
	</g>
	
		<path fill="#FFFFFF" stroke="#9D9BA1" stroke-width="1.2" stroke-linecap="round" stroke-linejoin="round" stroke-miterlimit="10" d="
		M35.2,16.9c-0.2,0-0.3,0-0.5-0.1l-3.9-2.5h-6.7c-0.5,0-0.9-0.4-0.9-0.9s0.4-0.9,0.9-0.9H31c0.2,0,0.3,0,0.5,0.1l4.1,2.6
		c0.4,0.3,0.5,0.8,0.3,1.2C35.8,16.8,35.5,16.9,35.2,16.9z"/>
</g>
</svg>
