<?xml version="1.0" encoding="utf-8"?>
<!-- Generator: Adobe Illustrator 18.1.1, SVG Export Plug-In . SVG Version: 6.00 Build 0)  -->
<svg version="1.1" id="Layer_1" xmlns="http://www.w3.org/2000/svg" xmlns:xlink="http://www.w3.org/1999/xlink" x="0px" y="0px"
	 viewBox="0 0 56 56" enable-background="new 0 0 56 56" xml:space="preserve">
<rect fill="#F3F1F6" width="56" height="56"/>
<g>
	<path fill="#FFFFFF" stroke="#9D9BA1" stroke-width="1.2" stroke-miterlimit="10" d="M29.8,28c0-3.7,1.8-6.9,4.6-8.9
		c-1.8-1.3-4-2.1-6.4-2.1s-4.6,0.8-6.4,2.1c2.8,2,4.6,5.2,4.6,8.9s-1.8,6.9-4.6,8.9c1.8,1.3,4,2.1,6.4,2.1s4.6-0.8,6.4-2.1
		C31.6,34.9,29.8,31.7,29.8,28z"/>
	<path fill="#FFFFFF" stroke="#9D9BA1" stroke-width="1.2" stroke-miterlimit="10" d="M26.2,28c0-3.7-1.8-6.9-4.6-8.9
		c-2.8,2-4.6,5.2-4.6,8.9s1.8,6.9,4.6,8.9C24.4,34.9,26.2,31.7,26.2,28z"/>
	<path fill="#FFFFFF" stroke="#9D9BA1" stroke-width="1.2" stroke-miterlimit="10" d="M39,28c0-3.7-1.8-6.9-4.6-8.9
		c-2.8,2-4.6,5.2-4.6,8.9s1.8,6.9,4.6,8.9C37.2,34.9,39,31.7,39,28z"/>
</g>
</svg>
