<?xml version="1.0" encoding="utf-8"?>
<!-- Generator: Adobe Illustrator 18.1.1, SVG Export Plug-In . SVG Version: 6.00 Build 0)  -->
<svg version="1.1" id="Layer_1" xmlns="http://www.w3.org/2000/svg" xmlns:xlink="http://www.w3.org/1999/xlink" x="0px" y="0px"
	 viewBox="0 0 50 50" enable-background="new 0 0 50 50" xml:space="preserve">
<g>
	<path fill="#9d9ba1" d="M10.7,29.2c0.9,0,1.7-0.7,1.7-1.7l0-10.3c0-6.2,5.8-11.2,12.8-11.2c7.1,0,12.8,5,12.8,11.2v10.3
		c0,0.9,0.7,1.7,1.7,1.7s1.7-0.7,1.7-1.7V17.3c0-8-7.2-14.5-16.2-14.5C16.3,2.8,9,9.3,9,17.3l0,10.3C9,28.4,9.8,29.2,10.7,29.2z"/>
	<path fill="#9d9ba1" d="M45.1,38l-3-4.5c-0.5-0.7-1.6-0.9-2.3-0.4c-0.4,0.3-0.6,0.6-0.7,1.1c-0.1,0.4,0,0.9,0.3,1.2l1.2,1.8H9.7
		l1.3-1.7c0.5-0.7,0.4-1.8-0.4-2.3c-0.7-0.5-1.8-0.3-2.3,0.4L5,37.9c-0.4,0.5-0.4,1.1-0.1,1.7c0.3,0.5,0.8,0.9,1.4,0.9h37.4
		c0.6,0,1.1-0.3,1.4-0.9C45.5,39.1,45.4,38.5,45.1,38z"/>
	<path fill="#9d9ba1" d="M30.3,42c-0.7,0-1.4,0.5-1.5,1.2c-0.4,1.7-1.9,2.8-3.6,2.8c-1.7,0-3.2-1.2-3.6-2.8C21.4,42.4,20.7,42,20,42
		c-0.5,0-1,0.3-1.4,0.7c-0.3,0.4-0.4,0.9-0.3,1.4c0.8,3.1,3.6,5.2,6.8,5.2s6-2.1,6.8-5.2c0.1-0.5,0-1-0.3-1.4
		C31.3,42.2,30.8,42,30.3,42z"/>
	<path fill="#9d9ba1" d="M19.7,10.3c-0.3,0-0.6,0.1-0.8,0.2c-1.8,1.1-3.9,3.5-3.9,8.3c0,0.4,0.2,0.8,0.5,1.1
		c0.3,0.3,0.7,0.5,1.1,0.5c0,0,0.1,0,0.1,0l0.1,0c0.8-0.1,1.5-0.8,1.5-1.6c0.1-3.4,1.5-4.8,2.4-5.4c0.6-0.4,0.9-1.1,0.7-1.8l0-0.1
		C21.1,10.8,20.5,10.3,19.7,10.3z"/>
</g>
</svg>
