<?xml version="1.0" encoding="utf-8"?>
<!-- Generator: Adobe Illustrator 18.1.1, SVG Export Plug-In . SVG Version: 6.00 Build 0)  -->
<svg version="1.1" id="Layer_1" xmlns="http://www.w3.org/2000/svg" xmlns:xlink="http://www.w3.org/1999/xlink" x="0px" y="0px"
	 viewBox="0 0 100 64" enable-background="new 0 0 100 64" xml:space="preserve">
<g>
	<defs>
		<rect id="SVGID_1_" x="1.7" y="3" width="89.6" height="58"/>
	</defs>
	<clipPath id="SVGID_2_">
		<use xlink:href="#SVGID_1_"  overflow="visible"/>
	</clipPath>
	<path clip-path="url(#SVGID_2_)" fill="#747474" d="M67.7,41.8H17.5c-1,0-1.8-0.8-1.8-1.8V4.8c0-1,0.8-1.8,1.8-1.8h50.2
		c1,0,1.8,0.8,1.8,1.8V40C69.5,41,68.7,41.8,67.7,41.8 M19.3,38.2h46.6V6.6H19.3V38.2z"/>
	<path clip-path="url(#SVGID_2_)" fill="#FFFFFF" d="M82.5,21.6v-4.7c0-3-2.4-5.5-5.5-5.5h-9.3v10.2V40h14.8h7V27.1
		c0-3-2.4-5.5-5.5-5.5H82.5z"/>
	<path clip-path="url(#SVGID_2_)" fill="#747474" d="M89.5,41.8H67.7c-1,0-1.8-0.8-1.8-1.8V11.5c0-1,0.8-1.8,1.8-1.8H77
		c4,0,7.3,3.3,7.3,7.3v2.9c3.9,0.1,7,3.3,7,7.3V40C91.3,41,90.5,41.8,89.5,41.8 M69.5,38.2h18.2V27.1c0-2-1.6-3.7-3.7-3.7h-1.6
		c-1,0-1.8-0.8-1.8-1.8v-4.7c0-2-1.6-3.7-3.7-3.7h-7.5V38.2z"/>
	<rect x="17.5" y="40" clip-path="url(#SVGID_2_)" fill="#D4CAED" width="72" height="9.9"/>
	<path clip-path="url(#SVGID_2_)" fill="#747474" d="M89.5,51.7h-72c-1,0-1.8-0.8-1.8-1.8V40c0-1,0.8-1.8,1.8-1.8h72
		c1,0,1.8,0.8,1.8,1.8v9.9C91.3,50.9,90.5,51.7,89.5,51.7 M19.3,48.1h68.4v-6.3H19.3V48.1z"/>
	<path clip-path="url(#SVGID_2_)" fill="#FFFFFF" d="M38.2,51.6c0,4.2-3.4,7.6-7.6,7.6c-4.2,0-7.6-3.4-7.6-7.6
		c0-4.2,3.4-7.6,7.6-7.6C34.8,44.1,38.2,47.4,38.2,51.6"/>
	<path clip-path="url(#SVGID_2_)" fill="#747474" d="M30.6,61c-5.2,0-9.4-4.2-9.4-9.4c0-5.2,4.2-9.4,9.4-9.4c5.2,0,9.4,4.2,9.4,9.4
		C40,56.8,35.8,61,30.6,61 M30.6,45.9c-3.2,0-5.8,2.6-5.8,5.8c0,3.2,2.6,5.8,5.8,5.8c3.2,0,5.8-2.6,5.8-5.8
		C36.4,48.4,33.8,45.9,30.6,45.9"/>
	<path clip-path="url(#SVGID_2_)" fill="#FFFFFF" d="M32.9,51.6c0,1.3-1,2.3-2.3,2.3c-1.3,0-2.3-1-2.3-2.3c0-1.3,1-2.3,2.3-2.3
		C31.9,49.3,32.9,50.4,32.9,51.6"/>
	<path clip-path="url(#SVGID_2_)" fill="#747474" d="M30.6,55.4c-2.1,0-3.8-1.7-3.8-3.8c0-2.1,1.7-3.8,3.8-3.8
		c2.1,0,3.8,1.7,3.8,3.8C34.4,53.7,32.7,55.4,30.6,55.4 M30.6,50.9c-0.4,0-0.8,0.3-0.8,0.8c0,0.4,0.3,0.8,0.8,0.8
		c0.4,0,0.8-0.3,0.8-0.8C31.4,51.2,31,50.9,30.6,50.9"/>
	<path clip-path="url(#SVGID_2_)" fill="#FFFFFF" d="M82.8,51.6c0,4.2-3.4,7.6-7.6,7.6c-4.2,0-7.6-3.4-7.6-7.6
		c0-4.2,3.4-7.6,7.6-7.6C79.5,44.1,82.8,47.4,82.8,51.6"/>
	<path clip-path="url(#SVGID_2_)" fill="#747474" d="M75.3,61c-5.2,0-9.4-4.2-9.4-9.4c0-5.2,4.2-9.4,9.4-9.4c5.2,0,9.4,4.2,9.4,9.4
		C84.6,56.8,80.4,61,75.3,61 M75.3,45.9c-3.2,0-5.8,2.6-5.8,5.8c0,3.2,2.6,5.8,5.8,5.8s5.8-2.6,5.8-5.8C81,48.4,78.5,45.9,75.3,45.9
		"/>
	<path clip-path="url(#SVGID_2_)" fill="#FFFFFF" d="M77.6,51.6c0,1.3-1,2.3-2.3,2.3c-1.3,0-2.3-1-2.3-2.3c0-1.3,1-2.3,2.3-2.3
		C76.5,49.3,77.6,50.4,77.6,51.6"/>
	<path clip-path="url(#SVGID_2_)" fill="#747474" d="M75.3,55.4c-2.1,0-3.8-1.7-3.8-3.8c0-2.1,1.7-3.8,3.8-3.8
		c2.1,0,3.8,1.7,3.8,3.8C79.1,53.7,77.4,55.4,75.3,55.4 M75.3,50.9c-0.4,0-0.8,0.3-0.8,0.8c0,0.4,0.3,0.8,0.8,0.8
		c0.4,0,0.8-0.3,0.8-0.8C76.1,51.2,75.7,50.9,75.3,50.9"/>
	<path clip-path="url(#SVGID_2_)" fill="#FFFFFF" d="M77.7,16.9c0-0.4-0.3-0.7-0.7-0.7h-4.5v5.4h5.2V16.9z"/>
	<path clip-path="url(#SVGID_2_)" fill="#747474" d="M77.7,23.1h-5.2c-0.8,0-1.5-0.7-1.5-1.5v-5.4c0-0.8,0.7-1.5,1.5-1.5H77
		c1.2,0,2.2,1,2.2,2.2v4.7C79.2,22.5,78.5,23.1,77.7,23.1 M74,20.1h2.2v-2.4H74V20.1z"/>
	<line clip-path="url(#SVGID_2_)" fill="#FFFFFF" x1="11.6" y1="49.9" x2="3.2" y2="49.9"/>
	<path clip-path="url(#SVGID_2_)" fill="#747474" d="M11.6,51.4H3.2c-0.8,0-1.5-0.7-1.5-1.5s0.7-1.5,1.5-1.5h8.4
		c0.8,0,1.5,0.7,1.5,1.5S12.4,51.4,11.6,51.4"/>
	<line clip-path="url(#SVGID_2_)" fill="#FFFFFF" x1="11.6" y1="44.9" x2="5.7" y2="44.9"/>
	<path clip-path="url(#SVGID_2_)" fill="#747474" d="M11.6,46.4H5.7c-0.8,0-1.5-0.7-1.5-1.5c0-0.8,0.7-1.5,1.5-1.5h5.9
		c0.8,0,1.5,0.7,1.5,1.5C13.1,45.8,12.4,46.4,11.6,46.4"/>
	<line clip-path="url(#SVGID_2_)" fill="#FFFFFF" x1="11.6" y1="40" x2="3.2" y2="40"/>
	<path clip-path="url(#SVGID_2_)" fill="#747474" d="M11.6,41.5H3.2c-0.8,0-1.5-0.7-1.5-1.5c0-0.8,0.7-1.5,1.5-1.5h8.4
		c0.8,0,1.5,0.7,1.5,1.5C13.1,40.8,12.4,41.5,11.6,41.5"/>
	<line clip-path="url(#SVGID_2_)" fill="#FFFFFF" x1="72.5" y1="26.7" x2="75.7" y2="26.7"/>
	<path clip-path="url(#SVGID_2_)" fill="#747474" d="M75.7,28.2h-3.2c-0.8,0-1.5-0.7-1.5-1.5c0-0.8,0.7-1.5,1.5-1.5h3.2
		c0.8,0,1.5,0.7,1.5,1.5C77.2,27.6,76.5,28.2,75.7,28.2"/>
</g>
</svg>
