<?xml version="1.0" encoding="utf-8"?>
<!-- Generator: Adobe Illustrator 18.1.1, SVG Export Plug-In . SVG Version: 6.00 Build 0)  -->
<svg version="1.1" id="Layer_1" xmlns="http://www.w3.org/2000/svg" xmlns:xlink="http://www.w3.org/1999/xlink" x="0px" y="0px"
	 viewBox="0 0 100 68" enable-background="new 0 0 100 68" xml:space="preserve">
<g>
	
		<rect x="73.8" y="23.9" transform="matrix(0.7071 0.7071 -0.7071 0.7071 49.0055 -43.5689)" fill="#D4CAED" width="6.5" height="27"/>
	<g>
		<defs>
			<rect id="SVGID_1_" x="17.3" y="4" width="73.5" height="60"/>
		</defs>
		<clipPath id="SVGID_2_">
			<use xlink:href="#SVGID_1_"  overflow="visible"/>
		</clipPath>
		<path clip-path="url(#SVGID_2_)" fill="#747474" d="M69.8,51c-0.5,0-0.9-0.2-1.3-0.5L64,45.9c-0.7-0.7-0.7-1.8,0-2.5l19.1-19.1
			c0.7-0.7,1.8-0.7,2.5,0l4.6,4.6c0.7,0.7,0.7,1.8,0,2.5L71.1,50.5C70.8,50.8,70.3,51,69.8,51 M67.8,44.6l2.1,2.1l16.6-16.6L84.3,28
			L67.8,44.6z"/>
		<path clip-path="url(#SVGID_2_)" fill="#FFFFFF" d="M66.8,62.2H51.2H29.4h-5.2c2.9,0,5.2-2.3,5.2-5.2V39.8v-34h42.5V57
			C71.9,59.9,69.6,62.2,66.8,62.2"/>
		<path clip-path="url(#SVGID_2_)" fill="#747474" d="M66.8,64H24.2c-1,0-1.8-0.8-1.8-1.8c0-1,0.8-1.8,1.8-1.8
			c1.9,0,3.4-1.5,3.4-3.4V5.8c0-1,0.8-1.8,1.8-1.8h42.5c1,0,1.8,0.8,1.8,1.8V57C73.7,60.9,70.6,64,66.8,64 M30.3,60.4h36.5
			c1.9,0,3.4-1.5,3.4-3.4V7.6h-39V57C31.2,58.3,30.9,59.4,30.3,60.4"/>
		<path clip-path="url(#SVGID_2_)" fill="#D4CAED" d="M19,43.9V57c0,2.9,2.3,5.2,5.2,5.2c2.9,0,5.2-2.3,5.2-5.2V43.9H19z"/>
		<path clip-path="url(#SVGID_2_)" fill="#747474" d="M24.2,64c-3.8,0-7-3.1-7-7V43.9c0-1,0.8-1.8,1.8-1.8h10.3c1,0,1.8,0.8,1.8,1.8
			V57C31.2,60.9,28.1,64,24.2,64 M20.8,45.7V57c0,1.9,1.5,3.4,3.4,3.4c1.9,0,3.4-1.5,3.4-3.4V45.7H20.8z"/>
		<line clip-path="url(#SVGID_2_)" fill="#FFFFFF" x1="38.5" y1="15.8" x2="64.8" y2="15.8"/>
		<path clip-path="url(#SVGID_2_)" fill="#747474" d="M64.8,17.3H38.5c-0.8,0-1.5-0.7-1.5-1.5c0-0.8,0.7-1.5,1.5-1.5h26.2
			c0.8,0,1.5,0.7,1.5,1.5C66.3,16.6,65.6,17.3,64.8,17.3"/>
		<line clip-path="url(#SVGID_2_)" fill="#FFFFFF" x1="38.5" y1="26.6" x2="64.8" y2="26.6"/>
		<path clip-path="url(#SVGID_2_)" fill="#747474" d="M64.8,28.1H38.5c-0.8,0-1.5-0.7-1.5-1.5c0-0.8,0.7-1.5,1.5-1.5h26.2
			c0.8,0,1.5,0.7,1.5,1.5C66.3,27.5,65.6,28.1,64.8,28.1"/>
		<line clip-path="url(#SVGID_2_)" fill="#FFFFFF" x1="38.5" y1="37.5" x2="56.4" y2="37.5"/>
		<path clip-path="url(#SVGID_2_)" fill="#747474" d="M56.4,39H38.5c-0.8,0-1.5-0.7-1.5-1.5c0-0.8,0.7-1.5,1.5-1.5h17.9
			c0.8,0,1.5,0.7,1.5,1.5C57.9,38.3,57.3,39,56.4,39"/>
		<line clip-path="url(#SVGID_2_)" fill="#FFFFFF" x1="38.5" y1="48.3" x2="56.4" y2="48.3"/>
		<path clip-path="url(#SVGID_2_)" fill="#747474" d="M56.4,49.8H38.5c-0.8,0-1.5-0.7-1.5-1.5c0-0.8,0.7-1.5,1.5-1.5h17.9
			c0.8,0,1.5,0.7,1.5,1.5C57.9,49.2,57.3,49.8,56.4,49.8"/>
		
			<rect x="73.8" y="23.9" transform="matrix(0.7071 0.7071 -0.7071 0.7071 49.0055 -43.5689)" clip-path="url(#SVGID_2_)" fill="#D4CAED" width="6.5" height="27"/>
		<path clip-path="url(#SVGID_2_)" fill="#747474" d="M69.8,50.7c-0.4,0-0.8-0.1-1.1-0.4l-4.6-4.6c-0.6-0.6-0.6-1.5,0-2.1l19.1-19.1
			c0.6-0.6,1.5-0.6,2.1,0l4.6,4.6c0.6,0.6,0.6,1.5,0,2.1L70.9,50.3C70.6,50.6,70.2,50.7,69.8,50.7 M67.3,44.6l2.5,2.5l17-17
			l-2.5-2.5L67.3,44.6z"/>
		<polygon clip-path="url(#SVGID_2_)" fill="#FFFFFF" points="60,54.5 65.2,44.6 69.8,49.2 		"/>
		<path clip-path="url(#SVGID_2_)" fill="#747474" d="M60,56c-0.4,0-0.8-0.1-1.1-0.4c-0.5-0.5-0.6-1.2-0.3-1.8l5.3-9.9
			c0.2-0.4,0.6-0.7,1.1-0.8c0.5-0.1,0.9,0.1,1.3,0.4l4.6,4.6c0.3,0.3,0.5,0.8,0.4,1.3c-0.1,0.5-0.4,0.9-0.8,1.1l-9.9,5.3
			C60.4,55.9,60.2,56,60,56 M65.6,47.1l-2,3.8l3.8-2L65.6,47.1z"/>
	</g>
</g>
</svg>
