<?xml version="1.0" encoding="utf-8"?>
<!-- Generator: Adobe Illustrator 18.1.1, SVG Export Plug-In . SVG Version: 6.00 Build 0)  -->
<svg version="1.1" id="Layer_1" xmlns="http://www.w3.org/2000/svg" xmlns:xlink="http://www.w3.org/1999/xlink" x="0px" y="0px"
	 viewBox="0 0 96 96" enable-background="new 0 0 96 96" xml:space="preserve">
<circle fill="#F3F1F6" cx="48" cy="48" r="48"/>
<g>
	<path fill="#FFFFFF" d="M48,29.4c-10.3,0-18.6,8.4-18.6,18.6c0,10.3,8.4,18.6,18.6,18.6c10.3,0,18.6-8.4,18.6-18.6
		C66.6,37.7,58.3,29.4,48,29.4z M58.5,43.7L46.9,55.3c-0.3,0.3-0.6,0.4-1,0.4s-0.7-0.1-1-0.4l-7.5-7.5c-0.5-0.5-0.5-1.4,0-1.9
		c0.5-0.5,1.4-0.5,1.9,0l6.6,6.6l10.6-10.6c0.5-0.5,1.4-0.5,1.9,0C59,42.3,59,43.2,58.5,43.7z"/>
	<path fill="#616161" d="M48,26.6c-11.8,0-21.4,9.6-21.4,21.4c0,11.8,9.6,21.4,21.4,21.4c11.8,0,21.4-9.6,21.4-21.4
		C69.4,36.2,59.8,26.6,48,26.6z M48,66.6c-10.3,0-18.6-8.4-18.6-18.6c0-10.3,8.4-18.6,18.6-18.6c10.3,0,18.6,8.4,18.6,18.6
		C66.6,58.3,58.3,66.6,48,66.6z"/>
	<path fill="#616161" d="M56.6,41.8L46,52.4l-6.6-6.6c-0.5-0.5-1.4-0.5-1.9,0c-0.5,0.5-0.5,1.4,0,1.9l7.5,7.5c0.3,0.3,0.6,0.4,1,0.4
		s0.7-0.1,1-0.4l11.6-11.6c0.5-0.5,0.5-1.4,0-1.9C58,41.3,57.1,41.3,56.6,41.8z"/>
</g>
</svg>
