<?xml version="1.0" encoding="utf-8"?>
<!-- Generator: Adobe Illustrator 18.1.1, SVG Export Plug-In . SVG Version: 6.00 Build 0)  -->
<svg version="1.1" id="Layer_1" xmlns="http://www.w3.org/2000/svg" xmlns:xlink="http://www.w3.org/1999/xlink" x="0px" y="0px"
	 viewBox="0 0 96 96" enable-background="new 0 0 96 96" xml:space="preserve">
<circle fill="#F3F1F6" cx="48" cy="48" r="48"/>
<g>
	<path fill="#616161" d="M72.3,34.6H23.7c-2.9,0-5.2-2.3-5.2-5.2s2.3-5.2,5.2-5.2h48.6c2.9,0,5.2,2.3,5.2,5.2S75.2,34.6,72.3,34.6z
		 M23.7,26.8c-1.5,0-2.7,1.2-2.7,2.7s1.2,2.7,2.7,2.7h48.6c1.5,0,2.7-1.2,2.7-2.7s-1.2-2.7-2.7-2.7H23.7z"/>
	<g>
		<polyline fill="#FFFFFF" points="30.4,69.4 30.4,25.5 65.6,25.5 65.6,69.4 		"/>
		<path fill="#616161" d="M65.6,70.6c-0.7,0-1.3-0.6-1.3-1.3V26.8H31.7v42.6c0,0.7-0.6,1.3-1.3,1.3s-1.3-0.6-1.3-1.3V25.5
			c0-0.7,0.6-1.3,1.3-1.3h35.1c0.7,0,1.3,0.6,1.3,1.3v43.9C66.8,70.1,66.3,70.6,65.6,70.6z"/>
	</g>
	<path fill="#616161" d="M34.1,72.8c-0.2,0-0.4-0.1-0.6-0.2L30,70.5c-0.6-0.4-0.8-1.1-0.4-1.7c0.4-0.6,1.1-0.8,1.7-0.4l2.8,1.7
		l2.8-1.7c0.4-0.2,0.9-0.2,1.3,0l2.8,1.7l2.8-1.7c0.4-0.2,0.9-0.2,1.3,0l2.8,1.7l2.8-1.7c0.4-0.2,0.9-0.2,1.3,0l2.8,1.7l2.8-1.7
		c0.4-0.2,0.9-0.2,1.3,0l2.8,1.7l2.8-1.7c0.6-0.4,1.4-0.2,1.7,0.4c0.4,0.6,0.2,1.4-0.4,1.7l-3.5,2.1c-0.4,0.2-0.9,0.2-1.3,0
		l-2.8-1.7l-2.8,1.7c-0.4,0.2-0.9,0.2-1.3,0l-2.8-1.7l-2.8,1.7c-0.4,0.2-0.9,0.2-1.3,0l-2.8-1.7l-2.8,1.7c-0.4,0.2-0.9,0.2-1.3,0
		l-2.8-1.7l-2.8,1.7C34.5,72.7,34.3,72.8,34.1,72.8z"/>
	<g>
		<line fill="#FFFFFF" x1="38.1" y1="36.8" x2="57.9" y2="36.8"/>
		<path fill="#616161" d="M57.9,38H38.1c-0.7,0-1.3-0.6-1.3-1.3s0.6-1.3,1.3-1.3h19.9c0.7,0,1.3,0.6,1.3,1.3S58.6,38,57.9,38z"/>
	</g>
	<g>
		<line fill="#FFFFFF" x1="38.1" y1="45.8" x2="57.9" y2="45.8"/>
		<path fill="#616161" d="M57.9,47H38.1c-0.7,0-1.3-0.6-1.3-1.3s0.6-1.3,1.3-1.3h19.9c0.7,0,1.3,0.6,1.3,1.3S58.6,47,57.9,47z"/>
	</g>
	<g>
		<line fill="#FFFFFF" x1="38.1" y1="54.8" x2="57.9" y2="54.8"/>
		<path fill="#616161" d="M57.9,56H38.1c-0.7,0-1.3-0.6-1.3-1.3s0.6-1.3,1.3-1.3h19.9c0.7,0,1.3,0.6,1.3,1.3S58.6,56,57.9,56z"/>
	</g>
</g>
</svg>
